<svg width="202" height="202" viewBox="0 0 202 202" fill="none" xmlns="http://www.w3.org/2000/svg">
<path d="M175.296 109.764C175.151 109.802 175.074 109.872 175.066 109.973C175.024 110.496 175.782 111.377 177.342 112.618C177.344 112.719 177.343 112.795 177.339 112.845C177.333 112.916 177.314 113.02 177.283 113.16C175.588 112.081 174.394 110.774 173.698 109.239L173.607 109.049C173.442 108.712 173.368 108.438 173.385 108.227C173.409 107.935 173.622 107.805 174.024 107.838C174.417 107.87 175.805 108.479 178.189 109.664L178.848 109.961C179.404 110.229 179.931 110.464 180.431 110.666L180.162 110.432C175.809 106.93 173.699 104.369 173.83 102.75C173.889 102.026 174.25 101.691 174.914 101.745C175.306 101.776 175.884 101.955 176.647 102.28C177.42 102.616 179.274 103.592 182.211 105.207L184.643 106.483C184.74 106.541 184.808 106.572 184.849 106.575C184.909 106.58 184.998 106.547 185.115 106.476C185.05 105.903 184.228 104.991 182.649 103.739L182.714 103.122C183.674 103.767 184.543 104.536 185.321 105.429C186.109 106.323 186.473 107.148 186.411 107.902C186.372 108.385 186.187 108.613 185.855 108.586C185.332 108.543 184.533 108.22 183.458 107.617L178.839 105.025C177.106 104.054 175.998 103.549 175.515 103.509C175.233 103.487 175.082 103.601 175.062 103.852C175.015 104.426 175.856 105.602 177.585 107.383C179.313 109.163 181.327 110.729 183.627 112.08L184.032 112.326C184.437 112.581 184.862 112.828 185.309 113.067C185.609 113.233 185.803 113.401 185.891 113.57C185.892 113.803 185.888 113.97 185.88 114.07C185.87 114.201 185.834 114.395 185.772 114.654C185.688 114.687 185.621 114.702 185.571 114.698C185.43 114.687 184.742 114.378 183.505 113.771L183.139 113.605C182.69 113.396 182.112 113.101 181.404 112.72C180.958 112.471 180.575 112.268 180.253 112.11L175.296 109.764Z" fill="#C73A2A"/>
<path d="M167.414 106.365C167.411 106.75 167.37 107.244 167.291 107.848C167.245 108.159 167.215 108.381 167.203 108.513C167.203 108.679 167.195 108.834 167.18 108.975C167.205 109.127 167.244 109.241 167.298 109.317C167.398 109.457 167.624 109.654 167.977 109.908L171.429 112.319C171.877 112.65 172.381 112.984 172.941 113.322C173.294 113.536 173.634 113.756 173.961 113.984C174.287 114.222 174.501 114.364 174.604 114.41C174.814 114.525 174.963 114.615 175.051 114.678L178.512 116.997C178.646 117.083 179.631 117.72 181.466 118.908C182.021 119.266 182.581 119.604 183.146 119.923C183.203 119.198 183.218 118.557 183.192 117.999C183.189 117.884 183.183 117.721 183.174 117.511C183.118 117.112 183.101 116.868 183.123 116.78C183.143 116.702 183.207 116.588 183.318 116.439L183.487 116.45C183.624 116.484 183.721 116.592 183.78 116.773C183.963 117.329 184.021 118.55 183.954 120.437C185.06 121.214 185.82 121.706 186.236 121.915C186.787 122.209 187.151 122.477 187.33 122.719C187.32 122.842 187.299 122.966 187.267 123.094C187.233 123.231 187.171 123.434 187.083 123.703C186.865 123.825 186.702 123.873 186.595 123.846L186.404 123.736C186.36 123.704 186.151 123.584 185.776 123.375C185.566 123.26 185.31 123.097 185.009 122.887C184.417 122.468 184.017 122.196 183.81 122.071C183.731 122.509 183.673 122.801 183.636 122.948C183.597 123.105 183.528 123.337 183.43 123.645L183.412 123.719C183.282 124.238 183.009 124.747 182.592 125.246C182.002 125.94 181.329 126.385 180.572 126.581C179.826 126.778 179.017 126.768 178.146 126.55C177.49 126.385 176.822 126.082 176.142 125.641C175.462 125.2 174.8 124.624 174.157 123.911C173.514 123.198 173.011 122.443 172.649 121.645C172.297 120.849 172.098 120.17 172.052 119.607C171.933 118.339 171.92 117.519 172.014 117.147C172.082 116.873 172.199 116.575 172.363 116.252C172.527 115.929 172.738 115.586 172.995 115.224C172.3 114.634 170.765 113.557 168.39 111.994C167.915 111.688 167.569 111.45 167.351 111.281C167.124 111.11 166.942 111.007 166.805 110.972L166.669 110.954L166.496 111.082C166.352 111.327 166.224 111.628 166.114 111.985C166.001 112.352 165.886 112.667 165.768 112.928C165.717 112.968 165.666 113.023 165.617 113.094L165.364 113.108C165.315 113.096 165.267 113.058 165.221 112.994C165.336 112.617 165.42 112.326 165.471 112.121C165.506 111.984 165.529 111.87 165.541 111.779L165.615 111.423L166.395 108.747C166.515 108.268 166.58 107.884 166.59 107.595C166.696 107.257 166.779 106.966 166.841 106.721L166.977 106.178L167.083 106.189C167.171 106.211 167.281 106.27 167.414 106.365ZM173.469 120.867C174.239 122.028 175.095 122.929 176.037 123.571C176.986 124.225 177.852 124.65 178.635 124.846C179.134 124.972 179.655 125.029 180.199 125.02C180.49 125.02 180.77 124.94 181.04 124.778C181.429 124.553 181.723 124.315 181.921 124.063C182.245 123.645 182.498 123.068 182.682 122.334C182.739 122.109 182.792 121.836 182.841 121.516C180.986 120.364 179.554 119.438 178.544 118.737L175.34 116.639C175.081 116.47 174.824 116.333 174.569 116.227C174.44 116.164 174.297 116.112 174.14 116.073C173.807 115.989 173.544 116.022 173.351 116.171C173.052 116.409 172.837 116.787 172.707 117.305C172.59 117.775 172.57 118.249 172.648 118.726C172.711 119.096 172.985 119.809 173.469 120.867Z" fill="#C73A2A"/>
<path d="M176.007 142.306L169.924 136.102L169.272 135.368C168.361 134.382 167.809 133.847 167.615 133.761C167.522 133.721 167.458 133.742 167.421 133.825C167.397 133.88 167.489 134.197 167.698 134.774C167.907 135.351 168.152 135.884 168.433 136.371C168.615 136.683 168.734 136.901 168.79 137.025L168.519 137.452C168.081 136.895 167.651 136.132 167.229 135.163C166.816 134.198 166.586 133.518 166.54 133.122C166.48 132.732 166.505 132.412 166.615 132.163C166.794 131.757 167.087 131.643 167.493 131.822C167.826 131.968 168.243 132.274 168.744 132.737C169.242 133.21 171.671 135.731 176.031 140.299L176.235 139.875C176.605 139.035 176.554 138.075 176.081 136.996C175.613 135.93 174.234 133.767 171.943 130.508C170.817 128.909 170.133 127.709 169.891 126.907C169.648 126.106 169.727 125.252 170.125 124.347C170.337 123.867 170.641 123.527 171.038 123.327C171.448 123.122 171.866 123.113 172.291 123.3C172.993 123.609 173.203 124.083 172.922 124.72C172.739 125.135 172.364 125.373 171.798 125.432C171.326 125.477 171.031 125.634 170.913 125.902C170.738 126.299 170.739 126.796 170.917 127.393C171.105 127.993 171.975 129.397 173.528 131.603C175.63 134.591 176.818 136.598 177.094 137.624C177.379 138.654 177.288 139.7 176.82 140.762C176.624 141.205 176.354 141.72 176.007 142.306Z" fill="#C73A2A"/>
<path d="M168.294 151.397C168.381 151.576 168.458 151.706 168.526 151.787C168.711 152.055 168.809 152.265 168.817 152.416C168.687 152.668 168.585 152.849 168.513 152.958C168.418 153.101 168.296 153.221 168.148 153.316L167.972 153.254C167.921 153.22 167.86 153.149 167.786 153.04C167.753 152.981 167.629 152.821 167.416 152.558L167.23 152.29L165.523 149.961C164.739 148.934 164.133 148.085 163.706 147.414C163.273 146.752 162.805 146.116 162.302 145.504C161.808 144.898 161.479 144.426 161.315 144.088L161.223 143.954C161.172 143.921 161.074 143.922 160.929 143.959C160.888 144.477 160.904 144.947 160.975 145.37C161.16 146.461 161.287 147.119 161.355 147.346C161.403 147.511 161.445 147.666 161.482 147.811C161.331 147.857 161.181 147.891 161.033 147.913C160.861 147.461 160.677 146.77 160.481 145.841C160.285 144.913 160.217 144.147 160.277 143.545C160.329 143.083 160.455 142.701 160.655 142.398C160.784 142.205 160.923 142.085 161.074 142.04C161.22 142.003 161.36 142.029 161.494 142.119C161.612 142.197 161.803 142.384 162.067 142.679C162.483 143.258 162.751 143.647 162.872 143.848C162.993 144.049 163.191 144.344 163.467 144.732C163.638 144.967 163.919 145.401 164.31 146.035C164.256 145.77 164.152 145.416 163.996 144.974C163.59 143.724 163.296 142.404 163.116 141.014C163.073 140.695 163.114 140.02 163.24 138.99C163.32 138.631 163.471 138.247 163.694 137.838C163.919 137.516 164.098 137.319 164.229 137.249C164.472 137.119 164.754 137.07 165.073 137.099C165.311 137.124 165.615 137.259 165.985 137.504C166.523 137.86 167.043 138.374 167.543 139.044C168.394 140.189 168.953 141.146 169.218 141.915C169.684 143.24 169.962 144.429 170.052 145.481C170.136 146.541 170.112 147.445 169.98 148.193C169.81 149.182 169.538 149.958 169.164 150.521C169.042 150.706 168.908 150.872 168.763 151.018C168.618 151.164 168.461 151.29 168.294 151.397ZM163.994 139.907C163.911 140.142 163.865 140.366 163.857 140.579C163.846 140.705 163.861 141.186 163.899 142.023C164.254 143.735 164.463 144.708 164.525 144.943C164.658 145.455 164.888 146.085 165.215 146.835C165.291 147.03 165.545 147.507 165.975 148.264L166.629 149.169C167.064 149.626 167.319 149.88 167.395 149.93C167.631 150.086 167.918 150.137 168.256 150.083C168.466 150.041 168.666 149.876 168.855 149.59C169.072 149.262 169.204 148.944 169.251 148.636C169.35 147.939 169.35 147.243 169.253 146.55C169.113 145.61 168.808 144.59 168.337 143.492C167.875 142.399 167.441 141.555 167.036 140.96C166.477 140.142 166.008 139.607 165.629 139.356C165.318 139.15 165.045 139.06 164.81 139.086C164.575 139.112 164.393 139.222 164.265 139.415C164.221 139.482 164.13 139.646 163.994 139.907Z" fill="#C73A2A"/>
<path d="M159.446 163.44C159.305 163.667 159.156 163.866 158.998 164.037C158.8 164.252 158.611 164.338 158.43 164.295C157.772 163.015 156.874 161.101 155.737 158.554C154.332 155.554 153.533 153.965 153.34 153.787C153.154 153.616 152.99 153.608 152.846 153.764C152.682 153.942 152.658 154.428 152.776 155.223C152.901 156.025 153.055 156.669 153.239 157.154L152.749 157.506C152.33 156.473 152.133 155.385 152.158 154.241C152.177 153.105 152.399 152.307 152.823 151.847C153.145 151.499 153.465 151.472 153.784 151.766C154.392 152.327 155.435 154.314 156.914 157.725L159.309 155.198L160.354 153.999L157.176 147.131L157.513 146.722C157.595 146.633 157.771 146.479 158.041 146.261C158.128 146.286 158.19 146.316 158.227 146.35C158.383 146.494 159.183 148.119 160.628 151.224C162.19 154.561 163.075 156.325 163.282 156.517C163.401 156.627 163.501 156.637 163.584 156.548C163.94 156.162 163.886 155 163.423 153.062C163.491 152.974 163.538 152.915 163.566 152.885C163.614 152.833 163.689 152.759 163.792 152.662C164.307 154.098 164.51 155.432 164.402 156.665C164.295 157.912 164.111 158.676 163.851 158.958C163.646 159.18 163.395 159.155 163.098 158.881C162.802 158.607 162.363 157.907 161.783 156.781C161.195 155.661 160.83 154.912 160.686 154.532L159.217 156.101C158.067 157.347 157.415 158.098 157.261 158.354L159.446 163.44Z" fill="#C73A2A"/>
<path d="M157.899 174.097L157.635 174.639C154.053 174.835 151.043 173.415 148.605 170.377C146.912 168.268 145.877 165.825 145.499 163.049C145.113 160.279 145.632 158.322 147.057 157.179C147.789 156.591 148.554 156.424 149.352 156.676C150.149 156.929 150.911 157.508 151.638 158.413C152.901 159.987 153.579 161.992 153.671 164.428C153.769 166.872 153.236 168.562 152.071 169.497C151.52 169.939 150.936 170.13 150.318 170.069C151.534 171.552 152.725 172.576 153.89 173.141C155.056 173.707 156.392 174.025 157.899 174.097ZM149.405 157.856C148.862 157.179 148.268 157.1 147.623 157.618C146.686 158.369 146.565 160.161 147.26 162.994C147.961 165.834 148.709 167.75 149.505 168.742C150.118 169.505 150.704 169.663 151.262 169.214C152.183 168.475 152.396 166.758 151.902 164.062C151.406 161.381 150.574 159.312 149.405 157.856Z" fill="#C73A2A"/>
<path d="M140.399 173.883C140.592 173.906 140.749 173.939 140.871 173.983C140.951 174.016 141.133 174.128 141.418 174.319C141.709 174.519 141.903 174.631 142 174.653C142.161 174.684 142.298 174.664 142.409 174.595C142.709 174.409 142.916 174.025 143.03 173.443C143.244 172.372 143.193 170.854 142.875 168.889C142.55 166.93 142.067 165.436 141.429 164.407C141.189 164.021 140.966 163.786 140.758 163.701C140.603 163.642 140.444 163.664 140.282 163.765C139.947 163.973 139.69 164.381 139.511 164.992C139.269 165.807 139.136 166.817 139.111 168.02C138.969 168.155 138.855 168.25 138.77 168.303L138.569 168.41C138.507 168.234 138.494 167.678 138.53 166.741C138.588 165.399 138.769 164.371 139.075 163.659C139.387 162.955 139.769 162.462 140.224 162.18C140.618 161.935 141.01 161.887 141.4 162.037C141.912 162.23 142.415 162.725 142.91 163.522C143.336 164.208 143.692 165.145 143.979 166.333C144.257 167.527 144.359 168.782 144.285 170.098C144.212 171.415 144.096 172.396 143.938 173.04C143.777 173.699 143.488 174.353 143.072 175.003C142.792 175.45 142.476 175.783 142.124 176.001C141.764 176.225 141.349 176.263 140.877 176.117C140.403 175.984 140.035 175.707 139.774 175.287C139.615 175.03 139.558 174.786 139.605 174.555C139.648 174.338 139.76 174.173 139.94 174.062C140.051 173.992 140.204 173.933 140.399 173.883Z" fill="#C73A2A"/>
<path d="M132.497 173.388C132.192 173.448 131.947 173.431 131.761 173.338C131.579 173.253 131.111 172.888 130.356 172.243C129.104 171.157 128.403 170.582 128.252 170.517C128.101 170.452 127.832 170.357 127.444 170.233C127.047 170.113 126.432 170.173 125.601 170.415C125.526 170.348 125.477 170.288 125.452 170.232C125.427 170.177 125.405 170.115 125.385 170.047L125.6 169.934C125.683 169.896 125.802 169.854 125.958 169.806C126.342 169.677 126.684 169.551 126.983 169.428C127.686 169.123 128.202 168.93 128.531 168.848C129.808 169.745 131.095 170.81 132.39 172.042C132.681 172.321 132.932 172.473 133.143 172.5C133.35 172.54 133.683 172.457 134.143 172.25C134.019 169.783 133.966 168.263 133.985 167.691C134.004 167.24 134.004 166.946 133.987 166.81C133.944 166.542 133.943 166.354 133.983 166.247C134.011 166.136 134.208 165.997 134.576 165.831C134.696 165.778 134.886 165.72 135.146 165.658C135.212 165.706 135.257 165.758 135.282 165.813C135.348 165.96 135.409 166.945 135.465 168.768C135.611 173.891 135.777 176.66 135.963 177.074C136.017 177.194 136.099 177.229 136.21 177.179C136.67 176.972 137.062 175.889 137.387 173.928C137.484 173.873 137.551 173.838 137.588 173.821C137.652 173.792 137.753 173.758 137.89 173.718C137.808 175.061 137.497 176.29 136.959 177.406C136.421 178.523 135.912 179.188 135.434 179.403C135.149 179.532 134.929 179.425 134.776 179.085C134.607 178.708 134.424 176.677 134.228 172.992L133.869 173.153C133.178 173.464 132.767 173.743 132.635 173.99C132.494 174.242 132.407 174.651 132.374 175.219C132.249 177.721 131.986 179.377 131.587 180.187C131.179 181.001 130.666 181.547 130.05 181.824C129.59 182.031 129.166 182.072 128.778 181.948C128.394 181.833 128.113 181.577 127.935 181.182C127.786 180.85 127.781 180.543 127.919 180.259C128.057 179.976 128.25 179.778 128.499 179.667C128.941 179.468 129.377 179.576 129.807 179.992C130.05 180.236 130.258 180.32 130.433 180.241C130.838 180.059 131.139 179.608 131.336 178.889C131.533 178.17 131.678 176.932 131.773 175.174C131.827 174.309 132.068 173.714 132.497 173.388Z" fill="#C73A2A"/>
<path d="M116.916 174.143C116.831 174.02 116.739 173.971 116.642 173.997C116.135 174.132 115.558 175.143 114.913 177.028C114.818 177.064 114.746 177.088 114.697 177.101C114.629 177.119 114.524 177.137 114.382 177.154C114.831 175.196 115.662 173.632 116.874 172.462L117.023 172.313C117.285 172.044 117.519 171.883 117.724 171.828C118.006 171.753 118.2 171.91 118.304 172.3C118.405 172.68 118.297 174.192 117.979 176.836L117.921 177.557C117.855 178.17 117.81 178.745 117.787 179.284L117.917 178.952C119.758 173.677 121.463 170.83 123.032 170.411C123.734 170.224 124.171 170.452 124.343 171.095C124.444 171.476 124.47 172.08 124.419 172.908C124.362 173.748 124.064 175.823 123.527 179.131L123.14 181.85C123.118 181.961 123.112 182.036 123.122 182.075C123.138 182.133 123.199 182.206 123.305 182.292C123.823 182.039 124.406 180.959 125.057 179.052L125.66 178.906C125.374 180.027 124.941 181.103 124.36 182.136C123.782 183.178 123.127 183.797 122.396 183.992C121.928 184.117 121.651 184.018 121.565 183.696C121.43 183.189 121.466 182.329 121.675 181.114L122.569 175.893C122.902 173.934 123.007 172.721 122.882 172.253C122.809 171.98 122.65 171.876 122.407 171.941C121.851 172.09 121.024 173.276 119.926 175.502C118.828 177.727 118.028 180.149 117.526 182.769L117.431 183.233C117.326 183.7 117.235 184.184 117.16 184.684C117.104 185.023 117.011 185.262 116.881 185.401C116.662 185.48 116.504 185.533 116.407 185.559C116.28 185.593 116.085 185.624 115.821 185.653C115.761 185.585 115.724 185.527 115.711 185.478C115.675 185.342 115.735 184.589 115.892 183.221L115.926 182.82C115.972 182.328 116.056 181.684 116.178 180.889C116.263 180.386 116.326 179.956 116.367 179.601L116.916 174.143Z" fill="#C73A2A"/>
<path d="M104.364 175.814C104.301 175.678 104.219 175.614 104.119 175.623C103.596 175.67 102.855 176.566 101.896 178.313C101.796 178.332 101.721 178.344 101.671 178.348C101.601 178.354 101.494 178.354 101.352 178.346C102.129 176.494 103.216 175.096 104.611 174.151L104.782 174.029C105.087 173.81 105.345 173.69 105.556 173.672C105.847 173.646 106.011 173.834 106.047 174.236C106.082 174.628 105.716 176.099 104.95 178.649L104.769 179.349C104.599 179.942 104.456 180.502 104.341 181.028L104.527 180.723C107.243 175.842 109.411 173.329 111.029 173.185C111.753 173.121 112.144 173.42 112.203 174.084C112.238 174.476 112.159 175.075 111.968 175.882C111.767 176.701 111.119 178.693 110.022 181.86L109.176 184.474C109.135 184.579 109.116 184.651 109.119 184.691C109.125 184.752 109.172 184.834 109.263 184.937C109.816 184.776 110.576 183.812 111.543 182.044L112.163 182.004C111.689 183.06 111.078 184.046 110.329 184.964C109.581 185.891 108.83 186.389 108.076 186.456C107.593 186.499 107.337 186.354 107.308 186.023C107.261 185.5 107.445 184.658 107.858 183.497L109.633 178.506C110.297 176.634 110.608 175.456 110.565 174.974C110.54 174.692 110.402 174.563 110.15 174.585C109.578 174.636 108.56 175.664 107.097 177.668C105.634 179.672 104.431 181.922 103.487 184.417L103.314 184.858C103.13 185.3 102.959 185.761 102.799 186.241C102.686 186.565 102.553 186.785 102.401 186.9C102.172 186.94 102.007 186.965 101.906 186.974C101.776 186.986 101.578 186.983 101.313 186.966C101.266 186.889 101.24 186.826 101.235 186.775C101.223 186.635 101.411 185.904 101.8 184.582L101.902 184.193C102.032 183.716 102.225 183.096 102.482 182.334C102.651 181.852 102.787 181.44 102.888 181.097L104.364 175.814ZM101.295 191.375L101.159 191.387L100.948 191.238C101.679 189.998 102.798 189.311 104.306 189.177C105.14 189.103 105.797 189.201 106.277 189.473C106.747 189.745 107 190.082 107.036 190.484C107.09 191.097 106.806 191.432 106.183 191.487C105.7 191.53 105.307 191.266 105.003 190.695C104.722 190.153 104.33 189.904 103.827 189.949C102.933 190.028 102.089 190.504 101.295 191.375Z" fill="#C73A2A"/>
<path d="M87.0588 183.57C87.0644 183.653 87.0845 183.713 87.1189 183.749C87.1433 183.785 87.1804 183.807 87.2301 183.815C87.7466 183.908 88.6969 183.237 90.081 181.804C90.1921 181.813 90.2724 181.822 90.3221 181.831C90.3817 181.842 90.4801 181.865 90.6174 181.9C90.3342 182.279 89.9023 182.745 89.3217 183.298C88.7312 183.848 88.1354 184.285 87.5343 184.608C86.9214 184.939 86.358 185.166 85.8439 185.29C85.6725 185.331 85.5222 185.34 85.3931 185.317C85.3434 185.308 85.2698 185.29 85.1723 185.262C85.0254 185.051 84.9689 184.851 85.0027 184.663C85.024 184.543 85.0602 184.427 85.1113 184.313C85.1525 184.197 85.2351 184.022 85.3589 183.788C85.8098 182.987 86.1358 182.425 86.3371 182.103L87.5808 180.049C87.8701 179.578 88.1598 179.076 88.4498 178.544C88.3525 178.629 88.2661 178.711 88.1905 178.79C87.0251 179.976 85.8007 181.089 84.5175 182.131C83.2226 183.181 82.1902 183.852 81.4202 184.145C80.8684 184.364 80.3691 184.433 79.922 184.353C79.5843 184.293 79.338 184.152 79.183 183.929C79.0262 183.717 78.9736 183.466 79.0251 183.178C79.0571 182.999 79.1081 182.829 79.178 182.667C79.3151 182.302 79.5632 181.803 79.9224 181.171C80.2817 180.538 81.1696 179.184 82.5861 177.111L84.6918 173.935L84.7861 173.752C84.7967 173.693 84.7779 173.597 84.7297 173.465C84.1521 173.485 83.1596 174.22 81.7521 175.67L81.1438 175.546C81.5513 175.045 82.1858 174.42 83.0474 173.672C83.7128 173.104 84.3913 172.692 85.0829 172.437C85.4678 172.29 85.859 172.253 86.2563 172.324C86.4948 172.366 86.6647 172.448 86.7661 172.569C86.8675 172.689 86.9076 172.809 86.8863 172.929C86.7921 173.455 86.3931 174.224 85.6893 175.236L82.6838 179.573L81.495 181.406C81.228 181.809 81.0596 182.092 80.9897 182.253C80.9197 182.415 80.8697 182.58 80.8395 182.749C80.8164 182.878 80.8334 182.984 80.8905 183.066C80.9458 183.158 81.0281 183.214 81.1373 183.233C81.2963 183.261 81.4916 183.23 81.7233 183.138C82.5366 182.832 83.4803 182.227 84.5545 181.322C86.0996 180.02 87.1403 179.074 87.6765 178.483C89.0145 177.02 90.2246 175.499 91.3068 173.919C91.4757 173.662 91.6562 173.484 91.8482 173.386C92.0621 173.393 92.2237 173.407 92.333 173.426C92.4621 173.449 92.6563 173.51 92.9157 173.607C92.9412 173.694 92.9495 173.762 92.9406 173.812C92.9264 173.891 92.8447 174.061 92.6957 174.321C92.3616 174.928 91.5818 176.193 90.3562 178.116L89.8695 178.86L87.0588 183.57Z" fill="#C73A2A"/>
<path d="M63.5779 178.482L69.3824 172.017L70.0736 171.32C70.9996 170.348 71.499 169.763 71.572 169.564C71.6067 169.469 71.5815 169.406 71.4962 169.375C71.4393 169.354 71.1295 169.466 70.5668 169.711C70.004 169.956 69.4881 170.234 69.0191 170.546C68.7194 170.748 68.5095 170.88 68.3895 170.944L67.9466 170.701C68.4747 170.228 69.2088 169.75 70.1489 169.267C71.0856 168.794 71.7498 168.522 72.1414 168.45C72.527 168.366 72.8477 168.371 73.1035 168.465C73.5204 168.617 73.6524 168.902 73.4995 169.319C73.3745 169.66 73.0966 170.096 72.6658 170.626C72.2255 171.152 69.8645 173.736 65.5827 178.379L66.018 178.555C66.8802 178.871 67.8349 178.759 68.8821 178.218C69.9164 177.684 71.987 176.17 75.094 173.676C76.6181 172.451 77.7724 171.692 78.5569 171.399C79.3414 171.107 80.1979 171.13 81.1264 171.471C81.619 171.652 81.9778 171.934 82.2026 172.317C82.4335 172.713 82.469 173.129 82.3092 173.565C82.0452 174.285 81.5863 174.525 80.9326 174.286C80.5062 174.129 80.2455 173.77 80.1505 173.209C80.075 172.741 79.8999 172.456 79.6251 172.355C79.2177 172.206 78.7219 172.239 78.1377 172.455C77.5499 172.68 76.2046 173.638 74.1016 175.328C71.2529 177.615 69.3255 178.929 68.3193 179.269C67.3097 179.619 66.2601 179.595 65.1705 179.195C64.7158 179.028 64.1849 178.791 63.5779 178.482Z" fill="#C73A2A"/>
<path d="M61.108 170.423C62.0701 169.688 63.1549 168.899 64.3623 168.054L67.2417 166.005C67.4552 166.101 67.6221 166.186 67.7424 166.26C67.8541 166.329 68.0299 166.467 68.2698 166.674C68.2619 166.764 68.2447 166.83 68.2182 166.873C68.1177 167.036 66.6771 168.134 63.8966 170.167L61.0083 172.317C60.4879 172.719 60.1195 172.99 59.9033 173.13C59.5423 173.37 59.3194 173.558 59.2348 173.696C59.1184 173.885 59.1246 174.019 59.2535 174.098C59.6917 174.368 60.8173 174.09 62.6303 173.263C62.7301 173.312 62.7972 173.348 62.8316 173.369C62.8917 173.406 62.9793 173.466 63.0943 173.548C61.3586 174.577 59.6492 175.053 57.9661 174.977L57.5456 174.967C57.2223 174.933 56.9318 174.837 56.674 174.679C56.4764 174.557 56.4808 174.329 56.6872 173.994C56.9517 173.564 58.2428 172.516 60.5605 170.85L58.0145 169.211L57.3113 169.631C56.1872 170.302 54.966 170.765 53.6477 171.02C52.3241 171.283 51.2026 171.132 50.2832 170.565C49.7161 170.216 49.359 169.67 49.2118 168.928C49.0593 168.194 49.3614 167.213 50.1181 165.984C51.3722 163.948 53.0561 162.531 55.1699 161.735C57.2836 160.939 59.0193 160.959 60.377 161.796C61.2362 162.325 61.6409 163.024 61.591 163.894C61.5273 164.768 61.2388 165.621 60.7255 166.454C60.2652 167.202 59.5222 167.995 58.4966 168.833L58.9705 169.16L59.4811 169.457L59.9758 169.779L60.6361 170.15L61.108 170.423ZM50.3599 169.777C51.348 170.386 53.0584 169.975 55.491 168.546C57.915 167.112 59.5609 165.69 60.4287 164.281C60.9102 163.499 60.7987 162.891 60.0941 162.457C59.0287 161.801 57.2915 162.283 54.8826 163.905C52.4598 165.53 50.8992 166.909 50.2007 168.044C49.9997 168.37 49.9093 168.7 49.9297 169.032C49.9501 169.365 50.0935 169.613 50.3599 169.777Z" fill="#C73A2A"/>
<path d="M48.9837 149.216C48.6562 149.417 48.3357 149.575 48.0221 149.69C47.7085 149.791 47.2519 149.8 46.6522 149.717L46.3417 149.686L46.0954 149.654C46.5251 150.081 46.5977 150.438 46.3134 150.724C46.0503 150.989 44.6858 151.526 42.2198 152.334C41.3717 152.615 40.9014 152.781 40.8088 152.831C41.0586 152.837 41.6899 152.796 42.7028 152.707L44.0084 152.638C45.5492 152.504 46.8265 152.513 47.8403 152.666C48.8469 152.813 49.6296 153.163 50.1882 153.718C50.6107 154.137 50.6371 154.533 50.2674 154.905C49.6489 155.528 48.1706 156.194 45.8328 156.902L44.4108 157.346L44.1757 157.453C44.2257 157.46 44.7179 157.409 45.6522 157.298C48.0706 157.14 49.6794 157.059 50.4786 157.056C51.2777 157.053 52.0915 157.15 52.92 157.347C53.7413 157.551 54.3418 157.841 54.7213 158.218C54.8645 158.36 54.9366 158.56 54.9376 158.817C54.9385 159.073 54.8323 159.309 54.619 159.524C53.8299 160.319 51.6172 161.13 47.9811 161.956L46.6015 162.272C45.8458 162.46 45.3325 162.576 45.0615 162.62C44.0489 162.795 43.4963 162.929 43.4039 163.022C43.347 163.079 43.3437 163.133 43.3938 163.183C43.4726 163.261 43.8868 163.359 44.6365 163.478L44.8507 163.52C45.4005 163.611 46.1464 163.676 47.0884 163.715L47.3361 164.132C46.6732 164.327 45.6635 164.32 44.307 164.11C42.9433 163.909 41.907 163.456 41.1981 162.752C41.0333 162.588 40.9506 162.414 40.95 162.228C41.0708 162.106 41.4699 161.962 42.1472 161.796L46.8631 160.612C50.5987 159.685 52.6514 159.035 53.0211 158.663C53.2059 158.477 53.2124 158.298 53.0406 158.128C52.5607 157.651 50.4232 157.541 46.6281 157.798C42.8329 158.054 39.8806 158.564 37.7712 159.328C37.6852 159.215 37.5025 159.019 37.2232 158.742C36.9296 158.45 36.7255 158.233 36.6108 158.091C36.739 158.019 36.9457 157.961 37.231 157.918C37.7444 157.844 39.4197 157.389 42.2566 156.551C45.0792 155.713 46.7683 155.164 47.324 154.905C47.8725 154.654 48.2107 154.463 48.3387 154.334C48.6089 154.062 48.6509 153.834 48.4647 153.649C48.3716 153.557 48.1214 153.443 47.7142 153.309C47.2999 153.182 46.0546 153.155 43.9784 153.226C41.8951 153.305 40.3329 153.432 39.2917 153.607C38.2434 153.775 36.3221 154.25 33.5278 155.03C33.4132 154.902 33.3272 154.81 33.2699 154.753L32.8617 154.348C32.8259 154.312 32.7793 154.245 32.7218 154.145C32.7643 154.045 32.7997 153.981 32.8282 153.952C32.8779 153.902 33.0062 153.851 33.2129 153.801C33.3127 153.772 33.5265 153.685 33.8542 153.541C34.2033 153.39 34.777 153.199 35.5754 152.968C37.8635 152.325 39.9126 151.664 41.7226 150.987C42.1501 150.828 42.6882 150.644 43.3368 150.435C43.9425 150.226 44.2668 150.1 44.3094 150.057C44.4018 149.964 44.3943 149.864 44.2869 149.757C44.0936 149.565 43.6044 149.457 42.8194 149.431C42.0272 149.398 41.3886 149.418 40.9037 149.491C40.7183 149.521 40.5649 149.539 40.4437 149.547C40.3147 149.404 40.1928 149.255 40.0781 149.098C41.682 148.657 43.441 148.676 45.3551 149.154C45.755 149.253 46.0511 149.255 46.2435 149.162C46.4429 149.061 46.9839 148.709 47.8665 148.107C48.3719 147.77 48.8352 147.611 49.2563 147.631C49.6702 147.644 50.431 147.887 51.5387 148.361L51.3156 148.822C50.8297 148.624 50.4797 148.533 50.2657 148.548C50.0517 148.563 49.6244 148.785 48.9837 149.216Z" fill="#C73A2A"/>
<path d="M32.7722 133.318C32.8731 133.208 32.8999 133.107 32.8525 133.018C32.6058 132.555 31.4913 132.223 29.5088 132.021C29.4525 131.936 29.4124 131.872 29.3887 131.828C29.3555 131.765 29.3146 131.667 29.266 131.533C31.2748 131.526 32.9861 131.981 34.4001 132.897L34.579 133.008C34.9 133.203 35.1103 133.394 35.2099 133.581C35.3474 133.839 35.2381 134.063 34.8818 134.253C34.5344 134.438 33.0372 134.675 30.3902 134.964L29.6751 135.071C29.0631 135.145 28.492 135.232 27.9618 135.331L28.3153 135.383C33.8698 135.981 37.0289 136.997 37.7925 138.431C38.134 139.072 38.0108 139.549 37.423 139.862C37.0756 140.047 36.4929 140.209 35.6748 140.347C34.8431 140.482 32.7553 140.662 29.4114 140.887L26.6751 141.127C26.5623 141.13 26.4881 141.141 26.4525 141.16C26.399 141.188 26.3423 141.264 26.2822 141.388C26.6458 141.834 27.8302 142.158 29.8352 142.359L30.1135 142.914C28.9572 142.89 27.8105 142.712 26.6734 142.38C25.5274 142.052 24.7765 141.555 24.4207 140.887C24.1931 140.459 24.2262 140.167 24.5201 140.011C24.9833 139.764 25.8302 139.605 27.0607 139.532L32.3481 139.221C34.3314 139.102 35.5368 138.929 35.9643 138.701C36.2137 138.568 36.2791 138.391 36.1606 138.168C35.8902 137.66 34.547 137.124 32.1308 136.558C29.7146 135.993 27.1739 135.762 24.5085 135.867L24.0349 135.879C23.5564 135.882 23.0649 135.904 22.5603 135.944C22.2178 135.966 21.9641 135.93 21.7991 135.835C21.6722 135.639 21.585 135.497 21.5376 135.408C21.4759 135.292 21.4013 135.109 21.3136 134.859C21.3658 134.785 21.4143 134.736 21.4588 134.713C21.5835 134.646 22.33 134.535 23.6984 134.378L24.0964 134.32C24.5867 134.253 25.2329 134.189 26.0349 134.128C26.5442 134.097 26.9767 134.061 27.3323 134.02L32.7722 133.318Z" fill="#C73A2A"/>
<path d="M41.2894 132.019C41.084 131.694 40.8512 131.256 40.5909 130.705C40.4622 130.418 40.3674 130.216 40.3064 130.098C40.2166 129.958 40.1395 129.824 40.0753 129.697C39.9728 129.582 39.8784 129.508 39.7921 129.473C39.6323 129.409 39.3354 129.366 38.9013 129.342L34.6933 129.179C34.1379 129.142 33.5332 129.133 32.8791 129.151C32.4674 129.162 32.0622 129.161 31.6632 129.146C31.2611 129.122 31.0042 129.118 30.8925 129.134C30.6533 129.151 30.4794 129.156 30.3708 129.15L26.2062 129.069C26.0466 129.069 24.8738 129.065 22.6879 129.057C22.0273 129.056 21.3732 129.074 20.7255 129.111C21.0692 129.751 21.4029 130.299 21.7267 130.754C21.7909 130.85 21.8839 130.984 22.0057 131.155C22.2684 131.461 22.4143 131.657 22.4433 131.743C22.4691 131.819 22.4759 131.95 22.4637 132.135L22.3156 132.217C22.1818 132.262 22.0412 132.224 21.894 132.104C21.4396 131.735 20.731 130.739 19.7682 129.114C18.4182 129.058 17.5119 129.055 17.0494 129.104C16.4273 129.154 15.9756 129.126 15.6944 129.018C15.6366 128.91 15.5868 128.793 15.5449 128.669C15.4997 128.535 15.4416 128.331 15.3705 128.057C15.4878 127.836 15.5991 127.708 15.7043 127.673L15.9244 127.663C15.9787 127.666 16.2196 127.654 16.6471 127.627C16.8864 127.61 17.1895 127.609 17.5565 127.624C18.281 127.656 18.7645 127.669 19.007 127.662C18.8365 127.251 18.7271 126.973 18.6787 126.83C18.6271 126.677 18.5594 126.444 18.4753 126.132L18.4512 126.06C18.2803 125.553 18.2353 124.977 18.3161 124.333C18.4375 123.429 18.7637 122.691 19.2947 122.118C19.8161 121.548 20.5023 121.12 21.3534 120.833C21.9941 120.617 22.7197 120.511 23.5302 120.514C24.3408 120.518 25.2092 120.646 26.1355 120.898C27.0618 121.15 27.8927 121.514 28.6283 121.991C29.3543 122.47 29.8887 122.934 30.2317 123.383C31.0169 124.385 31.4708 125.068 31.5932 125.432C31.6835 125.699 31.7468 126.014 31.7831 126.374C31.8194 126.735 31.8272 127.137 31.8063 127.58C32.7098 127.702 34.5833 127.778 37.4267 127.81C37.9915 127.811 38.4112 127.824 38.6857 127.849C38.9698 127.87 39.1788 127.858 39.3126 127.813L39.4369 127.756L39.5128 127.554C39.5023 127.27 39.4469 126.948 39.3468 126.588C39.2434 126.218 39.1705 125.891 39.1281 125.607C39.1502 125.547 39.1627 125.473 39.1656 125.387L39.3709 125.238C39.4188 125.222 39.4794 125.228 39.5529 125.256C39.6595 125.636 39.7466 125.926 39.8143 126.127C39.8594 126.261 39.9013 126.369 39.9399 126.452L40.0703 126.791L40.8595 129.464C41.0175 129.933 41.1702 130.291 41.3179 130.54C41.4116 130.881 41.4987 131.171 41.5793 131.41L41.7582 131.941L41.6626 131.989C41.5766 132.018 41.4521 132.028 41.2894 132.019ZM28.3591 123.088C27.084 122.527 25.8767 122.231 24.7374 122.2C23.5853 122.162 22.6267 122.272 21.8617 122.53C21.374 122.695 20.9041 122.928 20.452 123.229C20.2068 123.386 20.0145 123.606 19.875 123.887C19.669 124.286 19.5505 124.646 19.5197 124.965C19.4736 125.492 19.5714 126.114 19.8132 126.831C19.8873 127.051 19.9903 127.309 20.1221 127.605C22.3047 127.572 24.0104 127.578 25.2391 127.622L29.0686 127.656C29.3782 127.659 29.6685 127.635 29.9395 127.587C30.0831 127.57 30.2314 127.536 30.3844 127.485C30.7095 127.375 30.9131 127.205 30.9953 126.975C31.1186 126.614 31.0948 126.18 30.9239 125.673C30.7692 125.214 30.5301 124.805 30.2066 124.446C29.9535 124.169 29.3377 123.716 28.3591 123.088Z" fill="#C73A2A"/>
<path d="M14.6495 106.587L23.1238 108.503L24.0701 108.766C25.3699 109.101 26.1245 109.251 26.3338 109.218C26.4335 109.202 26.4761 109.15 26.4619 109.06C26.4524 109 26.2034 108.784 25.7151 108.412C25.2267 108.04 24.7321 107.726 24.2313 107.468C23.909 107.305 23.6909 107.187 23.5769 107.113L23.5732 106.607C24.2434 106.838 25.0185 107.246 25.8985 107.831C26.7685 108.418 27.3301 108.865 27.5834 109.173C27.845 109.468 27.9972 109.75 28.0401 110.019C28.1099 110.458 27.9255 110.712 27.487 110.782C27.1283 110.839 26.6125 110.809 25.9398 110.691C25.2655 110.563 21.8579 109.762 15.7171 108.287L15.7759 108.753C15.9202 109.66 16.4836 110.439 17.466 111.09C18.4368 111.732 20.7682 112.802 24.4602 114.299C26.2731 115.032 27.4986 115.669 28.1367 116.212C28.7748 116.754 29.1716 117.513 29.327 118.49C29.4095 119.008 29.3382 119.459 29.1131 119.842C28.8796 120.237 28.5337 120.471 28.0753 120.544C27.3179 120.664 26.8845 120.381 26.775 119.693C26.7036 119.245 26.8899 118.842 27.3338 118.485C27.7059 118.191 27.8689 117.899 27.8229 117.61C27.7547 117.182 27.484 116.765 27.0108 116.36C26.5277 115.957 25.0356 115.249 22.5345 114.237C19.1485 112.865 17.0616 111.823 16.2738 111.111C15.476 110.4 14.9859 109.471 14.8035 108.325C14.7274 107.847 14.676 107.268 14.6495 106.587Z" fill="#C73A2A"/>
<path d="M16.2165 94.3356C16.0465 94.2321 15.9113 94.1644 15.8109 94.1326C15.5101 94.0068 15.3152 93.8827 15.2262 93.7602C15.2003 93.4772 15.1884 93.2702 15.1904 93.139C15.1931 92.9675 15.2309 92.8015 15.3041 92.6412L15.4864 92.5986C15.5469 92.5995 15.6373 92.6261 15.7576 92.6785C15.8177 92.7097 16.0084 92.7782 16.3297 92.8841L16.6306 93.0098L19.3243 94.0506C20.5386 94.4932 21.5065 94.8816 22.228 95.2157C22.9497 95.5397 23.6871 95.8236 24.4402 96.0673C25.1833 96.3109 25.7148 96.5311 26.0347 96.7278L26.1851 96.7906C26.2457 96.7916 26.3273 96.7373 26.4299 96.6279C26.1846 96.1699 25.9181 95.7823 25.6303 95.465C24.8861 94.6461 24.4243 94.1596 24.245 94.0055C24.1155 93.8924 23.9961 93.7846 23.8867 93.682C23.9894 93.5625 24.0971 93.4531 24.2096 93.354C24.5988 93.6426 25.1262 94.125 25.792 94.8014C26.4577 95.4778 26.9277 96.0855 27.202 96.6247C27.4075 97.0416 27.5074 97.4317 27.5018 97.795C27.4982 98.027 27.4451 98.2028 27.3423 98.3223C27.2397 98.4318 27.1077 98.4852 26.9462 98.4828C26.805 98.4806 26.5434 98.4261 26.1615 98.3193C25.4995 98.0567 25.0633 97.8734 24.853 97.7692C24.6426 97.665 24.3168 97.5238 23.8755 97.3454C23.6046 97.2403 23.1336 97.0261 22.4624 96.7029C22.6512 96.8975 22.93 97.139 23.299 97.4273C24.3155 98.2605 25.2747 99.2139 26.1766 100.287C26.3847 100.533 26.7137 101.123 27.1635 102.059C27.2894 102.404 27.3689 102.809 27.4021 103.274C27.3859 103.667 27.3415 103.929 27.2689 104.059C27.1339 104.299 26.9241 104.492 26.6392 104.639C26.4256 104.747 26.0968 104.798 25.6529 104.791C25.0071 104.781 24.2929 104.628 23.5103 104.334C22.1758 103.829 21.1895 103.324 20.5513 102.82C19.4444 101.955 18.5695 101.104 17.9264 100.266C17.2835 99.4185 16.816 98.6442 16.5241 97.9434C16.1347 97.0189 15.9452 96.2187 15.9556 95.5427C15.9591 95.3207 15.9825 95.1091 16.026 94.908C16.0695 94.7068 16.133 94.516 16.2165 94.3356ZM26.0337 101.693C25.9769 101.45 25.8945 101.237 25.7863 101.054C25.7274 100.942 25.456 100.544 24.9721 99.8602C23.75 98.61 23.0494 97.9028 22.8703 97.7386C22.4823 97.3794 21.9486 96.9725 21.2693 96.5179C21.0997 96.3942 20.6294 96.1296 19.8586 95.7241L18.8203 95.3144C18.207 95.1637 17.855 95.0876 17.7642 95.0862C17.4816 95.0818 17.2125 95.1937 16.9566 95.4219C16.803 95.5709 16.7235 95.817 16.7182 96.16C16.7121 96.5535 16.7725 96.8925 16.8993 97.1771C17.1921 97.8174 17.5666 98.4035 18.0226 98.9354C18.6474 99.6515 19.4542 100.345 20.4429 101.016C21.4216 101.688 22.2418 102.164 22.9036 102.447C23.816 102.835 24.4992 103.032 24.9533 103.039C25.3266 103.045 25.6052 102.973 25.7892 102.825C25.9732 102.676 26.0669 102.486 26.0705 102.254C26.0718 102.173 26.0595 101.986 26.0337 101.693Z" fill="#C73A2A"/>
<path d="M17.1744 79.4121C17.1709 79.145 17.1896 78.8972 17.2305 78.6687C17.282 78.3806 17.3953 78.2061 17.5702 78.1451C18.8142 78.87 20.6009 79.9994 22.9304 81.5335C25.7298 83.3054 27.2587 84.2144 27.517 84.2606C27.7653 84.3051 27.9081 84.223 27.9454 84.0144C27.9881 83.776 27.7459 83.3533 27.2188 82.7465C26.6819 82.1379 26.2054 81.6785 25.7893 81.3683L26.0124 80.8085C26.9223 81.453 27.6742 82.2641 28.2682 83.2417C28.8639 84.2094 29.1067 85.0012 28.9966 85.6171C28.913 86.0839 28.6577 86.2792 28.2306 86.2028C27.416 86.0571 25.4673 84.9448 22.3845 82.8659L21.7268 86.285L21.4916 87.8575L27.8665 91.9348L27.803 92.4616C27.7817 92.5808 27.716 92.8048 27.6059 93.1337C27.5193 93.1592 27.4512 93.1675 27.4015 93.1586C27.1929 93.1213 25.6437 92.183 22.7538 90.3436C19.6415 88.3723 17.9462 87.3617 17.6681 87.3119C17.5092 87.2835 17.419 87.3289 17.3977 87.4481C17.3053 87.9646 17.9759 88.915 19.4096 90.299C19.4 90.4101 19.3916 90.4855 19.3845 90.5252C19.3721 90.5947 19.3484 90.6981 19.3136 90.8354C18.1069 89.902 17.2172 88.8869 16.6446 87.7901C16.0638 86.6816 15.8071 85.9386 15.8746 85.5611C15.9279 85.2631 16.1533 85.1496 16.5506 85.2207C16.9479 85.2918 17.6945 85.6457 18.7902 86.2825C19.8878 86.9094 20.5993 87.3442 20.925 87.587L21.3183 85.4738C21.6168 83.805 21.762 82.8212 21.754 82.5225L17.1744 79.4121Z" fill="#C73A2A"/>
<path d="M12.7537 69.5582L12.6861 68.9594C15.605 66.874 18.9076 66.4604 22.594 67.7185C25.1535 68.5921 27.3367 70.0995 29.1435 72.241C30.9537 74.3728 31.5638 76.3031 30.9738 78.0317C30.6707 78.9198 30.1147 79.4711 29.3058 79.6855C28.4969 79.9 27.5433 79.8198 26.445 79.4449C24.535 78.793 22.8882 77.4633 21.5048 75.4558C20.1119 73.4449 19.6566 71.7328 20.139 70.3194C20.3671 69.6509 20.7583 69.1766 21.3123 68.8965C19.4913 68.2963 17.9372 68.0698 16.6501 68.217C15.363 68.3642 14.0642 68.8112 12.7537 69.5582ZM28.6282 78.7186C29.4495 78.9989 29.9938 78.7475 30.2611 77.9643C30.6489 76.8279 29.7906 75.2501 27.6861 73.231C25.572 71.2086 23.9133 69.9921 22.71 69.5814C21.7836 69.2653 21.2047 69.4462 20.9733 70.1243C20.5919 71.2417 21.3323 72.8059 23.1943 74.8168C25.0501 76.815 26.8614 78.1156 28.6282 78.7186Z" fill="#C73A2A"/>
<path d="M27.5318 60.5466C27.3571 60.6304 27.2067 60.6869 27.0808 60.7158C26.9952 60.7307 26.7809 60.7339 26.4378 60.7256C26.0855 60.7128 25.8623 60.723 25.768 60.756C25.6154 60.8169 25.5107 60.9065 25.4538 61.0247C25.3007 61.343 25.3321 61.7781 25.548 62.33C25.9425 63.3485 26.8009 64.6016 28.1232 66.0891C29.4499 67.5676 30.6588 68.5694 31.75 69.0945C32.1591 69.2914 32.474 69.3702 32.6946 69.3307C32.8566 69.2967 32.9791 69.1933 33.0623 69.0205C33.2329 68.6659 33.2302 68.183 33.0539 67.5718C32.8204 66.7539 32.3913 65.8306 31.7664 64.802C31.8132 64.6117 31.8585 64.4711 31.9022 64.3802L32.0143 64.1822C32.1605 64.2973 32.4699 64.7598 32.9425 65.5696C33.6145 66.7329 34.0127 67.6973 34.1371 68.4627C34.2523 69.2237 34.194 69.8452 33.9621 70.3271C33.7608 70.7454 33.4554 70.996 33.0459 71.0789C32.5105 71.1908 31.82 71.0432 30.9744 70.6362C30.2469 70.2861 29.4435 69.6867 28.5641 68.8379C27.6891 67.98 26.9293 66.976 26.2845 65.8258C25.6398 64.6755 25.2112 63.7861 24.9986 63.1574C24.7813 62.5153 24.6736 61.8083 24.6755 61.0365C24.672 60.5085 24.76 60.0581 24.9394 59.6853C25.1232 59.3034 25.4533 59.0479 25.9298 58.9188C26.4016 58.7763 26.8602 58.8123 27.3058 59.0267C27.5786 59.158 27.7572 59.3336 27.8418 59.5534C27.9216 59.7599 27.9156 59.9585 27.8237 60.1495C27.7668 60.2677 27.6695 60.4001 27.5318 60.5466Z" fill="#C73A2A"/>
<path d="M34.4263 56.7305C34.6515 56.5163 34.8677 56.3987 35.0746 56.3778C35.2732 56.3512 35.8641 56.4075 36.8474 56.5465C38.4864 56.7902 39.3869 56.899 39.5491 56.8727C39.7113 56.8464 39.9893 56.7816 40.3833 56.6782C40.7827 56.5664 41.2686 56.1853 41.8408 55.5349C41.9389 55.5511 42.0132 55.5758 42.0638 55.609C42.1144 55.6423 42.1665 55.6825 42.22 55.7297L42.0996 55.9404C42.0497 56.0163 41.972 56.1162 41.8665 56.2401C41.6111 56.5553 41.3905 56.845 41.2048 57.1093C40.7752 57.7447 40.4437 58.185 40.2102 58.43C38.6508 58.3593 36.9939 58.152 35.2395 57.8083C34.8444 57.7297 34.5505 57.7359 34.358 57.8267C34.1626 57.9036 33.9264 58.1529 33.6493 58.5746C35.0789 60.5886 35.9396 61.8423 36.2311 62.3358C36.4576 62.7261 36.6146 62.9741 36.7021 63.0799C36.8826 63.283 36.9844 63.4405 37.0075 63.5523C37.0446 63.6612 36.9524 63.8843 36.7307 64.2217C36.6587 64.3313 36.5295 64.4819 36.3433 64.6735C36.2621 64.6684 36.1962 64.6492 36.1456 64.616C36.0107 64.5273 35.4302 63.7293 34.4041 62.222C31.5294 57.9786 29.9023 55.7321 29.5228 55.4828C29.4131 55.4107 29.3251 55.4253 29.2586 55.5265C28.9815 55.9482 29.2325 57.0731 30.0116 58.9011C29.9591 58.9994 29.9217 59.0654 29.8995 59.0992C29.8608 59.1582 29.7941 59.2412 29.6997 59.3482C29.0481 58.1714 28.6496 56.9678 28.5043 55.7373C28.3589 54.5068 28.4303 53.6722 28.7185 53.2337C28.8903 52.9722 29.1322 52.944 29.4442 53.1491C29.79 53.3763 31.0351 54.9913 33.1794 57.9941L33.3955 57.6652C33.8111 57.0327 34.0082 56.5766 33.9868 56.2968C33.9708 56.0087 33.8241 55.6164 33.5465 55.1201C32.3089 52.9424 31.6409 51.4047 31.5425 50.507C31.4497 49.6007 31.5889 48.8651 31.9602 48.3001C32.2373 47.8784 32.5728 47.6159 32.9667 47.5125C33.3523 47.4036 33.7263 47.4682 34.089 47.7065C34.3926 47.906 34.5622 48.1624 34.5979 48.4756C34.6336 48.7888 34.5766 49.0593 34.427 49.287C34.161 49.6918 33.7351 49.8346 33.1494 49.7154C32.813 49.6392 32.5922 49.6813 32.4869 49.8415C32.2431 50.2126 32.2313 50.7543 32.4515 51.4665C32.6718 52.1787 33.2139 53.3016 34.0778 54.8352C34.497 55.5937 34.6132 56.2255 34.4263 56.7305Z" fill="#C73A2A"/>
<path d="M47.3046 47.5144C47.4426 47.5732 47.5459 47.5655 47.6143 47.4913C47.9702 47.1058 47.9166 45.9439 47.4535 44.0057C47.5145 43.9247 47.5621 43.8657 47.5964 43.8286C47.6443 43.7767 47.7236 43.7057 47.8342 43.6156C48.5027 45.5098 48.6376 47.2754 48.2389 48.9125L48.1935 49.1178C48.1154 49.4851 48.0044 49.7466 47.8607 49.9024C47.6622 50.1174 47.4146 50.088 47.118 49.8142C46.8289 49.5473 46.1113 48.212 44.9654 45.8084L44.6292 45.1684C44.3571 44.6151 44.0868 44.1046 43.8181 43.6369L43.8857 43.9877C45.1531 49.4286 45.2357 52.746 44.1338 53.9398C43.6409 54.4737 43.1498 54.5147 42.6604 54.063C42.3713 53.796 42.0265 53.2992 41.6261 52.5726C41.2251 51.8316 40.3667 49.92 39.0508 46.8376L37.9223 44.3333C37.8824 44.2278 37.8476 44.1613 37.818 44.134C37.7735 44.0929 37.6831 44.0644 37.5467 44.0484C37.245 44.5389 37.3297 45.7638 37.8008 47.7231L37.3687 48.1689C37.0106 47.0692 36.8007 45.9278 36.7391 44.7448C36.6701 43.555 36.8922 42.682 37.4056 42.1259C37.7341 41.77 38.0208 41.705 38.2654 41.9308C38.651 42.2868 39.0808 43.0337 39.5548 44.1716L41.5927 49.0604C42.3587 50.8936 42.9197 51.9745 43.2756 52.3031C43.4832 52.4947 43.6726 52.4979 43.8437 52.3125C44.2339 51.8898 44.2975 50.4448 44.0346 47.9773C43.7716 45.5098 43.1514 43.0352 42.1737 40.5534L42.0061 40.1102C41.8452 39.6596 41.6627 39.2027 41.4585 38.7396C41.3245 38.4236 41.2751 38.172 41.3105 37.9849C41.4531 37.8007 41.5586 37.6715 41.6271 37.5974C41.716 37.501 41.8643 37.3701 42.072 37.2047C42.1587 37.2298 42.2205 37.2594 42.2576 37.2937C42.3614 37.3895 42.7131 38.0574 43.3125 39.2974L43.4982 39.6542C43.7229 40.0951 43.9964 40.684 44.3187 41.421C44.516 41.8915 44.6925 42.288 44.8483 42.6102L47.3046 47.5144Z" fill="#C73A2A"/>
<path d="M56.9338 39.3504C57.0601 39.4313 57.1632 39.4409 57.243 39.3792C57.6582 39.0583 57.7988 37.9037 57.6648 35.9155C57.7385 35.8458 57.7953 35.7955 57.8352 35.7646C57.8911 35.7214 57.9811 35.6646 58.1052 35.5942C58.4489 37.5733 58.2879 39.3367 57.6222 40.8845L57.5433 41.0794C57.4051 41.4286 57.2522 41.668 57.0845 41.7976C56.853 41.9766 56.6138 41.9064 56.3669 41.587C56.1262 41.2757 55.641 39.8396 54.9113 37.2787L54.6864 36.5917C54.5102 36.0008 54.3286 35.4524 54.1416 34.9465L54.1498 35.3037C54.4936 40.8796 54.0227 44.1645 52.7374 45.1581C52.1625 45.6025 51.6714 45.5612 51.2641 45.0343C51.0234 44.7229 50.7661 44.1756 50.4923 43.3924C50.2203 42.5951 49.6922 40.5672 48.9079 37.3087L48.2122 34.6515C48.1904 34.5408 48.1671 34.4695 48.1424 34.4376C48.1054 34.3897 48.021 34.3465 47.8892 34.308C47.51 34.7415 47.3896 35.9634 47.5279 37.9738L47.0277 38.3413C46.8576 37.1974 46.8407 36.037 46.9769 34.8603C47.107 33.6756 47.4714 32.8518 48.0702 32.3889C48.4534 32.0926 48.7468 32.0763 48.9505 32.3397C49.2714 32.7549 49.5708 33.5629 49.8487 34.7639L51.0442 39.9238C51.4943 41.8589 51.8675 43.0181 52.1637 43.4014C52.3365 43.6249 52.5227 43.6595 52.7223 43.5052C53.1774 43.1534 53.4807 41.7391 53.6323 39.2623C53.7839 36.7855 53.5843 34.2421 53.0336 31.6322L52.942 31.1673C52.8585 30.6962 52.7546 30.2153 52.6303 29.7246C52.5508 29.3907 52.544 29.1345 52.61 28.9559C52.7813 28.798 52.9069 28.6882 52.9867 28.6265C53.0905 28.5462 53.2585 28.4418 53.4908 28.3133C53.5721 28.3525 53.6282 28.392 53.659 28.432C53.7455 28.5437 53.981 29.2609 54.3656 30.5834L54.4893 30.9661C54.6374 31.4383 54.8091 32.0645 55.0041 32.8448C55.1204 33.3417 55.2284 33.762 55.3283 34.1057L56.9338 39.3504ZM51.1294 24.5904L51.2372 24.5071L51.4947 24.5185C51.548 25.9569 50.9758 27.1389 49.7783 28.0647C49.1156 28.577 48.509 28.8482 47.9584 28.8784C47.4158 28.9025 47.0211 28.7548 46.7742 28.4355C46.3977 27.9485 46.457 27.5137 46.952 27.131C47.3352 26.8348 47.8087 26.845 48.3724 27.1618C48.9016 27.4669 49.3658 27.4652 49.765 27.1566C50.4756 26.6073 50.9304 25.7519 51.1294 24.5904Z" fill="#C73A2A"/>
<path d="M67.0348 23.6175C66.9853 23.5506 66.936 23.5109 66.8872 23.4984C66.8476 23.482 66.8045 23.4835 66.7579 23.5028C66.2731 23.7036 65.8346 24.7809 65.4423 26.7346C65.3436 26.7864 65.271 26.822 65.2244 26.8413C65.1684 26.8644 65.0733 26.8984 64.9389 26.9431C64.9725 26.4705 65.0848 25.845 65.2759 25.0669C65.4762 24.2848 65.7424 23.5957 66.0743 22.9995C66.4117 22.3901 66.7636 21.8948 67.1301 21.5137C67.2522 21.3866 67.3739 21.298 67.4951 21.2478C67.5417 21.2285 67.6135 21.2042 67.7106 21.1749C67.948 21.2732 68.1033 21.4109 68.1767 21.5881C68.223 21.7 68.2554 21.8176 68.2737 21.9411C68.3014 22.0607 68.3262 22.2525 68.3482 22.5164C68.4006 23.4341 68.4291 24.0831 68.4337 24.4634L68.4938 26.8633C68.5043 27.416 68.531 27.9948 68.574 28.5996C68.61 28.4754 68.6386 28.3598 68.6597 28.2528C69.0016 26.6257 69.4319 25.0276 69.9507 23.4583C70.4749 21.8759 70.9822 20.7537 71.4727 20.0919C71.8191 19.6098 72.2021 19.2818 72.6217 19.1081C72.9386 18.9768 73.2224 18.963 73.4729 19.0668C73.7195 19.1612 73.8989 19.3437 74.0108 19.614C74.0803 19.7818 74.1293 19.9527 74.1576 20.1267C74.2391 20.508 74.2992 21.0619 74.3381 21.7886C74.3769 22.5152 74.3591 24.1337 74.2847 26.6439L74.2242 30.4536L74.2436 30.6585C74.2668 30.7145 74.3342 30.7849 74.4458 30.8697C74.9215 30.5416 75.361 29.3875 75.7642 27.4073L76.3433 27.1838C76.2706 27.8256 76.0731 28.6938 75.751 29.7884C75.4969 30.6255 75.1476 31.3381 74.7032 31.9263C74.4579 32.2573 74.1489 32.5 73.776 32.6544C73.5522 32.7471 73.3651 32.77 73.2146 32.7231C73.0641 32.6762 72.9657 32.5968 72.9193 32.4849C72.7147 31.9908 72.6358 31.1279 72.6826 29.8961L72.8743 24.623L72.8871 22.4387C72.8943 21.9551 72.8837 21.6264 72.8554 21.4524C72.827 21.2785 72.78 21.1123 72.7144 20.9538C72.6642 20.8326 72.5929 20.7529 72.5006 20.7146C72.4045 20.6671 72.3051 20.6646 72.2026 20.707C72.0534 20.7688 71.906 20.9008 71.7605 21.1031C71.2404 21.7991 70.7722 22.8177 70.3556 24.159C69.7569 26.089 69.3911 27.4474 69.2583 28.2342C68.9203 30.1873 68.7218 32.1209 68.6626 34.035C68.6589 34.3424 68.6028 34.5895 68.4946 34.7764C68.3104 34.8854 68.167 34.9612 68.0644 35.0037C67.9432 35.0539 67.7471 35.1078 67.4761 35.1654C67.4079 35.1063 67.3641 35.0534 67.3448 35.0068C67.3139 34.9322 67.2911 34.7451 67.2762 34.4454C67.2303 33.7545 67.2047 32.2687 67.1994 29.9881L67.2083 29.0997L67.0348 23.6175Z" fill="#C73A2A"/>
<path d="M89.1793 15.2831L87.785 23.8588L87.5801 24.8193C87.3255 26.1372 87.2212 26.8996 87.2673 27.1064C87.2892 27.2049 87.3445 27.2443 87.4331 27.2246C87.4922 27.2114 87.6925 26.9498 88.0338 26.4396C88.3751 25.9294 88.659 25.4165 88.8854 24.9009C89.0286 24.5693 89.1336 24.3443 89.2003 24.2261L89.7044 24.1914C89.5152 24.8745 89.1554 25.6731 88.6249 26.5872C88.0921 27.4914 87.6802 28.0793 87.3892 28.3509C87.1102 28.6301 86.8377 28.7993 86.5717 28.8585C86.1383 28.955 85.8734 28.7865 85.7769 28.3531C85.698 27.9985 85.6967 27.4819 85.7731 26.8032C85.8594 26.1224 86.4509 22.6722 87.5477 16.4527L87.0864 16.5398C86.19 16.7393 85.447 17.3492 84.8574 18.3696C84.2755 19.3778 83.3503 21.7703 82.0819 25.5468C81.4609 27.4012 80.8992 28.6634 80.3971 29.3334C79.8949 30.0035 79.1612 30.4459 78.1959 30.6608C77.6836 30.7748 77.2294 30.7311 76.8331 30.5299C76.4248 30.321 76.1702 29.9899 76.0693 29.5368C75.9027 28.7882 76.1592 28.3383 76.8389 28.187C77.2821 28.0884 77.6954 28.2497 78.0786 28.6709C78.3951 29.0243 78.6961 29.1693 78.9818 29.1057C79.4053 29.0114 79.8047 28.7158 80.18 28.2187C80.553 27.7118 81.1682 26.1792 82.0254 23.621C83.1878 20.1575 84.1004 18.0108 84.7634 17.1809C85.4242 16.3412 86.321 15.7953 87.4538 15.5431C87.9266 15.4379 88.5018 15.3512 89.1793 15.2831Z" fill="#C73A2A"/>
<path d="M95.855 20.6292C95.443 21.7675 94.9574 23.0183 94.3983 24.3816L93.0839 27.662C92.8525 27.6967 92.6661 27.7155 92.5249 27.7182C92.3937 27.7207 92.1713 27.6998 91.8575 27.6554C91.8156 27.5754 91.7942 27.5102 91.7932 27.4598C91.7895 27.2681 92.4076 25.5656 93.6476 22.3523L94.9148 18.982C95.135 18.362 95.2983 17.935 95.4048 17.7008C95.5789 17.3038 95.6643 17.0246 95.6612 16.8632C95.6569 16.6412 95.5791 16.5317 95.4277 16.5346C94.9132 16.5445 94.117 17.3875 93.0391 19.0636C92.9283 19.0758 92.8527 19.0823 92.8124 19.0831C92.7418 19.0845 92.6357 19.0815 92.4943 19.0741C93.3981 17.2702 94.5787 15.9454 96.0359 15.0997L96.395 14.8808C96.6849 14.734 96.9812 14.6576 97.2838 14.6517C97.5159 14.6473 97.6357 14.8418 97.6433 15.2352C97.6531 15.7397 97.1335 17.3192 96.0846 19.9737L99.1125 19.9758L99.4768 19.2421C100.06 18.0702 100.837 17.0206 101.808 16.0935C102.779 15.1563 103.804 14.6773 104.884 14.6564C105.55 14.6436 106.145 14.9096 106.671 15.4546C107.196 15.9895 107.472 16.9783 107.5 18.4211C107.546 20.8123 106.895 22.9141 105.548 24.7266C104.2 26.539 102.729 27.4607 101.135 27.4914C100.126 27.5109 99.4073 27.1412 98.9788 26.3824C98.5602 25.6134 98.3415 24.7395 98.3226 23.7608C98.3057 22.8831 98.5021 21.8145 98.9117 20.555L98.3361 20.5358L97.7461 20.5624L97.1556 20.5586L96.3995 20.6035L95.855 20.6292ZM105.246 15.361C104.086 15.3834 102.869 16.6534 101.595 19.1709C100.332 21.6883 99.7157 23.7743 99.7477 25.429C99.7654 26.3471 100.188 26.7982 101.015 26.7822C102.266 26.758 103.467 25.4127 104.616 22.7461C105.776 20.0693 106.343 18.065 106.317 16.7332C106.31 16.3498 106.207 16.0237 106.01 15.755C105.813 15.4863 105.559 15.355 105.246 15.361Z" fill="#C73A2A"/>
<path d="M117.696 31.873C117.863 31.527 118.048 31.2209 118.249 30.9545C118.459 30.7001 118.838 30.4462 119.388 30.1926L119.666 30.051L119.891 29.9443C119.299 29.8173 119.045 29.5564 119.13 29.1618C119.208 28.7967 120.067 27.6083 121.706 25.5966C122.268 24.9018 122.574 24.5083 122.625 24.416C122.411 24.5456 121.902 24.9214 121.098 25.5435L120.036 26.3065C118.812 27.2513 117.732 27.9329 116.796 28.3513C115.869 28.7718 115.021 28.8994 114.252 28.7343C113.67 28.6094 113.434 28.2904 113.544 27.7773C113.728 26.9189 114.613 25.5607 116.199 23.7026L117.156 22.5611L117.295 22.3434C117.249 22.3645 116.863 22.6738 116.136 23.2713C114.186 24.7106 112.876 25.6472 112.205 26.0812C111.534 26.5152 110.796 26.873 109.993 27.1547C109.191 27.4265 108.529 27.5063 108.006 27.3941C107.809 27.3517 107.641 27.2227 107.501 27.007C107.362 26.7913 107.324 26.5354 107.387 26.2394C107.622 25.1443 109.047 23.2671 111.661 20.6079L112.652 19.5976C113.186 19.0311 113.556 18.6562 113.76 18.473C114.518 17.779 114.911 17.3679 114.938 17.2396C114.955 17.1607 114.929 17.1138 114.86 17.099C114.751 17.0757 114.35 17.2165 113.655 17.5215L113.452 17.6018C112.94 17.8223 112.277 18.1702 111.463 18.6457L111.029 18.4289C111.482 17.9068 112.336 17.3675 113.59 16.8111C114.847 16.2448 115.964 16.0664 116.941 16.276C117.168 16.3247 117.331 16.427 117.432 16.5828C117.396 16.7505 117.138 17.0873 116.658 17.5932L113.328 21.136C110.684 23.9332 109.307 25.5884 109.197 26.1015C109.142 26.358 109.233 26.5117 109.47 26.5625C110.131 26.7043 111.989 25.6428 115.045 23.3777C118.101 21.1127 120.311 19.0891 121.673 17.3071C121.807 17.3565 122.067 17.4225 122.452 17.505C122.856 17.5918 123.145 17.6642 123.318 17.722C123.249 17.8517 123.106 18.012 122.89 18.2029C122.497 18.5418 121.333 19.8298 119.398 22.067C117.475 24.2964 116.349 25.6701 116.021 26.188C115.695 26.6961 115.514 27.0389 115.475 27.2165C115.395 27.5914 115.483 27.8064 115.74 27.8615C115.868 27.889 116.14 27.8493 116.555 27.7423C116.972 27.6254 118.035 26.9762 119.744 25.7948C121.455 24.6035 122.701 23.653 123.483 22.9435C124.275 22.2362 125.636 20.7995 127.566 18.6335C127.732 18.6793 127.854 18.7107 127.933 18.7277L128.495 18.8484C128.544 18.859 128.62 18.8907 128.722 18.9436C128.741 19.0507 128.746 19.124 128.737 19.1635C128.722 19.2325 128.642 19.3442 128.495 19.4985C128.427 19.5768 128.293 19.7649 128.095 20.063C127.883 20.3787 127.503 20.8493 126.956 21.475C125.378 23.2521 124.009 24.9143 122.852 26.4617C122.577 26.826 122.224 27.2713 121.791 27.7977C121.394 28.3008 121.189 28.582 121.176 28.6412C121.149 28.7694 121.209 28.8494 121.357 28.8812C121.624 28.9384 122.094 28.7658 122.769 28.3636C123.453 27.9634 123.98 27.6017 124.348 27.2783C124.489 27.1536 124.608 27.0553 124.706 26.9834C124.891 27.0335 125.074 27.0935 125.256 27.1633C124.144 28.4006 122.653 29.3347 120.784 29.9657C120.394 30.0988 120.143 30.2566 120.032 30.4391C119.919 30.6315 119.653 31.2196 119.235 32.2033C118.992 32.7601 118.688 33.1437 118.323 33.3544C117.968 33.5671 117.196 33.773 116.007 33.9721L115.946 33.4636C116.462 33.3679 116.806 33.2559 116.978 33.1277C117.15 32.9995 117.39 32.5813 117.696 31.873Z" fill="#C73A2A"/>
<path d="M140.043 36.563C140.017 36.7108 140.048 36.8095 140.136 36.8592C140.592 37.1178 141.711 36.8004 143.493 35.9071C143.585 35.9481 143.654 35.981 143.698 36.0058C143.759 36.0406 143.846 36.1016 143.959 36.1888C142.268 37.2719 140.579 37.8062 138.895 37.7917L138.684 37.7944C138.309 37.8021 138.029 37.7538 137.845 37.6494C137.59 37.5052 137.562 37.2575 137.761 36.9062C137.955 36.5638 139.091 35.5604 141.17 33.8962L141.716 33.4228C142.193 33.0316 142.628 32.6519 143.022 32.2836L142.696 32.4294C137.688 34.9051 134.477 35.7428 133.063 34.9423C132.431 34.5844 132.279 34.1156 132.607 33.536C132.801 33.1935 133.206 32.7445 133.822 32.1888C134.452 31.6293 136.117 30.3572 138.818 28.3726L140.998 26.7023C141.092 26.6394 141.149 26.5903 141.169 26.5552C141.198 26.5025 141.206 26.408 141.19 26.2716C140.644 26.0898 139.47 26.4518 137.67 27.3577L137.138 27.0387C138.127 26.439 139.19 25.9742 140.328 25.6442C141.47 25.3055 142.371 25.3225 143.03 25.6954C143.451 25.934 143.58 26.1983 143.416 26.488C143.157 26.9447 142.528 27.5336 141.528 28.2548L137.234 31.3547C135.624 32.5189 134.699 33.3118 134.461 33.7333C134.322 33.9792 134.362 34.1642 134.581 34.2885C135.082 34.5719 136.503 34.304 138.846 33.4849C141.188 32.6657 143.456 31.497 145.649 29.9788L146.042 29.7144C146.444 29.4549 146.847 29.173 147.252 28.8685C147.529 28.6658 147.762 28.5604 147.952 28.5521C148.164 28.6489 148.314 28.7222 148.402 28.7719C148.516 28.8365 148.677 28.951 148.886 29.1154C148.881 29.2055 148.867 29.2726 148.842 29.3165C148.772 29.4394 148.202 29.9342 147.132 30.8009L146.827 31.0631C146.449 31.3825 145.938 31.7832 145.294 32.2651C144.881 32.5647 144.535 32.827 144.257 33.0522L140.043 36.563Z" fill="#C73A2A"/>
<path d="M133.441 42.1458C133.789 42.3087 134.222 42.5521 134.738 42.876C135.001 43.0481 135.19 43.1674 135.305 43.2338C135.456 43.3034 135.593 43.3745 135.716 43.4472C135.864 43.4884 135.984 43.5004 136.075 43.4832C136.244 43.4504 136.517 43.3271 136.896 43.1134L140.528 40.982C141.015 40.7133 141.53 40.395 142.071 40.027C142.412 39.7959 142.754 39.579 143.098 39.3762C143.45 39.1798 143.668 39.0446 143.753 38.9706C143.946 38.8275 144.089 38.7292 144.184 38.6758L147.736 36.4994C147.87 36.413 148.86 35.7841 150.705 34.6129C151.262 34.2576 151.803 33.8897 152.329 33.5091C151.694 33.1551 151.118 32.8737 150.6 32.6648C150.494 32.619 150.344 32.5565 150.148 32.4774C149.763 32.3617 149.534 32.2755 149.463 32.2186C149.4 32.1681 149.324 32.0616 149.235 31.8991L149.315 31.7503C149.404 31.6402 149.542 31.5962 149.731 31.6186C150.313 31.6841 151.447 32.1414 153.133 32.9903C154.301 32.3097 155.066 31.824 155.429 31.533C155.926 31.1555 156.322 30.9363 156.616 30.8753C156.723 30.9353 156.828 31.0064 156.93 31.0885C157.041 31.177 157.2 31.3175 157.407 31.5101C157.427 31.7591 157.403 31.9269 157.333 32.0135L157.153 32.1408C157.106 32.1676 156.91 32.3075 156.564 32.5607C156.372 32.7038 156.117 32.8681 155.8 33.0536C155.172 33.4166 154.758 33.6666 154.558 33.8034C154.923 34.0577 155.164 34.2322 155.282 34.3269C155.408 34.428 155.591 34.5875 155.83 34.8053L155.889 34.8527C156.306 35.1875 156.655 35.6482 156.934 36.2349C157.319 37.0613 157.442 37.8589 157.304 38.6278C157.172 39.3888 156.825 40.1195 156.263 40.8199C155.84 41.3472 155.286 41.8278 154.601 42.2617C153.916 42.6956 153.116 43.056 152.2 43.343C151.284 43.63 150.388 43.7712 149.511 43.7667C148.642 43.7543 147.941 43.6515 147.41 43.4584C146.209 43.0373 145.458 42.7068 145.159 42.4668C144.939 42.2899 144.716 42.0595 144.491 41.7754C144.266 41.4914 144.043 41.157 143.821 40.7721C142.995 41.1569 141.376 42.1023 138.964 43.6083C138.487 43.9117 138.127 44.1271 137.882 44.2543C137.632 44.3895 137.462 44.5121 137.374 44.6223L137.3 44.738L137.345 44.9485C137.507 45.182 137.727 45.4235 138.005 45.6729C138.292 45.9287 138.529 46.1646 138.718 46.3808C138.732 46.4439 138.761 46.5125 138.805 46.5866L138.713 46.8229C138.681 46.8623 138.627 46.8897 138.55 46.9054C138.255 46.6433 138.025 46.446 137.86 46.3133C137.75 46.2249 137.656 46.1562 137.579 46.1072L137.286 45.8916L135.181 44.0657C134.795 43.7562 134.473 43.5367 134.215 43.407C133.952 43.1702 133.722 42.9729 133.525 42.815L133.089 42.4644L133.143 42.3723C133.2 42.3015 133.299 42.226 133.441 42.1458ZM149.147 42.6976C150.523 42.4822 151.699 42.0806 152.676 41.4928C153.666 40.9033 154.414 40.2938 154.919 39.6642C155.242 39.2628 155.512 38.8133 155.73 38.3156C155.852 38.0511 155.896 37.7627 155.861 37.4506C155.82 37.003 155.726 36.6364 155.58 36.351C155.334 35.8825 154.917 35.4114 154.326 34.9377C154.145 34.7924 153.92 34.6305 153.649 34.452C151.828 35.6564 150.389 36.5713 149.33 37.1969L146.086 39.2319C145.824 39.397 145.592 39.5732 145.39 39.7604C145.278 39.8516 145.172 39.9602 145.071 40.0861C144.856 40.3537 144.776 40.6065 144.831 40.8446C144.921 41.2151 145.175 41.5677 145.593 41.9025C145.97 42.2056 146.392 42.4214 146.859 42.5498C147.221 42.6465 147.984 42.6958 149.147 42.6976Z" fill="#C73A2A"/>
<path d="M169.713 49.2776L161.543 52.2328L160.604 52.5212C159.329 52.9402 158.612 53.2201 158.454 53.361C158.379 53.4281 158.371 53.4955 158.432 53.5634C158.472 53.6086 158.798 53.6562 159.41 53.7061C160.022 53.756 160.608 53.7544 161.168 53.7012C161.528 53.665 161.775 53.6472 161.911 53.648L162.187 54.0715C161.498 54.2386 160.625 54.3129 159.568 54.2943C158.519 54.269 157.805 54.1952 157.426 54.0731C157.047 53.9652 156.766 53.8095 156.585 53.606C156.29 53.2743 156.308 52.9609 156.64 52.6657C156.911 52.4242 157.362 52.1717 157.992 51.9081C158.629 51.6522 161.931 50.4899 167.898 48.4214L167.597 48.0608C166.987 47.3748 166.092 47.0225 164.914 47.004C163.75 46.9863 161.21 47.3423 157.293 48.0721C155.371 48.4319 153.995 48.5555 153.165 48.4429C152.336 48.3303 151.592 47.9046 150.935 47.1659C150.586 46.7739 150.403 46.3558 150.386 45.9117C150.37 45.4533 150.535 45.0698 150.882 44.7612C151.454 44.2513 151.972 44.2565 152.435 44.7766C152.737 45.1158 152.797 45.5553 152.616 46.0951C152.461 46.5435 152.481 46.8771 152.676 47.0957C152.964 47.4198 153.417 47.6249 154.034 47.7108C154.658 47.79 156.296 47.5816 158.948 47.0856C162.54 46.4155 164.859 46.1681 165.907 46.3434C166.962 46.5121 167.875 47.0298 168.647 47.8967C168.969 48.2586 169.324 48.7188 169.713 49.2776Z" fill="#C73A2A"/>
<path d="M174.803 60.0115C175.002 60.0061 175.152 59.9894 175.254 59.9615C175.575 59.9035 175.806 59.9017 175.947 59.9562C176.122 60.1796 176.245 60.3469 176.315 60.4581C176.406 60.6035 176.464 60.7634 176.49 60.9377L176.36 61.0726C176.309 61.1047 176.218 61.1315 176.089 61.153C176.022 61.1595 175.824 61.2056 175.497 61.2914L175.176 61.3494L172.349 61.9403C171.09 62.2289 170.066 62.4292 169.279 62.541C168.497 62.6614 167.724 62.824 166.959 63.0288C166.203 63.2283 165.637 63.3325 165.262 63.3413L165.101 63.3703C165.05 63.4024 165.011 63.4923 164.984 63.6399C165.439 63.891 165.874 64.0714 166.288 64.1813C167.358 64.464 168.01 64.6213 168.244 64.6532C168.414 64.6777 168.573 64.7033 168.72 64.7299C168.699 64.8861 168.668 65.0364 168.628 65.1808C168.144 65.1502 167.439 65.0319 166.513 64.8262C165.586 64.6204 164.861 64.3658 164.338 64.0624C163.939 63.8241 163.643 63.5511 163.45 63.2431C163.327 63.0464 163.276 62.8699 163.297 62.7138C163.324 62.5661 163.406 62.4495 163.543 62.3638C163.662 62.2888 163.912 62.1924 164.29 62.0745C164.989 61.9349 165.454 61.8517 165.687 61.8248C165.921 61.7979 166.271 61.7393 166.738 61.6491C167.023 61.5901 167.535 61.5138 168.274 61.4202C168.009 61.3594 167.644 61.3083 167.178 61.2669C165.871 61.1203 164.548 60.8415 163.208 60.4306C162.899 60.3378 162.302 60.0211 161.416 59.4805C161.123 59.2593 160.836 58.9626 160.556 58.5906C160.355 58.2517 160.25 58.0079 160.241 57.8592C160.223 57.5843 160.294 57.3077 160.453 57.0295C160.574 56.823 160.823 56.6019 161.199 56.3663C161.746 56.0236 162.429 55.7632 163.246 55.5851C164.64 55.2835 165.743 55.1709 166.552 55.2473C167.952 55.3715 169.149 55.6102 170.144 55.9636C171.144 56.3255 171.957 56.7212 172.583 57.1507C173.413 57.7149 174.007 58.2835 174.366 58.8566C174.483 59.0448 174.579 59.2351 174.652 59.4276C174.725 59.6201 174.775 59.8147 174.803 60.0115ZM162.563 59.1732C162.743 59.3463 162.928 59.4804 163.119 59.5755C163.229 59.6375 163.673 59.8238 164.451 60.1345C166.156 60.5194 167.129 60.7321 167.368 60.7726C167.889 60.8632 168.558 60.9146 169.376 60.9268C169.585 60.9384 170.124 60.9049 170.991 60.8262L172.085 60.6056C172.682 60.3987 173.019 60.2712 173.096 60.223C173.335 60.073 173.5 59.8328 173.591 59.5022C173.639 59.2936 173.572 59.0439 173.39 58.753C173.181 58.4195 172.946 58.1677 172.685 57.9978C172.091 57.6196 171.458 57.3312 170.786 57.1328C169.873 56.8714 168.818 56.7277 167.624 56.7018C166.437 56.6706 165.49 56.7162 164.781 56.8387C163.804 57.0094 163.123 57.2153 162.738 57.4563C162.422 57.6544 162.227 57.8658 162.153 58.0904C162.08 58.3151 162.104 58.5258 162.228 58.7226C162.27 58.791 162.382 58.9412 162.563 59.1732Z" fill="#C73A2A"/>
<path d="M182.13 73.098C182.278 73.3205 182.397 73.5388 182.487 73.7529C182.6 74.0229 182.599 74.2309 182.485 74.377C181.047 74.443 178.933 74.4635 176.144 74.4385C172.831 74.4687 171.054 74.5345 170.812 74.6358C170.579 74.7332 170.504 74.8796 170.586 75.0751C170.679 75.2985 171.112 75.5221 171.884 75.746C172.665 75.966 173.314 76.0934 173.832 76.1283L173.949 76.7196C172.835 76.6717 171.763 76.3982 170.734 75.8992C169.708 75.4095 169.075 74.8761 168.833 74.299C168.65 73.8615 168.759 73.559 169.159 73.3914C169.922 73.0719 172.163 72.9491 175.88 73.0231L174.578 69.7941L173.922 68.3455L166.355 68.3787L166.123 67.9017C166.076 67.79 166.009 67.5662 165.924 67.2302C165.982 67.1618 166.035 67.1178 166.082 67.0983C166.277 67.0165 168.088 66.9643 171.513 66.9417C175.197 66.9093 177.169 66.8386 177.43 66.7295C177.579 66.6672 177.63 66.5801 177.583 66.4684C177.381 65.9844 176.302 65.5499 174.347 65.1649C174.295 65.0664 174.261 64.9986 174.245 64.9613C174.218 64.8962 174.182 64.7965 174.136 64.6623C175.656 64.7918 176.954 65.1619 178.031 65.7726C179.12 66.3887 179.739 66.8736 179.887 67.2274C180.003 67.5066 179.876 67.7242 179.503 67.88C179.131 68.0359 178.312 68.1436 177.046 68.203C175.784 68.2718 174.95 68.2926 174.545 68.2653L175.361 70.2539C176.015 71.8177 176.427 72.7229 176.596 72.9695L182.13 73.098Z" fill="#C73A2A"/>
<path d="M191.282 79.3044L191.662 79.7718C190.332 83.1035 187.777 85.2359 183.995 86.1688C181.369 86.8165 178.718 86.7274 176.04 85.9016C173.365 85.0855 171.809 83.7908 171.372 82.0175C171.147 81.1063 171.317 80.342 171.882 79.7246C172.447 79.1072 173.292 78.6595 174.419 78.3815C176.379 77.8982 178.483 78.1275 180.731 79.0694C182.99 80.009 184.298 81.2038 184.656 82.6538C184.825 83.3396 184.752 83.95 184.437 84.4851C186.294 84.0063 187.724 83.3573 188.727 82.538C189.731 81.7188 190.582 80.6409 191.282 79.3044ZM172.974 80.1722C172.132 80.3801 171.81 80.8857 172.008 81.6891C172.295 82.855 173.87 83.719 176.732 84.2811C179.603 84.8407 181.656 84.9683 182.891 84.6638C183.841 84.4293 184.231 83.9643 184.059 83.2687C183.776 82.1224 182.308 81.2061 179.655 80.5199C177.014 79.841 174.787 79.7251 172.974 80.1722Z" fill="#C73A2A"/>
<path d="M183.716 94.8463C183.818 94.6812 183.914 94.5524 184.004 94.4598C184.068 94.4011 184.246 94.2823 184.54 94.1037C184.843 93.9237 185.025 93.7944 185.086 93.7156C185.182 93.5818 185.221 93.4498 185.205 93.3196C185.162 92.9691 184.9 92.6202 184.419 92.273C183.536 91.63 182.136 91.0409 180.219 90.5057C178.304 89.9805 176.745 89.7924 175.543 89.9413C175.093 89.9972 174.785 90.1014 174.621 90.2539C174.503 90.3702 174.456 90.5235 174.48 90.7137C174.528 91.1043 174.792 91.5089 175.271 91.9274C175.91 92.4888 176.77 93.0329 177.852 93.5598C177.916 93.7451 177.954 93.8878 177.967 93.9879L177.979 94.2151C177.794 94.1974 177.284 93.976 176.448 93.5508C175.253 92.9362 174.397 92.3408 173.878 91.7645C173.369 91.187 173.082 90.6328 173.016 90.102C172.959 89.6414 173.08 89.2654 173.379 88.9741C173.769 88.5902 174.43 88.3406 175.361 88.2251C176.162 88.1258 177.162 88.1951 178.361 88.4329C179.561 88.6807 180.743 89.1138 181.908 89.732C183.073 90.3503 183.915 90.8662 184.434 91.2798C184.964 91.7022 185.437 92.2384 185.853 92.8884C186.142 93.3306 186.312 93.7569 186.362 94.1675C186.415 94.5881 186.275 94.9816 185.944 95.348C185.625 95.7232 185.22 95.9412 184.729 96.002C184.429 96.0392 184.183 95.9883 183.993 95.8491C183.814 95.7188 183.712 95.5485 183.686 95.3382C183.67 95.208 183.68 95.044 183.716 94.8463Z" fill="#C73A2A"/>
</svg>
