<svg width="202" height="202" viewBox="0 0 202 202" fill="none" xmlns="http://www.w3.org/2000/svg">
<path d="M180.115 107.616C180.021 107.913 179.889 108.12 179.717 108.239C179.556 108.358 179.012 108.594 178.084 108.947C176.531 109.526 175.69 109.865 175.561 109.967C175.431 110.068 175.219 110.259 174.924 110.54C174.629 110.831 174.387 111.399 174.2 112.245C174.107 112.278 174.03 112.293 173.969 112.288C173.909 112.283 173.844 112.273 173.774 112.258L173.778 112.015C173.785 111.925 173.805 111.8 173.837 111.64C173.909 111.241 173.962 110.881 173.997 110.559C174.066 109.796 174.143 109.25 174.23 108.923C175.629 108.231 177.18 107.612 178.882 107.066C179.266 106.944 179.52 106.796 179.645 106.624C179.779 106.462 179.865 106.13 179.904 105.627C177.679 104.554 176.32 103.872 175.827 103.581C175.44 103.348 175.182 103.207 175.055 103.157C174.799 103.066 174.633 102.977 174.559 102.891C174.474 102.813 174.447 102.573 174.478 102.171C174.488 102.04 174.529 101.846 174.599 101.588C174.673 101.553 174.74 101.538 174.8 101.543C174.961 101.555 175.855 101.973 177.481 102.798C182.048 105.124 184.558 106.305 185.011 106.34C185.142 106.35 185.212 106.295 185.221 106.174C185.26 105.671 184.497 104.807 182.932 103.583C182.93 103.472 182.931 103.396 182.934 103.356C182.939 103.285 182.958 103.18 182.989 103.041C184.128 103.757 185.058 104.618 185.78 105.625C186.501 106.632 186.842 107.398 186.802 107.921C186.778 108.233 186.579 108.374 186.207 108.345C185.795 108.314 183.924 107.501 180.596 105.908L180.566 106.3C180.507 107.055 180.555 107.549 180.709 107.784C180.862 108.028 181.18 108.301 181.663 108.601C183.799 109.91 185.126 110.934 185.646 111.672C186.165 112.421 186.399 113.132 186.347 113.807C186.308 114.31 186.141 114.702 185.846 114.982C185.561 115.264 185.202 115.388 184.77 115.355C184.407 115.327 184.135 115.184 183.952 114.927C183.77 114.67 183.689 114.406 183.71 114.134C183.747 113.651 184.051 113.32 184.622 113.142C184.953 113.046 185.126 112.902 185.141 112.711C185.175 112.269 184.924 111.789 184.387 111.271C183.85 110.754 182.833 110.033 181.336 109.108C180.602 108.646 180.195 108.149 180.115 107.616Z" fill="#C73A2A"/>
<path d="M167.882 105.614C167.885 105.999 167.852 106.493 167.782 107.099C167.74 107.411 167.714 107.632 167.704 107.765C167.706 107.931 167.701 108.085 167.688 108.228C167.715 108.379 167.756 108.492 167.811 108.567C167.913 108.705 168.142 108.899 168.498 109.148L171.988 111.506C172.44 111.83 172.949 112.157 173.515 112.486C173.87 112.694 174.214 112.909 174.545 113.132C174.874 113.365 175.09 113.504 175.193 113.549C175.405 113.661 175.556 113.748 175.645 113.81L179.14 116.076C179.276 116.16 180.27 116.782 182.123 117.942C182.684 118.291 183.249 118.621 183.819 118.931C183.865 118.205 183.87 117.564 183.835 117.007C183.831 116.892 183.823 116.729 183.81 116.519C183.748 116.121 183.727 115.877 183.748 115.789C183.766 115.71 183.829 115.595 183.937 115.445L184.106 115.453C184.244 115.485 184.343 115.592 184.405 115.772C184.596 116.325 184.673 117.545 184.634 119.433C185.752 120.193 186.52 120.673 186.939 120.875C187.494 121.161 187.862 121.424 188.044 121.663C188.036 121.786 188.017 121.911 187.987 122.039C187.955 122.176 187.897 122.38 187.813 122.651C187.597 122.776 187.435 122.826 187.327 122.801L187.134 122.694C187.09 122.662 186.879 122.546 186.501 122.343C186.289 122.231 186.031 122.072 185.727 121.866C185.129 121.456 184.725 121.19 184.515 121.068C184.443 121.508 184.389 121.801 184.355 121.948C184.318 122.105 184.253 122.339 184.159 122.649L184.142 122.722C184.02 123.243 183.755 123.756 183.346 124.261C182.766 124.965 182.1 125.42 181.346 125.627C180.603 125.836 179.794 125.838 178.919 125.633C178.261 125.478 177.589 125.186 176.902 124.755C176.215 124.325 175.545 123.758 174.891 123.055C174.237 122.352 173.723 121.605 173.349 120.812C172.985 120.022 172.776 119.346 172.721 118.784C172.583 117.518 172.558 116.698 172.645 116.325C172.71 116.05 172.822 115.749 172.981 115.424C173.14 115.099 173.346 114.753 173.597 114.387C172.894 113.807 171.343 112.754 168.944 111.227C168.464 110.928 168.115 110.696 167.894 110.53C167.664 110.362 167.48 110.262 167.343 110.23L167.207 110.214L167.036 110.345C166.895 110.591 166.772 110.894 166.668 111.253C166.56 111.622 166.45 111.938 166.336 112.202C166.285 112.241 166.236 112.297 166.188 112.369L165.935 112.387C165.886 112.376 165.838 112.339 165.79 112.276C165.9 111.897 165.979 111.605 166.027 111.398C166.059 111.261 166.081 111.147 166.092 111.056L166.16 110.699L166.899 108.011C167.012 107.53 167.072 107.145 167.077 106.856C167.178 106.517 167.257 106.224 167.314 105.979L167.442 105.433L167.549 105.443C167.637 105.464 167.748 105.521 167.882 105.614ZM174.157 120.022C174.944 121.171 175.814 122.059 176.765 122.686C177.724 123.326 178.597 123.738 179.383 123.922C179.884 124.04 180.406 124.09 180.949 124.072C181.24 124.068 181.519 123.983 181.786 123.818C182.172 123.587 182.462 123.344 182.657 123.089C182.974 122.666 183.219 122.086 183.392 121.349C183.445 121.123 183.493 120.85 183.538 120.528C181.666 119.405 180.22 118.501 179.199 117.816L175.964 115.766C175.702 115.601 175.443 115.468 175.187 115.366C175.056 115.305 174.912 115.255 174.755 115.218C174.421 115.14 174.158 115.177 173.967 115.329C173.672 115.571 173.463 115.952 173.341 116.473C173.231 116.944 173.218 117.418 173.303 117.894C173.372 118.263 173.657 118.972 174.157 120.022Z" fill="#C73A2A"/>
<path d="M174.202 129.021C174.639 130.693 174.875 131.809 174.909 132.368C174.949 132.94 174.862 133.46 174.649 133.929C174.378 134.526 173.956 134.894 173.383 135.033C172.82 135.176 172.253 135.118 171.683 134.859C171.095 134.592 170.528 134.146 169.98 133.521C169.442 132.9 169.077 132.008 168.884 130.845C168.692 129.683 168.877 128.482 169.441 127.241C170.233 125.495 171.259 124.908 172.518 125.48C173.078 125.734 173.872 126.427 174.899 127.559C175.935 128.694 176.868 129.799 177.699 130.875C178.501 131.915 179.003 132.481 179.205 132.573C179.407 132.665 179.554 132.609 179.646 132.407C179.825 132.012 179.6 130.935 178.969 129.174L179.45 128.994C180.066 130.47 180.418 131.55 180.506 132.233C180.6 132.929 180.551 133.489 180.359 133.912C180.076 134.536 179.653 134.721 179.093 134.467C178.661 134.271 177.967 133.59 177.011 132.425L175.472 130.579C174.958 129.979 174.534 129.46 174.202 129.021ZM173.091 127.768C172.8 127.359 172.434 127.055 171.993 126.854C171.543 126.65 171.119 126.645 170.719 126.841C170.329 127.041 170.039 127.352 169.847 127.775C169.45 128.648 169.565 129.714 170.19 130.973C170.811 132.241 171.539 133.065 172.375 133.445C173.111 133.779 173.647 133.573 173.985 132.829C174.214 132.324 174.185 131.462 173.895 130.245C173.601 129.036 173.334 128.211 173.091 127.768ZM175.189 142.369C175.321 141.565 175.088 140.467 174.49 139.076L174.69 138.269C175.262 139.205 175.631 140.26 175.797 141.432C175.972 142.609 175.93 143.482 175.672 144.052C175.597 144.217 175.481 144.325 175.325 144.376C175.174 144.441 175.015 144.435 174.85 144.36C174.749 144.314 174.654 144.255 174.566 144.181C174.473 144.117 174.162 143.826 173.632 143.308C173.336 143.008 172.445 141.932 170.957 140.082L168.199 136.419C167.952 136.108 167.771 135.898 167.654 135.789C167.532 135.69 167.371 135.594 167.169 135.502C167.079 135.528 167.02 135.574 166.991 135.638C166.853 135.941 166.866 136.34 167.029 136.835C167.434 138.116 167.836 139.036 168.236 139.595C168.161 139.76 168.066 139.933 167.951 140.113C167.59 139.639 167.213 138.992 166.821 138.171C166.425 137.359 166.191 136.594 166.119 135.874C166.043 135.163 166.094 134.61 166.274 134.215C166.386 133.967 166.547 133.796 166.756 133.702C166.951 133.614 167.127 133.605 167.283 133.676C168.055 134.026 169.154 135.157 170.58 137.068C172.269 139.354 173.357 140.79 173.844 141.376C174.076 141.648 174.239 141.849 174.334 141.981C174.487 142.206 174.61 142.339 174.701 142.381C174.784 142.418 174.947 142.415 175.189 142.369Z" fill="#C73A2A"/>
<path d="M169.81 151.359C170.156 151.078 170.676 150.575 171.369 149.849C171.431 149.884 171.478 149.914 171.51 149.939C171.558 149.976 171.594 150.062 171.617 150.196C171.569 150.324 171.526 150.412 171.489 150.46C171.47 150.484 171.441 150.512 171.402 150.546C171.036 150.901 170.64 151.352 170.212 151.902C170.181 151.942 170.078 152.098 169.903 152.372L169.611 152.796C169.549 152.876 169.466 152.958 169.361 153.043C169.297 153.044 169.256 153.038 169.241 153.026L163.135 149.287C161.943 148.551 161.154 148.045 160.768 147.769C161.043 148.368 161.472 149.993 162.053 152.646L162.425 154.337C162.754 155.655 163.179 157.597 163.7 160.164L162.601 161.476L156.825 151.624L156.651 151.355C156.58 151.249 156.525 151.18 156.485 151.149C156.413 151.093 156.35 151.101 156.294 151.173C156.12 151.396 156.207 152.179 156.554 153.524C156.708 154.13 156.797 154.5 156.821 154.634L156.443 154.972C156.087 154.082 155.828 153.035 155.664 151.833C155.502 150.646 155.61 149.809 155.989 149.323C156.28 148.949 156.621 148.914 157.011 149.218C157.186 149.354 157.382 149.571 157.598 149.867C157.815 150.164 158.703 151.725 160.262 154.551C161.822 157.378 162.754 159.12 163.059 159.78C161.295 151.666 160.041 146.896 159.296 145.471L159.503 145.23C159.742 145.416 160.075 145.637 160.502 145.893C160.788 146.052 161.38 146.417 162.278 146.988C165.041 148.744 167.225 150.03 168.829 150.844C166.406 147.14 164.801 144.496 164.014 142.911C163.221 141.334 163.259 139.989 164.127 138.874C164.468 138.436 164.856 138.169 165.289 138.072C165.731 137.981 166.135 138.078 166.501 138.363C167.106 138.835 167.201 139.337 166.786 139.87C166.494 140.244 166.067 140.391 165.503 140.31C165.195 140.262 164.985 140.252 164.874 140.281C164.762 140.309 164.635 140.414 164.492 140.598C164.145 141.043 164.106 141.595 164.374 142.252C164.651 142.915 165.32 144.101 166.381 145.81L167.374 147.466C168.223 148.92 169.035 150.218 169.81 151.359Z" fill="#C73A2A"/>
<path d="M153.298 165.729C153.491 165.718 153.652 165.723 153.779 165.743C153.864 165.762 154.064 165.84 154.378 165.977C154.7 166.122 154.91 166.197 155.01 166.202C155.174 166.204 155.305 166.16 155.402 166.072C155.664 165.836 155.8 165.421 155.809 164.829C155.828 163.736 155.508 162.252 154.846 160.375C154.177 158.504 153.436 157.12 152.624 156.221C152.32 155.884 152.058 155.692 151.839 155.645C151.676 155.616 151.524 155.665 151.382 155.794C151.09 156.057 150.91 156.505 150.842 157.138C150.749 157.983 150.797 159 150.986 160.189C150.871 160.347 150.776 160.46 150.701 160.528L150.522 160.669C150.431 160.507 150.319 159.962 150.188 159.034C150.006 157.703 150.001 156.659 150.176 155.904C150.357 155.156 150.646 154.602 151.043 154.244C151.387 153.933 151.765 153.816 152.175 153.894C152.713 153.993 153.296 154.391 153.925 155.087C154.466 155.686 154.984 156.545 155.477 157.663C155.963 158.788 156.286 160.005 156.448 161.314C156.61 162.622 156.671 163.608 156.63 164.27C156.588 164.947 156.421 165.642 156.127 166.356C155.931 166.846 155.679 167.23 155.372 167.507C155.058 167.791 154.655 167.903 154.165 167.842C153.675 167.796 153.264 167.589 152.932 167.222C152.73 166.997 152.63 166.767 152.635 166.532C152.639 166.31 152.72 166.129 152.877 165.987C152.975 165.899 153.115 165.813 153.298 165.729Z" fill="#C73A2A"/>
<path d="M145.454 166.656C145.164 166.77 144.92 166.798 144.72 166.739C144.526 166.689 144 166.414 143.141 165.915C141.715 165.072 140.922 164.632 140.762 164.595C140.601 164.559 140.319 164.514 139.916 164.461C139.503 164.414 138.91 164.584 138.135 164.971C138.05 164.919 137.99 164.869 137.956 164.819C137.922 164.769 137.889 164.712 137.857 164.648L138.048 164.498C138.123 164.447 138.232 164.383 138.377 164.308C138.732 164.113 139.045 163.927 139.317 163.752C139.954 163.326 140.427 163.043 140.736 162.904C142.154 163.556 143.61 164.373 145.106 165.352C145.443 165.573 145.717 165.678 145.93 165.667C146.14 165.669 146.452 165.527 146.868 165.241C146.302 162.837 145.977 161.351 145.893 160.784C145.83 160.337 145.778 160.048 145.737 159.917C145.646 159.661 145.611 159.477 145.632 159.365C145.638 159.25 145.808 159.078 146.14 158.849C146.248 158.775 146.425 158.684 146.669 158.576C146.743 158.612 146.796 158.654 146.831 158.704C146.922 158.837 147.16 159.795 147.542 161.578C148.607 166.591 149.268 169.285 149.526 169.659C149.6 169.767 149.688 169.787 149.787 169.718C150.203 169.432 150.394 168.295 150.361 166.308C150.446 166.237 150.506 166.19 150.539 166.167C150.597 166.127 150.69 166.075 150.818 166.012C150.978 167.347 150.894 168.612 150.565 169.807C150.237 171.002 149.856 171.748 149.424 172.046C149.166 172.223 148.932 172.158 148.72 171.851C148.485 171.51 147.94 169.545 147.085 165.955L146.76 166.179C146.137 166.608 145.783 166.956 145.697 167.224C145.604 167.497 145.592 167.915 145.662 168.48C145.988 170.963 146.028 172.639 145.781 173.508C145.526 174.382 145.12 175.011 144.563 175.395C144.147 175.681 143.738 175.798 143.334 175.745C142.936 175.701 142.613 175.5 142.367 175.143C142.161 174.844 142.101 174.542 142.186 174.239C142.27 173.935 142.425 173.706 142.649 173.552C143.048 173.277 143.497 173.305 143.994 173.636C144.277 173.833 144.498 173.877 144.656 173.769C145.021 173.517 145.236 173.019 145.3 172.277C145.364 171.534 145.285 170.289 145.063 168.543C144.96 167.683 145.09 167.054 145.454 166.656Z" fill="#C73A2A"/>
<path d="M130.268 170.209C130.162 170.103 130.063 170.071 129.972 170.115C129.498 170.339 129.112 171.436 128.815 173.406C128.728 173.459 128.661 173.495 128.616 173.517C128.552 173.547 128.452 173.583 128.315 173.625C128.406 171.619 128.943 169.931 129.926 168.563L130.045 168.39C130.255 168.078 130.456 167.877 130.648 167.787C130.912 167.662 131.131 167.782 131.303 168.147C131.471 168.503 131.636 170.01 131.797 172.668L131.869 173.387C131.914 174.002 131.973 174.577 132.047 175.111L132.116 174.76C132.98 169.241 134.147 166.135 135.616 165.441C136.273 165.131 136.744 165.277 137.028 165.879C137.196 166.235 137.33 166.825 137.429 167.649C137.523 168.486 137.602 170.58 137.666 173.931L137.774 176.675C137.771 176.788 137.778 176.863 137.796 176.899C137.822 176.954 137.895 177.014 138.015 177.08C138.479 176.739 138.859 175.571 139.157 173.578L139.725 173.327C139.645 174.481 139.411 175.618 139.025 176.737C138.643 177.866 138.11 178.592 137.425 178.916C136.987 179.122 136.697 179.075 136.555 178.774C136.331 178.3 136.213 177.446 136.2 176.213L136.143 170.917C136.12 168.93 136.005 167.718 135.798 167.28C135.678 167.025 135.503 166.951 135.275 167.058C134.755 167.304 134.154 168.62 133.473 171.006C132.792 173.392 132.439 175.919 132.415 178.586L132.405 179.06C132.385 179.538 132.383 180.03 132.399 180.536C132.404 180.879 132.356 181.131 132.253 181.291C132.052 181.408 131.905 181.488 131.814 181.531C131.695 181.587 131.509 181.653 131.254 181.729C131.183 181.673 131.137 181.622 131.116 181.577C131.055 181.449 130.98 180.698 130.889 179.324L130.85 178.923C130.807 178.43 130.775 177.782 130.752 176.978C130.745 176.467 130.73 176.034 130.707 175.677L130.268 170.209Z" fill="#C73A2A"/>
<path d="M118.208 174.141C118.122 174.018 118.03 173.97 117.932 173.998C117.427 174.139 116.862 175.155 116.238 177.048C116.144 177.085 116.072 177.11 116.023 177.123C115.955 177.142 115.851 177.161 115.709 177.18C116.136 175.217 116.948 173.644 118.148 172.46L118.294 172.309C118.554 172.038 118.785 171.874 118.989 171.817C119.271 171.738 119.467 171.893 119.575 172.282C119.681 172.661 119.59 174.174 119.302 176.821L119.252 177.542C119.193 178.156 119.155 178.732 119.138 179.272L119.264 178.938C121.044 173.642 122.717 170.776 124.282 170.339C124.982 170.144 125.421 170.367 125.6 171.008C125.706 171.388 125.738 171.991 125.697 172.82C125.649 173.661 125.375 175.739 124.875 179.053L124.52 181.776C124.499 181.887 124.493 181.962 124.504 182.001C124.52 182.059 124.582 182.131 124.69 182.216C125.204 181.957 125.776 180.871 126.404 178.956L127.006 178.804C126.733 179.928 126.312 181.009 125.743 182.048C125.177 183.097 124.529 183.723 123.8 183.926C123.333 184.056 123.055 183.961 122.966 183.64C122.825 183.135 122.851 182.274 123.046 181.056L123.88 175.826C124.192 173.864 124.282 172.649 124.152 172.183C124.076 171.911 123.917 171.808 123.674 171.876C123.12 172.031 122.306 173.227 121.234 175.465C120.161 177.702 119.389 180.134 118.917 182.759L118.827 183.224C118.727 183.692 118.642 184.177 118.572 184.678C118.52 185.018 118.43 185.257 118.302 185.398C118.084 185.48 117.926 185.534 117.829 185.562C117.703 185.597 117.508 185.63 117.244 185.662C117.183 185.595 117.146 185.537 117.133 185.489C117.095 185.353 117.147 184.6 117.288 183.23L117.317 182.828C117.358 182.335 117.434 181.69 117.547 180.894C117.627 180.39 117.685 179.96 117.722 179.604L118.208 174.141ZM118.031 190L117.899 190.036L117.665 189.929C118.157 188.576 119.132 187.697 120.59 187.29C121.397 187.064 122.061 187.041 122.582 187.221C123.094 187.402 123.404 187.688 123.513 188.077C123.678 188.67 123.46 189.05 122.857 189.218C122.391 189.349 121.956 189.161 121.553 188.655C121.177 188.173 120.746 188 120.26 188.136C119.395 188.377 118.652 188.999 118.031 190Z" fill="#C73A2A"/>
<path d="M102.916 184.832C102.936 184.912 102.967 184.967 103.008 184.997C103.038 185.027 103.079 185.042 103.129 185.042C103.654 185.038 104.465 184.204 105.562 182.541C105.673 182.53 105.754 182.524 105.804 182.524C105.865 182.523 105.966 182.527 106.107 182.536C105.898 182.962 105.559 183.499 105.09 184.149C104.611 184.798 104.105 185.337 103.574 185.765C103.032 186.203 102.52 186.53 102.037 186.746C101.876 186.818 101.73 186.854 101.599 186.855C101.549 186.855 101.473 186.851 101.372 186.842C101.189 186.661 101.097 186.475 101.095 186.284C101.094 186.163 101.108 186.041 101.138 185.92C101.157 185.799 101.206 185.612 101.285 185.359C101.581 184.489 101.798 183.877 101.937 183.522L102.782 181.275C102.98 180.759 103.173 180.213 103.36 179.636C103.28 179.738 103.21 179.834 103.15 179.925C102.222 181.305 101.223 182.625 100.153 183.884C99.0733 185.154 98.1817 186.003 97.4786 186.433C96.9765 186.749 96.4984 186.91 96.0443 186.913C95.7012 186.916 95.433 186.822 95.2398 186.632C95.0467 186.452 94.949 186.215 94.9467 185.922C94.9453 185.741 94.9642 185.564 95.0032 185.392C95.0709 185.008 95.2232 184.472 95.46 183.784C95.6969 183.096 96.3211 181.603 97.3327 179.304L98.8194 175.796L98.8784 175.599C98.8779 175.538 98.8419 175.448 98.7703 175.327C98.2062 175.453 97.3655 176.357 96.2482 178.041L95.6275 178.031C95.936 177.463 96.445 176.733 97.1546 175.839C97.7044 175.159 98.2957 174.63 98.9285 174.251C99.2801 174.037 99.6577 173.928 100.061 173.925C100.303 173.923 100.486 173.972 100.607 174.072C100.729 174.172 100.791 174.282 100.792 174.403C100.796 174.938 100.545 175.768 100.039 176.892L97.8811 181.707L97.049 183.727C96.8607 184.172 96.747 184.481 96.708 184.653C96.6689 184.824 96.6501 184.996 96.6514 185.168C96.6524 185.299 96.6885 185.399 96.7597 185.47C96.831 185.55 96.9221 185.589 97.0331 185.589C97.1945 185.587 97.3807 185.52 97.5916 185.387C98.3349 184.938 99.1514 184.169 100.041 183.083C101.321 181.519 102.17 180.397 102.589 179.718C103.635 178.035 104.545 176.317 105.319 174.565C105.438 174.282 105.582 174.074 105.753 173.941C105.965 173.909 106.126 173.893 106.237 173.892C106.368 173.891 106.57 173.915 106.843 173.963C106.884 174.044 106.905 174.109 106.905 174.159C106.906 174.24 106.857 174.422 106.758 174.705C106.541 175.363 106.007 176.75 105.155 178.865L104.813 179.685L102.916 184.832Z" fill="#C73A2A"/>
<path d="M78.5628 184.068L83.1005 176.659L83.6539 175.848C84.3885 174.725 84.7737 174.058 84.8094 173.85C84.8264 173.75 84.7902 173.693 84.7007 173.677C84.641 173.667 84.3566 173.834 83.8475 174.177C83.3384 174.519 82.8815 174.887 82.4767 175.278C82.2185 175.531 82.0361 175.699 81.9296 175.784L81.45 175.625C81.8837 175.064 82.5191 174.461 83.3563 173.816C84.1918 173.181 84.7956 172.793 85.1678 172.652C85.5318 172.499 85.848 172.445 86.1166 172.491C86.5543 172.566 86.7357 172.822 86.6608 173.26C86.5996 173.618 86.4052 174.097 86.0775 174.696C85.7399 175.293 83.8859 178.263 80.5157 183.604L80.9757 183.698C81.8808 183.853 82.7994 183.569 83.7315 182.848C84.6519 182.136 86.4141 180.272 89.0181 177.257C90.2951 175.775 91.2928 174.82 92.0113 174.39C92.7298 173.96 93.5764 173.828 94.5512 173.995C95.0685 174.083 95.4724 174.296 95.7629 174.632C96.0618 174.98 96.172 175.383 96.0938 175.84C95.9646 176.596 95.5568 176.916 94.8704 176.798C94.4228 176.722 94.1014 176.416 93.9063 175.881C93.7472 175.434 93.5235 175.186 93.235 175.137C92.8073 175.064 92.3257 175.186 91.7902 175.504C91.2529 175.832 90.1032 177.017 88.3411 179.06C85.9538 181.826 84.2963 183.467 83.3684 183.984C82.4388 184.511 81.4021 184.677 80.2582 184.481C79.7807 184.4 79.2156 184.262 78.5628 184.068Z" fill="#C73A2A"/>
<path d="M74.6755 176.585C75.489 175.688 76.4132 174.715 77.4481 173.667L79.9097 171.131C80.137 171.187 80.3165 171.24 80.4482 171.291C80.5705 171.339 80.7683 171.443 81.0417 171.603C81.0501 171.693 81.0452 171.761 81.027 171.808C80.9576 171.987 79.7392 173.327 77.3719 175.829L74.9198 178.466C74.4807 178.956 74.1674 179.289 73.98 179.465C73.6682 179.766 73.4832 179.992 73.4247 180.142C73.3444 180.349 73.3748 180.48 73.5159 180.535C73.9957 180.721 75.0524 180.244 76.686 179.102C76.7931 179.133 76.8655 179.156 76.9031 179.17C76.969 179.196 77.0659 179.239 77.194 179.3C75.6729 180.625 74.0777 181.402 72.4084 181.631L71.9931 181.697C71.6692 181.723 71.3661 181.681 71.0839 181.572C70.8675 181.488 70.8305 181.262 70.9729 180.896C71.1554 180.425 72.2359 179.161 74.2143 177.104L71.4139 175.952L70.7983 176.493C69.8139 177.355 68.6965 178.031 67.446 178.52C66.1918 179.018 65.0614 179.072 64.0548 178.681C63.4339 178.44 62.984 177.968 62.705 177.265C62.4224 176.57 62.5421 175.551 63.0643 174.205C63.9296 171.976 65.3298 170.279 67.2649 169.114C69.1999 167.949 70.9107 167.655 72.397 168.232C73.3378 168.597 73.8623 169.212 73.9705 170.076C74.0656 170.947 73.9361 171.838 73.582 172.751C73.2643 173.569 72.6769 174.483 71.8196 175.493L72.3449 175.729L72.9007 175.928L73.4456 176.156L74.1621 176.402L74.6755 176.585ZM63.9877 177.892C65.0695 178.312 66.6775 177.599 68.8118 175.754C70.9366 173.905 72.2984 172.209 72.8971 170.666C73.2294 169.81 73.0098 169.233 72.2384 168.933C71.0719 168.48 69.4506 169.269 67.3745 171.299C65.2853 173.335 63.9998 174.974 63.5178 176.216C63.3791 176.574 63.3498 176.914 63.43 177.237C63.5101 177.561 63.696 177.779 63.9877 177.892Z" fill="#C73A2A"/>
<path d="M58.9608 157.918C58.6751 158.175 58.3885 158.388 58.101 158.558C57.8109 158.715 57.3634 158.806 56.7585 158.832L56.4476 158.858L56.1997 158.872C56.6995 159.214 56.8355 159.551 56.6078 159.884C56.397 160.193 55.1523 160.968 52.8735 162.209C52.0903 162.639 51.6578 162.888 51.5759 162.954C51.8226 162.915 52.436 162.759 53.416 162.488L54.6875 162.184C56.1785 161.773 57.4364 161.551 58.4612 161.518C59.4777 161.48 60.3108 161.683 60.9606 162.127C61.4521 162.463 61.5498 162.847 61.2537 163.281C60.7582 164.005 59.425 164.927 57.2539 166.047L55.9359 166.741L55.7243 166.89C55.7747 166.888 56.2494 166.748 57.1483 166.47C59.4979 165.876 61.0655 165.505 61.8509 165.357C62.6363 165.21 63.4542 165.158 64.3046 165.201C65.1493 165.253 65.7924 165.43 66.2339 165.732C66.4005 165.846 66.5076 166.029 66.555 166.281C66.6024 166.534 66.5407 166.785 66.3699 167.035C65.7378 167.959 63.7085 169.158 60.2823 170.629L58.9826 171.189C58.2735 171.511 57.7897 171.718 57.5311 171.81C56.5669 172.166 56.0478 172.398 55.9738 172.506C55.9282 172.573 55.9346 172.626 55.9929 172.666C56.0846 172.728 56.5098 172.75 57.2685 172.731L57.4868 172.734C58.0439 172.723 58.7893 172.652 59.7229 172.52L60.0419 172.885C59.4253 173.197 58.431 173.373 57.059 173.413C55.6814 173.461 54.5802 173.204 53.7555 172.64C53.5639 172.509 53.4509 172.352 53.4167 172.17C53.5135 172.028 53.8798 171.814 54.5157 171.528L58.9392 169.509C62.4452 167.921 64.3463 166.91 64.6424 166.477C64.7905 166.261 64.7646 166.084 64.5646 165.947C64.0065 165.566 61.8844 165.845 58.1984 166.784C54.5124 167.724 51.7014 168.76 49.7653 169.894C49.6601 169.797 49.445 169.638 49.1201 169.416C48.7785 169.182 48.5385 169.006 48.3999 168.887C48.513 168.793 48.7058 168.699 48.9784 168.604C49.4702 168.439 51.0351 167.687 53.6733 166.35C56.2975 165.014 57.8594 164.169 58.3589 163.814C58.8528 163.467 59.151 163.218 59.2535 163.068C59.4699 162.752 59.4698 162.519 59.2532 162.371C59.1449 162.297 58.8784 162.231 58.4536 162.173C58.0232 162.123 56.7935 162.322 54.7646 162.768C52.7301 163.223 51.2167 163.631 50.2245 163.992C49.2239 164.347 47.4203 165.161 44.8136 166.435C44.6777 166.33 44.5764 166.255 44.5097 166.209L44.0349 165.885C43.9932 165.856 43.9351 165.798 43.8606 165.71C43.8842 165.604 43.9074 165.535 43.9302 165.501C43.9701 165.443 44.0871 165.37 44.2812 165.283C44.3741 165.236 44.5687 165.113 44.8649 164.912C45.1809 164.7 45.7105 164.408 46.4537 164.036C48.5875 162.989 50.4831 161.968 52.1405 160.974C52.5323 160.741 53.0281 160.463 53.6281 160.139C54.1859 159.824 54.482 159.641 54.5161 159.591C54.5902 159.483 54.5647 159.386 54.4397 159.301C54.2148 159.147 53.714 159.129 52.9373 159.246C52.1523 159.357 51.528 159.492 51.0643 159.652C50.8872 159.714 50.7398 159.76 50.6219 159.79C50.4693 159.673 50.3224 159.548 50.1812 159.415C51.6787 158.691 53.4119 158.39 55.381 158.514C55.7921 158.538 56.0838 158.487 56.256 158.361C56.4339 158.225 56.9023 157.782 57.6612 157.029C58.0972 156.606 58.524 156.366 58.9417 156.309C59.3511 156.247 60.1434 156.349 61.3187 156.614L61.1828 157.108C60.669 157.001 60.3083 156.975 60.1005 157.028C59.8928 157.082 59.5129 157.378 58.9608 157.918Z" fill="#C73A2A"/>
<path d="M38.6354 150.021C38.501 149.741 38.4557 149.499 38.4995 149.295C38.5355 149.098 38.771 148.553 39.2061 147.661C39.9429 146.177 40.3238 145.353 40.3488 145.191C40.3738 145.029 40.3977 144.744 40.4207 144.337C40.4374 143.923 40.2246 143.343 39.7821 142.599C39.8277 142.51 39.8741 142.447 39.9213 142.409C39.9685 142.371 40.0228 142.334 40.0842 142.298L40.2476 142.477C40.3045 142.548 40.3756 142.653 40.4609 142.791C40.682 143.131 40.8897 143.431 41.084 143.689C41.5562 144.293 41.8729 144.744 42.0341 145.042C41.4863 146.504 40.7787 148.016 39.9112 149.579C39.7148 149.931 39.6301 150.212 39.6573 150.423C39.6702 150.633 39.8346 150.935 40.1504 151.328C42.5069 150.588 43.9648 150.156 44.524 150.031C44.9652 149.935 45.2495 149.862 45.3771 149.812C45.6259 149.703 45.8071 149.654 45.9206 149.667C46.0356 149.665 46.2195 149.821 46.4721 150.136C46.5542 150.239 46.6577 150.408 46.7826 150.644C46.7528 150.72 46.7142 150.776 46.667 150.814C46.5411 150.915 45.6031 151.222 43.853 151.734C38.9303 153.161 36.2919 154.017 35.9377 154.301C35.8354 154.384 35.8222 154.472 35.898 154.566C36.2138 154.96 37.3612 155.068 39.3404 154.889C39.4177 154.97 39.469 155.026 39.4943 155.057C39.5385 155.112 39.597 155.201 39.6697 155.324C38.3494 155.581 37.0815 155.59 35.8661 155.349C34.6506 155.108 33.8787 154.783 33.5502 154.374C33.3544 154.13 33.4021 153.891 33.6933 153.657C34.016 153.398 35.936 152.711 39.4534 151.596L39.2071 151.289C38.7334 150.699 38.3601 150.371 38.0874 150.305C37.8083 150.232 37.3899 150.251 36.8322 150.362C34.3792 150.868 32.7105 151.03 31.8261 150.847C30.9354 150.656 30.2784 150.297 29.8552 149.77C29.5394 149.376 29.393 148.976 29.416 148.57C29.4312 148.169 29.6079 147.833 29.9464 147.562C30.2297 147.334 30.5258 147.252 30.8348 147.314C31.1438 147.377 31.3836 147.515 31.5541 147.727C31.8573 148.105 31.8619 148.554 31.568 149.074C31.392 149.371 31.364 149.594 31.484 149.744C31.7619 150.09 32.2736 150.268 33.019 150.278C33.7645 150.288 34.9998 150.118 36.7249 149.769C37.5757 149.603 38.2125 149.687 38.6354 150.021Z" fill="#C73A2A"/>
<path d="M48.8038 142.967C48.5398 142.687 48.227 142.302 47.8654 141.812C47.684 141.555 47.552 141.375 47.4694 141.271C47.3543 141.151 47.2529 141.034 47.1653 140.922C47.0427 140.829 46.9357 140.774 46.8443 140.756C46.6754 140.725 46.3756 140.739 45.945 140.799L41.7843 141.449C41.2323 141.521 40.6371 141.628 39.9988 141.772C39.5969 141.862 39.1989 141.938 38.8046 142C38.4053 142.054 38.1525 142.1 38.0461 142.137C37.8145 142.2 37.6449 142.239 37.5372 142.254L33.4347 142.975C33.2783 143.006 32.1267 143.228 29.98 143.641C29.3316 143.767 28.6932 143.911 28.0648 144.072C28.5253 144.634 28.9582 145.107 29.3636 145.492C29.4449 145.573 29.5619 145.686 29.7146 145.832C30.0312 146.081 30.212 146.245 30.257 146.324C30.2971 146.394 30.329 146.521 30.3527 146.705L30.2231 146.814C30.1004 146.884 29.9552 146.874 29.7875 146.784C29.2707 146.509 28.3835 145.668 27.126 144.259C25.7904 144.464 24.9005 144.635 24.4561 144.773C23.8553 144.942 23.4065 145.001 23.1099 144.949C23.0323 144.854 22.961 144.749 22.8959 144.636C22.8259 144.513 22.7296 144.324 22.607 144.068C22.6797 143.829 22.7642 143.682 22.8606 143.627L23.0746 143.575C23.1284 143.567 23.3625 143.509 23.7769 143.4C24.0084 143.338 24.3057 143.279 24.6687 143.222C25.3859 143.115 25.8628 143.034 26.0994 142.981C25.853 142.61 25.6922 142.359 25.6171 142.228C25.5371 142.087 25.4257 141.872 25.2831 141.582L25.2456 141.516C24.9804 141.051 24.8253 140.495 24.7805 139.847C24.7257 138.937 24.9036 138.149 25.3144 137.485C25.7164 136.825 26.3073 136.273 27.0872 135.828C27.6743 135.492 28.3659 135.248 29.162 135.096C29.9581 134.944 30.8349 134.902 31.7924 134.971C32.7499 135.04 33.6354 135.238 34.4489 135.563C35.2536 135.894 35.8674 136.246 36.2904 136.621C37.2539 137.453 37.8307 138.036 38.0209 138.369C38.161 138.615 38.2836 138.911 38.3886 139.257C38.4937 139.604 38.5787 139.997 38.6436 140.436C39.5536 140.382 41.4067 140.096 44.2031 139.58C44.7576 139.473 45.1719 139.405 45.446 139.376C45.7289 139.342 45.9317 139.29 46.0544 139.22L46.1652 139.139L46.2009 138.927C46.1359 138.651 46.0196 138.345 45.852 138.011C45.6793 137.668 45.5449 137.361 45.4486 137.091C45.4586 137.027 45.4568 136.953 45.443 136.868L45.6158 136.682C45.6596 136.657 45.7203 136.651 45.7979 136.665C45.9755 137.017 46.1169 137.285 46.222 137.469C46.292 137.591 46.354 137.69 46.4078 137.763L46.6011 138.071L47.8902 140.542C48.1354 140.972 48.3543 141.294 48.547 141.51C48.7046 141.826 48.846 142.094 48.9711 142.313L49.2488 142.8L49.1643 142.865C49.0854 142.91 48.9652 142.944 48.8038 142.967ZM34.396 136.692C33.0368 136.387 31.7952 136.329 30.6711 136.518C29.5333 136.703 28.6139 136.995 27.9128 137.396C27.4659 137.651 27.0497 137.97 26.664 138.353C26.4537 138.554 26.3072 138.806 26.2245 139.109C26.0992 139.541 26.0521 139.916 26.0833 140.236C26.1395 140.761 26.3552 141.353 26.7305 142.01C26.8456 142.212 26.9964 142.445 27.1828 142.71C29.3183 142.258 30.9931 141.935 32.2072 141.741L35.9718 141.038C36.2759 140.981 36.5563 140.902 36.813 140.802C36.9507 140.758 37.0896 140.696 37.2298 140.616C37.5278 140.446 37.6949 140.24 37.7313 139.999C37.7827 139.621 37.6758 139.2 37.4106 138.735C37.1704 138.314 36.857 137.959 36.4703 137.668C36.1687 137.446 35.4773 137.12 34.396 136.692Z" fill="#C73A2A"/>
<path d="M28.2716 130.263C26.8101 129.34 25.8761 128.685 25.4695 128.301C25.0502 127.91 24.7583 127.47 24.5939 126.982C24.3844 126.361 24.4415 125.804 24.7654 125.311C25.0796 124.822 25.5332 124.477 26.1261 124.278C26.7381 124.071 27.4575 124.01 28.2842 124.093C29.1015 124.18 29.9772 124.582 30.9114 125.3C31.8456 126.018 32.5303 127.023 32.9655 128.314C33.5779 130.13 33.2291 131.26 31.9191 131.701C31.3358 131.898 30.2828 131.933 28.7602 131.808C27.2281 131.685 25.7915 131.515 24.4505 131.296C23.1542 131.083 22.4008 131.012 22.1905 131.083C21.9801 131.154 21.9104 131.295 21.9813 131.505C22.1199 131.916 23.0203 132.55 24.6826 133.406L24.4544 133.866C22.997 133.207 22.0027 132.659 21.4715 132.22C20.9275 131.775 20.5814 131.333 20.4331 130.893C20.2139 130.243 20.396 129.819 20.9793 129.623C21.4287 129.471 22.4005 129.495 23.8946 129.694L26.2794 129.992C27.0647 130.079 27.7287 130.169 28.2716 130.263ZM29.9379 130.42C30.4296 130.521 30.905 130.494 31.364 130.339C31.8326 130.181 32.1459 129.894 32.3041 129.479C32.4527 129.067 32.4528 128.641 32.3046 128.201C31.9983 127.293 31.187 126.592 29.8706 126.098C28.551 125.595 27.4561 125.491 26.5859 125.784C25.8209 126.042 25.5689 126.558 25.83 127.332C26.0073 127.858 26.6173 128.467 27.6599 129.16C28.6993 129.842 29.4586 130.262 29.9379 130.42ZM18.4378 121.183C18.89 121.861 19.8096 122.504 21.1966 123.112L21.6012 123.838C20.5439 123.545 19.5545 123.027 18.633 122.283C17.7019 121.543 17.1364 120.876 16.9365 120.283C16.8785 120.111 16.8891 119.953 16.9684 119.809C17.0349 119.659 17.1542 119.555 17.3264 119.497C17.4316 119.461 17.5416 119.44 17.6564 119.433C17.7681 119.417 18.1941 119.417 18.9345 119.434C19.3558 119.452 20.7413 119.629 23.0911 119.965L27.6076 120.759C28.0003 120.818 28.2765 120.848 28.436 120.847C28.5924 120.837 28.7757 120.797 28.9861 120.726C29.0337 120.646 29.0462 120.572 29.0236 120.505C28.9173 120.19 28.6355 119.907 28.1783 119.656C27.0081 118.996 26.0862 118.599 25.4124 118.464C25.3544 118.292 25.3058 118.101 25.2668 117.89C25.8543 117.99 26.5715 118.207 27.4182 118.539C28.2618 118.861 28.9556 119.261 29.4997 119.738C30.0406 120.205 30.3803 120.644 30.5189 121.056C30.606 121.314 30.6052 121.548 30.5165 121.759C30.4342 121.957 30.3118 122.084 30.1492 122.139C29.346 122.409 27.7709 122.333 25.424 121.911C22.63 121.393 20.8547 121.087 20.0981 120.99C19.7438 120.95 19.4868 120.914 19.3271 120.883C19.062 120.823 18.8817 120.809 18.7861 120.842C18.7 120.871 18.5839 120.984 18.4378 121.183Z" fill="#C73A2A"/>
<path d="M16.2649 111.259C16.2046 111.701 16.1703 112.423 16.1621 113.427C16.0927 113.444 16.0379 113.454 15.9978 113.458C15.9375 113.463 15.8529 113.426 15.744 113.345C15.6917 113.218 15.6627 113.124 15.6571 113.064C15.6543 113.034 15.6556 112.993 15.661 112.942C15.6847 112.433 15.6644 111.832 15.6001 111.138C15.5954 111.088 15.5631 110.904 15.5031 110.585L15.4254 110.075C15.4161 109.975 15.4204 109.858 15.4384 109.725C15.4849 109.68 15.5182 109.656 15.5383 109.654L22.548 108.198C23.9206 107.919 24.8421 107.747 25.3125 107.683C24.7018 107.436 23.2762 106.545 21.0359 105.009L19.6074 104.032C18.4649 103.297 16.8252 102.172 14.6881 100.658L14.5903 98.9492L25.546 102.174L25.8573 102.251C25.9816 102.28 26.0689 102.292 26.1191 102.288C26.2095 102.279 26.2505 102.23 26.2422 102.139C26.216 101.858 25.6162 101.346 24.4426 100.604C23.9148 100.268 23.5965 100.059 23.4876 99.978L23.5319 99.4722C24.4006 99.878 25.3062 100.463 26.2487 101.227C27.1801 101.981 27.6743 102.665 27.7312 103.278C27.775 103.75 27.5508 104.009 27.0584 104.055C26.8374 104.076 26.5463 104.052 26.1853 103.984C25.8243 103.916 24.108 103.386 21.0364 102.395C17.9648 101.403 16.0921 100.771 15.4182 100.499C22.26 105.205 26.4402 107.822 27.9587 108.35L27.973 108.668C27.6716 108.696 27.2775 108.762 26.7907 108.868C26.4738 108.949 25.7925 109.088 24.7468 109.286C21.5303 109.899 19.0586 110.458 17.3319 110.963C21.6343 112.002 24.6147 112.83 26.2731 113.447C27.9306 114.053 28.8247 115.059 28.9552 116.466C29.0065 117.019 28.9074 117.479 28.6577 117.847C28.3981 118.215 28.0371 118.421 27.5749 118.464C26.8113 118.535 26.3982 118.234 26.3357 117.561C26.2919 117.088 26.5031 116.689 26.9693 116.362C27.2266 116.186 27.3862 116.049 27.4482 115.952C27.5101 115.855 27.5304 115.691 27.5089 115.46C27.4567 114.898 27.1078 114.469 26.4622 114.174C25.8066 113.88 24.5072 113.474 22.5638 112.955L20.7059 112.428C19.0907 111.95 17.6103 111.56 16.2649 111.259Z" fill="#C73A2A"/>
<path d="M18.481 89.1484C18.3475 89.289 18.227 89.3952 18.1196 89.4671C18.045 89.5114 17.8458 89.5907 17.5221 89.7049C17.1884 89.8183 16.9834 89.9072 16.907 89.9716C16.7861 90.0829 16.7201 90.2039 16.709 90.3346C16.6791 90.6865 16.8632 91.0819 17.2613 91.5209C17.9924 92.3325 19.2404 93.1982 21.0054 94.1181C22.7712 95.0278 24.2574 95.534 25.464 95.6366C25.9165 95.6751 26.2388 95.6367 26.4309 95.5214C26.5702 95.432 26.6479 95.2917 26.6642 95.1007C26.6975 94.7085 26.5231 94.2582 26.141 93.7497C25.6318 93.0684 24.9023 92.3582 23.9524 91.6191C23.9284 91.4246 23.9207 91.2771 23.9293 91.1766L23.9636 90.9516C24.1412 91.0072 24.5948 91.3294 25.3246 91.9181C26.3665 92.7663 27.0817 93.5259 27.4702 94.197C27.8487 94.8672 28.0153 95.4688 27.9699 96.0017C27.9306 96.4642 27.7343 96.807 27.3811 97.0302C26.9206 97.3252 26.2227 97.433 25.2876 97.3534C24.4832 97.285 23.5191 97.0106 22.3953 96.5302C21.2724 96.0397 20.205 95.3716 19.1933 94.526C18.1816 93.6804 17.4645 93.0016 17.0422 92.4897C16.6107 91.9669 16.2585 91.3445 15.9857 90.6225C15.7947 90.1302 15.7167 89.678 15.7517 89.2657C15.7876 88.8434 16.0053 88.4872 16.4047 88.1971C16.7949 87.8961 17.2363 87.7665 17.729 87.8084C18.0307 87.8341 18.2601 87.9346 18.4174 88.11C18.5654 88.2745 18.6305 88.4624 18.6125 88.6735C18.6014 88.8042 18.5575 88.9625 18.481 89.1484Z" fill="#C73A2A"/>
<path d="M23.6011 83.0062C23.7358 82.726 23.8962 82.5395 24.0823 82.4465C24.2586 82.3513 24.8311 82.1944 25.7998 81.9759C27.4188 81.6229 28.2994 81.4054 28.4417 81.3233C28.584 81.2413 28.821 81.0821 29.1528 80.8458C29.4867 80.5996 29.8059 80.0711 30.1105 79.2601C30.2079 79.2405 30.2862 79.2372 30.3453 79.2504C30.4044 79.2635 30.4673 79.2827 30.5341 79.3079L30.4962 79.5476C30.4765 79.6362 30.4392 79.7572 30.3844 79.9104C30.2573 80.2956 30.1538 80.6447 30.0738 80.9578C29.8973 81.7042 29.7433 82.2333 29.6119 82.5452C28.1286 83.0318 26.5058 83.4253 24.7435 83.7257C24.3462 83.7923 24.0736 83.9022 23.9258 84.0554C23.7703 84.1965 23.6378 84.5134 23.5282 85.0059C25.5789 86.3824 26.828 87.2497 27.2755 87.6078C27.6257 87.8925 27.8604 88.0688 27.9797 88.1367C28.2204 88.2626 28.3714 88.3738 28.4327 88.4701C28.506 88.5588 28.4988 88.8001 28.4111 89.1941C28.3826 89.3222 28.3152 89.5088 28.209 89.7539C28.1313 89.778 28.0629 89.7834 28.0038 89.7703C27.8462 89.7352 27.0205 89.1948 25.5268 88.149C21.3346 85.2 19.0169 83.6761 18.5737 83.5775C18.4456 83.549 18.3684 83.5938 18.3421 83.712C18.2325 84.2045 18.8659 85.1674 20.2424 86.6006C20.2281 86.7111 20.2166 86.7861 20.2078 86.8255C20.1925 86.8945 20.1596 86.9957 20.1092 87.1292C19.0828 86.2598 18.2836 85.2755 17.7115 84.1764C17.1395 83.0773 16.9104 82.2717 17.0244 81.7595C17.0924 81.4541 17.3086 81.342 17.6731 81.4231C18.0769 81.513 19.8136 82.5819 22.8831 84.6297L22.9686 84.2455C23.133 83.5068 23.1556 83.0104 23.0364 82.7564C22.9194 82.4926 22.6431 82.1778 22.2076 81.8121C20.2785 80.2145 19.1088 79.0134 18.6986 78.2088C18.2906 77.3943 18.1601 76.6571 18.307 75.9971C18.4166 75.5046 18.6373 75.1402 18.969 74.9039C19.2909 74.6654 19.6636 74.5933 20.0872 74.6876C20.4418 74.7665 20.6913 74.9461 20.8356 75.2264C20.98 75.5066 21.0226 75.7797 20.9634 76.0457C20.8582 76.5185 20.5106 76.8029 19.9206 76.899C19.5791 76.9471 19.3875 77.0647 19.3458 77.2518C19.2494 77.6852 19.4303 78.1959 19.8887 78.7838C20.3472 79.3718 21.2521 80.2296 22.6034 81.3575C23.2643 81.9181 23.5969 82.4677 23.6011 83.0062Z" fill="#C73A2A"/>
<path d="M32.2313 70.237C32.3812 70.2428 32.4749 70.1988 32.5125 70.1052C32.7078 69.6182 32.2441 68.5515 31.1213 66.9052C31.1495 66.8077 31.173 66.7356 31.1918 66.6888C31.2181 66.6232 31.2669 66.5286 31.3382 66.405C32.6373 67.9372 33.3918 69.5392 33.602 71.2109L33.6327 71.4189C33.6905 71.79 33.6799 72.0739 33.601 72.2705C33.4921 72.5421 33.2503 72.6028 32.8756 72.4526C32.5104 72.306 31.3645 71.3137 29.438 69.4755L28.896 68.9971C28.4448 68.5769 28.0104 68.1961 27.5928 67.8547L27.7809 68.1584C30.9021 72.7917 32.1603 75.8623 31.5555 77.3702C31.2851 78.0446 30.8407 78.2578 30.2226 78.0098C29.8573 77.8633 29.3583 77.5218 28.7254 76.9853C28.0869 76.4356 26.6042 74.9548 24.2773 72.5428L22.3312 70.6043C22.2563 70.5199 22.2002 70.4702 22.1627 70.4552C22.1065 70.4326 22.0119 70.4382 21.8788 70.4718C21.7714 71.0376 22.2866 72.1521 23.4244 73.8153L23.1793 74.3857C22.4531 73.4855 21.8506 72.4937 21.3719 71.4101C20.8839 70.3228 20.7807 69.4279 21.0625 68.7255C21.2428 68.2759 21.4875 68.1131 21.7966 68.2371C22.2836 68.4324 22.9511 68.9774 23.7991 69.8721L27.4439 73.7151C28.8124 75.1555 29.7214 75.9659 30.171 76.1462C30.4332 76.2514 30.6113 76.1869 30.7052 75.9528C30.9193 75.4189 30.4643 74.0459 29.3402 71.8336C28.2161 69.6214 26.7555 67.5297 24.9585 65.5586L24.644 65.2041C24.3333 64.8403 24.0001 64.4783 23.6444 64.1182C23.4066 63.8706 23.271 63.6531 23.2374 63.4657C23.3051 63.2428 23.3577 63.0845 23.3953 62.9908C23.4441 62.869 23.5361 62.6939 23.6712 62.4654C23.7612 62.458 23.8296 62.4637 23.8764 62.4825C24.0075 62.5351 24.5739 63.0341 25.5755 63.9795L25.876 64.2468C26.243 64.5788 26.7082 65.0318 27.2717 65.6057C27.6237 65.9752 27.9298 66.2828 28.19 66.5285L32.2313 70.237Z" fill="#C73A2A"/>
<path d="M38.4159 59.046C38.5627 59.0771 38.6625 59.0497 38.7154 58.9638C38.9906 58.517 38.7146 57.3871 37.8875 55.5741C37.9318 55.4829 37.9672 55.4158 37.9936 55.3728C38.0307 55.3127 38.0948 55.2278 38.1861 55.118C39.2063 56.8484 39.6781 58.5552 39.6015 60.2383L39.5965 60.4486C39.5904 60.8241 39.5318 61.102 39.4207 61.2825C39.2673 61.5317 39.0187 61.5504 38.675 61.3388C38.3399 61.1324 37.379 59.96 35.7924 57.8215L35.3394 57.2581C34.966 56.7674 34.6026 56.3184 34.249 55.9111L34.3828 56.2423C36.6725 61.3381 37.3914 64.5777 36.5395 65.9611C36.1585 66.5798 35.6845 66.7145 35.1174 66.3652C34.7823 66.1589 34.3484 65.7376 33.8157 65.1015C33.2798 64.4515 32.0699 62.7405 30.186 59.9686L28.5971 57.728C28.5376 57.6321 28.4907 57.5736 28.4563 57.5524C28.4048 57.5207 28.3106 57.51 28.1737 57.5206C27.9719 58.06 28.2905 59.2457 29.1295 61.0779L28.7912 61.5984C28.2283 60.5881 27.8029 59.5084 27.515 58.3593C27.2186 57.2049 27.2688 56.3055 27.6656 55.6611C27.9196 55.2487 28.1884 55.1297 28.4719 55.3044C28.9187 55.5795 29.4841 56.2299 30.168 57.2555L33.1078 61.6613C34.212 63.313 34.9703 64.2659 35.3827 64.5199C35.6233 64.668 35.8097 64.6347 35.942 64.4199C36.2436 63.9301 36.0283 62.4998 35.2959 60.1289C34.5635 57.758 33.479 55.4487 32.0425 53.2012L31.7927 52.7986C31.5483 52.3873 31.2813 51.974 30.9919 51.5587C30.7996 51.2744 30.7028 51.0371 30.7016 50.8467C30.8061 50.6384 30.8848 50.4914 30.9377 50.4055C31.0065 50.2938 31.1269 50.1368 31.2988 49.9345C31.3887 49.9425 31.4552 49.9597 31.4981 49.9862C31.6184 50.0603 32.0919 50.6481 32.9186 51.7498L33.1694 52.0642C33.4747 52.4537 33.8563 52.979 34.3142 53.6403C34.5983 54.0641 34.8478 54.4192 35.0626 54.7055L38.4159 59.046ZM27.7754 47.2848L27.8468 47.1688L28.0918 47.0885C28.6493 48.4155 28.5312 49.7234 27.7375 51.0123C27.2983 51.7255 26.8265 52.1934 26.322 52.416C25.8228 52.6301 25.4013 52.6313 25.0576 52.4196C24.5335 52.0968 24.4355 51.6691 24.7635 51.1363C25.0175 50.7239 25.4641 50.5663 26.1034 50.6637C26.7063 50.7624 27.14 50.597 27.4046 50.1673C27.8755 49.4026 27.9991 48.4417 27.7754 47.2848Z" fill="#C73A2A"/>
<path d="M42.1318 40.917C42.0617 40.8722 42.0016 40.8526 41.9514 40.8582C41.9086 40.857 41.8689 40.8737 41.8322 40.9083C41.4505 41.2684 41.4238 42.4312 41.7522 44.3967C41.6784 44.4803 41.6231 44.5393 41.5864 44.5739C41.5424 44.6155 41.4655 44.6811 41.3558 44.7707C41.2191 44.317 41.1016 43.6925 41.0034 42.8973C40.9125 42.0951 40.9161 41.3564 41.0143 40.6811C41.1129 39.9915 41.2656 39.4035 41.4725 38.9169C41.5414 38.7547 41.6236 38.6286 41.7191 38.5386C41.7558 38.504 41.8143 38.4557 41.8946 38.3938C42.1514 38.4013 42.3455 38.4747 42.4771 38.6142C42.5602 38.7023 42.6323 38.8007 42.6934 38.9096C42.7618 39.0115 42.8532 39.1819 42.9676 39.4208C43.343 40.2598 43.6005 40.8562 43.7401 41.2101L44.6499 43.4316C44.8563 43.9445 45.0871 44.4759 45.3424 45.0258C45.3319 44.897 45.3175 44.7788 45.2992 44.6712C45.04 43.0289 44.8737 41.3822 44.8004 39.7311C44.7274 38.0657 44.8024 36.8365 45.0254 36.0435C45.1777 35.4697 45.419 35.0269 45.7493 34.7153C45.9988 34.4799 46.2591 34.3661 46.5302 34.374C46.7943 34.3745 47.0267 34.4812 47.2276 34.6941C47.3522 34.8262 47.4587 34.9685 47.5471 35.1209C47.7589 35.4483 48.0121 35.9447 48.3069 36.61C48.6016 37.2753 49.1607 38.7942 49.984 41.1668L51.2826 44.7488L51.3736 44.9335C51.4151 44.9775 51.5032 45.0193 51.6376 45.0589C51.9656 44.583 51.9658 43.3481 51.6383 41.3541L52.1001 40.9392C52.2603 41.5649 52.3846 42.4465 52.4729 43.5841C52.5332 44.4568 52.4602 45.247 52.2541 45.9549C52.1426 46.3514 51.9401 46.6882 51.6465 46.9652C51.4703 47.1314 51.3036 47.2193 51.1462 47.229C50.9889 47.2387 50.8687 47.1996 50.7856 47.1115C50.4186 46.7225 50.0379 45.944 49.6435 44.7761L47.947 39.7798L47.182 37.7337C47.0168 37.2792 46.89 36.9757 46.8016 36.8232C46.7132 36.6707 46.6102 36.5321 46.4925 36.4073C46.4024 36.3119 46.3075 36.2628 46.2076 36.2599C46.1009 36.2496 46.0071 36.2826 45.9264 36.3588C45.8089 36.4696 45.7181 36.6454 45.654 36.8862C45.4156 37.7216 45.3402 38.8402 45.428 40.2419C45.5549 42.2587 45.6963 43.6584 45.852 44.441C46.2309 46.3865 46.7331 48.2643 47.3586 50.0743C47.4644 50.3629 47.5 50.6138 47.4652 50.8269C47.3319 50.9944 47.2248 51.1162 47.1441 51.1923C47.0486 51.2824 46.8845 51.4025 46.6517 51.5528C46.567 51.5218 46.5073 51.4879 46.4727 51.4512C46.4173 51.3925 46.3293 51.2258 46.2088 50.951C45.9201 50.3215 45.3677 48.942 44.5516 46.8124L44.2439 45.979L42.1318 40.917Z" fill="#C73A2A"/>
<path d="M60.2798 24.9412L62.0156 33.4543L62.1645 34.4251C62.3936 35.7476 62.5663 36.4975 62.6826 36.6746C62.7381 36.7589 62.8037 36.7761 62.8796 36.7263C62.9302 36.693 63.0247 36.3774 63.163 35.7794C63.3014 35.1813 63.385 34.6011 63.4139 34.0388C63.4303 33.6778 63.4488 33.4302 63.4693 33.296L63.9283 33.085C63.9936 33.7907 63.9401 34.665 63.7681 35.7078C63.5904 36.7422 63.4137 37.4379 63.2377 37.795C63.0758 38.155 62.881 38.4098 62.6533 38.5594C62.2822 38.8032 61.9748 38.7396 61.7309 38.3685C61.5314 38.0649 61.3471 37.5823 61.178 36.9206C61.0173 36.2534 60.3476 32.8176 59.1687 26.6131L58.7682 26.8581C58.0007 27.3624 57.5222 28.196 57.3325 29.3591C57.1457 30.5082 57.1286 33.0732 57.2811 37.0542C57.3577 39.0083 57.2799 40.3876 57.0478 41.1921C56.8158 41.9966 56.2865 42.6704 55.46 43.2135C55.0214 43.5016 54.5812 43.6218 54.1393 43.5741C53.6835 43.5235 53.3281 43.3042 53.0732 42.9163C52.652 42.2753 52.7324 41.7637 53.3143 41.3813C53.6938 41.1319 54.1374 41.1363 54.6451 41.3944C55.0662 41.6127 55.3991 41.6415 55.6437 41.4808C56.0063 41.2425 56.275 40.8245 56.4497 40.2267C56.6189 39.6205 56.6509 37.9694 56.5457 35.2734C56.405 31.6228 56.4975 29.292 56.8233 28.2809C57.1436 27.2615 57.7886 26.4331 58.7585 25.7959C59.1633 25.5299 59.6704 25.245 60.2798 24.9412Z" fill="#C73A2A"/>
<path d="M68.2631 27.656C68.2811 28.8665 68.2702 30.2083 68.2303 31.6812L68.1634 35.2144C67.9592 35.3289 67.7916 35.4125 67.6605 35.4651C67.5387 35.5139 67.3233 35.5731 67.0142 35.6428C66.9467 35.5829 66.9035 35.5295 66.8847 35.4827C66.8133 35.3047 66.7882 33.4936 66.8093 30.0494L66.8003 26.4488C66.7865 25.791 66.788 25.3338 66.8046 25.0771C66.8267 24.6442 66.8077 24.3528 66.7476 24.203C66.6649 23.9969 66.5534 23.9221 66.4129 23.9784C65.9352 24.17 65.4893 25.2404 65.0751 27.1896C64.9759 27.2403 64.9075 27.2732 64.87 27.2882C64.8045 27.3145 64.7043 27.3493 64.5694 27.3925C64.7755 25.3854 65.4101 23.7283 66.4732 22.4212L66.7315 22.0892C66.9505 21.8492 67.2005 21.6728 67.4815 21.5601C67.6969 21.4737 67.8779 21.6131 68.0244 21.9784C68.2122 22.4467 68.2859 24.1078 68.2455 26.9618L71.0778 25.891L71.1586 25.0758C71.2885 23.7733 71.6434 22.5165 72.2231 21.3055C72.7991 20.085 73.5882 19.2738 74.5903 18.8719C75.2085 18.6239 75.8597 18.6617 76.544 18.9853C77.2245 19.2994 77.8333 20.1262 78.3705 21.4655C79.2608 23.6852 79.3969 25.8812 78.7787 28.0537C78.1605 30.2261 77.1115 31.609 75.6317 32.2026C74.6951 32.5783 73.8921 32.4872 73.2226 31.9294C72.5587 31.3585 72.0445 30.6188 71.6801 29.7103C71.3533 28.8955 71.1584 27.8266 71.0953 26.5037L70.5501 26.6898L70.0079 26.9236L69.4543 27.1293L68.7632 27.4391L68.2631 27.656ZM75.1783 19.4025C74.1012 19.8346 73.4132 21.4533 73.1141 24.2588C72.8245 27.0605 72.9877 29.2294 73.6037 30.7654C73.9456 31.6177 74.5005 31.8898 75.2685 31.5817C76.4299 31.1159 77.0757 29.4326 77.206 26.5317C77.3419 23.6177 77.1619 21.5425 76.6661 20.3062C76.5233 19.9503 76.3123 19.6816 76.0329 19.5001C75.7535 19.3186 75.4686 19.2861 75.1783 19.4025Z" fill="#C73A2A"/>
<path d="M92.6082 30.485C92.6421 30.1022 92.7063 29.7506 92.8007 29.4301C92.9065 29.1181 93.1718 28.7463 93.5963 28.3146L93.8063 28.0838L93.9783 27.9047C93.3796 27.9953 93.0501 27.8411 92.9897 27.442C92.9338 27.0728 93.3167 25.6574 94.1383 23.1959C94.4181 22.3473 94.5655 21.8709 94.5803 21.7665C94.4264 21.9633 94.0833 22.4949 93.551 23.3614L92.8279 24.4506C92.0168 25.7674 91.2474 26.7871 90.5198 27.5095C89.8023 28.2305 89.0543 28.6498 88.2761 28.7676C87.6874 28.8567 87.3538 28.6418 87.2753 28.123C87.1439 27.2549 87.4912 25.6715 88.317 23.3726L88.8084 21.9664L88.862 21.7133C88.8266 21.7493 88.5747 22.1753 88.1062 22.9912C86.7915 25.0272 85.8971 26.3669 85.4229 27.0102C84.9487 27.6535 84.3857 28.249 83.7337 28.7967C83.0802 29.3344 82.4891 29.6433 81.9603 29.7234C81.7607 29.7535 81.5576 29.6924 81.3508 29.54C81.144 29.3876 81.018 29.1617 80.9727 28.8624C80.8051 27.7549 81.4736 25.4952 82.978 22.0832L83.5474 20.7876C83.8469 20.0687 84.0598 19.5874 84.1862 19.3438C84.6496 18.4266 84.8715 17.9031 84.8518 17.7734C84.8398 17.6936 84.7988 17.6589 84.729 17.6695C84.6192 17.6861 84.2932 17.96 83.751 18.4911L83.5896 18.638C83.1889 19.0252 82.6919 19.5852 82.0985 20.318L81.6165 20.2685C81.8551 19.62 82.4628 18.8136 83.4396 17.8493C84.4148 16.875 85.3963 16.3132 86.3841 16.1637C86.6136 16.129 86.803 16.1666 86.9523 16.2767C86.978 16.4463 86.8558 16.8527 86.5857 17.4957L84.7241 21.9874C83.2407 25.539 82.5383 27.5743 82.6168 28.0931C82.6561 28.3525 82.7954 28.4641 83.0349 28.4279C83.7034 28.3267 85.0662 26.6763 87.1233 23.4767C89.1805 20.2771 90.5312 17.6029 91.1756 15.4539C91.3183 15.4527 91.5842 15.4227 91.9733 15.3638C92.3824 15.3019 92.6783 15.2674 92.8609 15.2601C92.8421 15.4059 92.7653 15.6063 92.6304 15.8615C92.383 16.3173 91.7499 17.9338 90.7311 20.711C89.7207 23.4766 89.1538 25.1596 89.0304 25.7601C88.9054 26.3505 88.8565 26.7355 88.8837 26.9151C88.9411 27.2943 89.0995 27.4642 89.3589 27.425C89.4886 27.4053 89.7287 27.272 90.0791 27.0251C90.4281 26.7682 91.1927 25.7849 92.3731 24.0754C93.5519 22.3559 94.3815 21.0261 94.8618 20.0859C95.3521 19.1442 96.1169 17.3189 97.1562 14.6101C97.3273 14.5945 97.4528 14.5806 97.5326 14.5685L98.1014 14.4824C98.1512 14.4749 98.2333 14.4778 98.3476 14.4911C98.4026 14.5848 98.4331 14.6517 98.4392 14.6916C98.4498 14.7614 98.4138 14.8944 98.3312 15.0906C98.2949 15.188 98.2368 15.4111 98.1569 15.76C98.0701 16.1303 97.8814 16.7049 97.5911 17.4837C96.7432 19.7042 96.0515 21.7429 95.516 23.5998C95.3883 24.0376 95.2151 24.5792 94.9964 25.2247C94.8031 25.8357 94.711 26.1711 94.7201 26.2309C94.7397 26.3607 94.8243 26.4142 94.974 26.3915C95.2434 26.3508 95.6224 26.023 96.1111 25.4081C96.6098 24.7917 96.9744 24.2671 97.2048 23.8341C97.292 23.6679 97.3686 23.5338 97.4349 23.4319C97.6259 23.4132 97.8185 23.4045 98.0126 23.4057C97.4104 24.9563 96.3466 26.3573 94.8214 27.6087C94.5039 27.8711 94.3253 28.1074 94.2857 28.3175C94.2475 28.5376 94.2072 29.1816 94.1647 30.2494C94.134 30.8562 93.9852 31.3227 93.7182 31.6489C93.4611 31.9735 92.812 32.4392 91.771 33.0458L91.5339 32.5918C91.9826 32.3198 92.2647 32.0934 92.3802 31.9126C92.4958 31.7318 92.5717 31.2559 92.6082 30.485Z" fill="#C73A2A"/>
<path d="M113.178 22.3783C113.467 22.4923 113.665 22.6388 113.771 22.8176C113.879 22.9865 114.077 23.5461 114.365 24.4964C114.835 26.0855 115.116 26.948 115.208 27.084C115.3 27.22 115.476 27.4448 115.736 27.7585C116.005 28.0737 116.556 28.3537 117.387 28.5986C117.413 28.6943 117.422 28.7721 117.413 28.832C117.405 28.8919 117.39 28.9561 117.37 29.0245L117.128 29.0042C117.038 28.9909 116.915 28.9625 116.758 28.919C116.365 28.8202 116.009 28.7423 115.691 28.6852C114.934 28.5634 114.395 28.4483 114.074 28.3398C113.481 26.8958 112.971 25.3058 112.543 23.57C112.448 23.1785 112.319 22.9146 112.155 22.7783C112.003 22.6335 111.677 22.5243 111.178 22.4507C109.954 24.596 109.18 25.9047 108.855 26.3771C108.597 26.747 108.438 26.9939 108.379 27.1178C108.271 27.3671 108.171 27.5257 108.079 27.5938C107.996 27.6734 107.755 27.6837 107.355 27.6249C107.226 27.6057 107.035 27.5521 106.782 27.4639C106.753 27.3881 106.742 27.3203 106.751 27.2604C106.775 27.1007 107.254 26.238 108.188 24.6723C110.825 20.2771 112.177 17.8549 112.243 17.4056C112.262 17.2758 112.212 17.2021 112.092 17.1845C111.593 17.1109 110.679 17.8125 109.349 19.2894C109.238 19.2832 109.162 19.2771 109.122 19.2712C109.052 19.2609 108.949 19.2355 108.812 19.1949C109.605 18.1082 110.529 17.2396 111.583 16.5892C112.638 15.9389 113.425 15.652 113.944 15.7285C114.253 15.7741 114.381 15.9816 114.326 16.351C114.266 16.7603 113.326 18.57 111.507 21.78L111.896 21.8374C112.645 21.9478 113.141 21.9343 113.386 21.797C113.641 21.6611 113.935 21.3627 114.268 20.9018C115.721 18.8618 116.834 17.608 117.607 17.1405C118.389 16.6745 119.115 16.4908 119.784 16.5894C120.283 16.6629 120.663 16.8566 120.923 17.1703C121.184 17.474 121.283 17.8405 121.219 18.2698C121.166 18.6292 121.005 18.891 120.736 19.0554C120.467 19.2197 120.198 19.282 119.929 19.2423C119.449 19.1717 119.14 18.8456 119.002 18.2642C118.929 17.9271 118.798 17.7445 118.608 17.7165C118.169 17.6518 117.673 17.8694 117.12 18.3692C116.567 18.8691 115.777 19.8339 114.75 21.2636C114.239 21.9635 113.715 22.335 113.178 22.3783Z" fill="#C73A2A"/>
<path d="M110.298 34.3978C110.681 34.4223 111.172 34.491 111.771 34.604C112.079 34.6683 112.299 34.7103 112.43 34.7301C112.596 34.7397 112.749 34.7559 112.89 34.7787C113.043 34.763 113.159 34.7304 113.238 34.681C113.383 34.5889 113.593 34.3742 113.867 34.037L116.47 30.7265C116.826 30.2984 117.188 29.8142 117.557 29.2741C117.79 28.9345 118.03 28.6075 118.276 28.2932C118.532 27.9819 118.686 27.7762 118.738 27.6763C118.865 27.4727 118.963 27.3288 119.031 27.2445L121.543 23.9215C121.636 23.792 122.328 22.8451 123.619 21.0808C124.007 20.5467 124.377 20.0065 124.727 19.4604C124.007 19.3626 123.368 19.311 122.809 19.3058C122.694 19.3017 122.531 19.2984 122.32 19.2961C121.919 19.3294 121.675 19.3325 121.588 19.3054C121.511 19.2814 121.401 19.2101 121.258 19.0915L121.279 18.9236C121.321 18.7887 121.434 18.6972 121.619 18.6489C122.184 18.4976 123.406 18.5092 125.286 18.6836C126.125 17.6238 126.659 16.8922 126.891 16.4887C127.216 15.9558 127.504 15.6072 127.757 15.4427C127.878 15.4596 128.002 15.4875 128.127 15.5266C128.262 15.5687 128.461 15.6414 128.725 15.7449C128.834 15.9694 128.873 16.1346 128.84 16.2406L128.719 16.4248C128.684 16.467 128.553 16.669 128.323 17.0309C128.196 17.2344 128.019 17.4804 127.792 17.7688C127.34 18.3361 127.046 18.7199 126.909 18.9205C127.342 19.0238 127.631 19.0981 127.775 19.1432C127.929 19.1913 128.158 19.273 128.46 19.3885L128.532 19.411C129.043 19.5704 129.535 19.8721 130.01 20.3161C130.67 20.945 131.076 21.6425 131.228 22.4088C131.383 23.1654 131.326 23.9724 131.059 24.8297C130.857 25.4751 130.517 26.1248 130.038 26.7788C129.559 27.4327 128.946 28.0605 128.198 28.6622C127.45 29.2639 126.667 29.7226 125.85 30.0384C125.035 30.3445 124.346 30.5046 123.781 30.5187C122.509 30.5655 121.689 30.5318 121.323 30.4176C121.054 30.3334 120.762 30.2002 120.449 30.0179C120.136 29.8356 119.806 29.6058 119.459 29.3284C118.83 29.9885 117.668 31.4599 115.973 33.7427C115.64 34.1991 115.383 34.5312 115.202 34.739C115.018 34.9564 114.905 35.1325 114.863 35.2673L114.836 35.4019L114.955 35.5815C115.191 35.7398 115.484 35.8841 115.835 36.0146C116.195 36.1481 116.502 36.281 116.757 36.4134C116.793 36.4669 116.845 36.5202 116.913 36.5732L116.913 36.8269C116.898 36.8751 116.857 36.9205 116.791 36.9633C116.421 36.8268 116.135 36.727 115.933 36.6638C115.798 36.6217 115.686 36.592 115.596 36.5746L115.245 36.4808L112.618 35.55C112.146 35.4027 111.766 35.3158 111.478 35.2894C111.147 35.165 110.861 35.0651 110.62 34.99L110.086 34.8232L110.103 34.7175C110.13 34.6308 110.195 34.5242 110.298 34.3978ZM125.12 29.1763C126.322 28.4733 127.271 27.6699 127.965 26.766C128.672 25.8556 129.146 25.015 129.386 24.2444C129.54 23.7531 129.627 23.2359 129.649 22.6929C129.665 22.4022 129.601 22.1178 129.455 21.8397C129.253 21.4382 129.031 21.1313 128.791 20.9189C128.392 20.5723 127.831 20.2863 127.108 20.0608C126.887 19.9917 126.617 19.9235 126.3 19.8562C125.045 21.6422 124.039 23.0196 123.282 23.9885L121.005 27.0677C120.822 27.317 120.67 27.5656 120.55 27.8137C120.479 27.9396 120.42 28.0795 120.372 28.2337C120.269 28.5612 120.287 28.8258 120.425 29.0274C120.645 29.3391 121.01 29.5746 121.521 29.734C121.983 29.8783 122.455 29.925 122.936 29.8743C123.308 29.832 124.036 29.5993 125.12 29.1763Z" fill="#C73A2A"/>
<path d="M134.054 29.7129C135.753 29.3944 136.883 29.2376 137.443 29.2425C138.016 29.2434 138.529 29.3665 138.981 29.6117C139.558 29.9243 139.895 30.3712 139.994 30.9524C140.097 31.5248 139.999 32.086 139.701 32.636C139.393 33.2038 138.908 33.7386 138.246 34.2405C137.588 34.7335 136.673 35.0351 135.5 35.1453C134.327 35.2555 133.141 34.986 131.944 34.3369C130.258 33.4232 129.745 32.3586 130.403 31.1432C130.697 30.602 131.444 29.8591 132.645 28.9145C133.85 27.961 135.018 27.1079 136.15 26.3551C137.244 25.6282 137.844 25.1671 137.95 24.9719C138.055 24.7768 138.011 24.6263 137.815 24.5205C137.434 24.3137 136.343 24.4628 134.543 24.9676L134.397 24.4751C135.913 23.9654 137.014 23.6903 137.702 23.6498C138.403 23.6053 138.958 23.6936 139.366 23.9148C139.969 24.2418 140.124 24.6759 139.831 25.217C139.605 25.634 138.877 26.2782 137.647 27.1496L135.698 28.5549C135.063 29.0261 134.516 29.4121 134.054 29.7129ZM132.727 30.7324C132.298 30.9937 131.968 31.3372 131.738 31.7631C131.502 32.1978 131.468 32.6211 131.635 33.033C131.806 33.436 132.096 33.7481 132.504 33.9693C133.347 34.4262 134.419 34.3871 135.719 33.8521C137.028 33.322 137.901 32.6532 138.339 31.8459C138.723 31.1362 138.556 30.5866 137.838 30.197C137.35 29.9326 136.488 29.9018 135.253 30.1048C134.027 30.3126 133.185 30.5218 132.727 30.7324ZM147.439 29.668C146.646 29.4792 145.535 29.6343 144.105 30.1334L143.314 29.877C144.288 29.3718 145.366 29.0779 146.547 28.995C147.733 28.9033 148.601 29.0065 149.151 29.3047C149.311 29.3912 149.411 29.5142 149.45 29.6735C149.504 29.8288 149.488 29.9863 149.401 30.146C149.348 30.2436 149.282 30.334 149.202 30.4171C149.132 30.5051 148.82 30.795 148.266 31.287C147.945 31.5608 146.81 32.3744 144.86 33.7278L141.011 36.2217C140.683 36.4456 140.461 36.6121 140.345 36.7211C140.237 36.835 140.13 36.9895 140.025 37.1846C140.044 37.2756 140.085 37.3379 140.147 37.3716C140.44 37.5303 140.839 37.5457 141.344 37.4179C142.651 37.1044 143.596 36.7677 144.182 36.4078C144.342 36.4943 144.507 36.6014 144.679 36.729C144.181 37.0557 143.508 37.3857 142.662 37.7189C141.824 38.0569 141.044 38.2366 140.321 38.2578C139.607 38.2839 139.059 38.1935 138.677 37.9867C138.438 37.8569 138.279 37.6846 138.2 37.4697C138.125 37.2686 138.129 37.0926 138.211 36.9418C138.615 36.1966 139.82 35.1798 141.827 33.8916C144.225 32.368 145.734 31.3839 146.354 30.9393C146.641 30.7275 146.854 30.5788 146.992 30.493C147.227 30.3563 147.368 30.2436 147.416 30.1549C147.459 30.075 147.467 29.9127 147.439 29.668Z" fill="#C73A2A"/>
<path d="M156.01 35.5865C155.754 35.2217 155.288 34.6683 154.611 33.9263C154.651 33.867 154.684 33.8223 154.711 33.7922C154.752 33.7471 154.839 33.7173 154.974 33.7028C155.099 33.7603 155.184 33.8093 155.229 33.8497C155.251 33.8699 155.278 33.9006 155.309 33.9418C155.637 34.3312 156.061 34.7583 156.579 35.2231C156.617 35.2568 156.766 35.3702 157.027 35.5632L157.43 35.8842C157.505 35.9515 157.581 36.0403 157.659 36.1504C157.655 36.2149 157.647 36.2547 157.633 36.2697L153.482 42.1024C152.665 43.2403 152.106 43.9926 151.804 44.3592C152.42 44.1255 154.072 43.8103 156.758 43.4136L158.47 43.1594C159.808 42.922 161.775 42.6324 164.372 42.2907L165.605 43.4775L155.378 48.5591L155.097 48.7138C154.986 48.777 154.913 48.8274 154.88 48.8649C154.819 48.9326 154.823 48.9967 154.89 49.0573C155.101 49.2459 155.888 49.2136 157.254 48.9605C157.869 48.8483 158.245 48.7849 158.38 48.7704L158.691 49.1715C157.778 49.4643 156.716 49.6508 155.506 49.7312C154.31 49.8107 153.482 49.6451 153.024 49.2342C152.671 48.9176 152.659 48.5752 152.989 48.207C153.138 48.0417 153.367 47.8613 153.678 47.6656C153.989 47.47 155.608 46.6921 158.535 45.3318C161.462 43.9715 163.265 43.1621 163.944 42.9035C155.727 44.1022 150.883 45.024 149.41 45.6689L149.183 45.4455C149.386 45.2201 149.629 44.9031 149.914 44.4945C150.092 44.2203 150.497 43.6551 151.129 42.7988C153.072 40.1631 154.505 38.0733 155.429 36.5293C151.566 38.691 148.817 40.1094 147.182 40.7846C145.554 41.4666 144.214 41.336 143.162 40.393C142.749 40.0225 142.509 39.6175 142.442 39.1781C142.382 38.7312 142.507 38.3349 142.817 37.9893C143.329 37.4182 143.836 37.3584 144.34 37.8097C144.693 38.1263 144.81 38.563 144.69 39.1198C144.621 39.4237 144.596 39.6323 144.617 39.7455C144.637 39.8587 144.734 39.9928 144.907 40.1477C145.328 40.5249 145.875 40.6023 146.549 40.3797C147.229 40.1496 148.459 39.5644 150.237 38.6242L151.958 37.7478C153.468 37.0008 154.818 36.2804 156.01 35.5865Z" fill="#C73A2A"/>
<path d="M169.291 53.1073C169.293 52.9135 169.309 52.7537 169.338 52.6278C169.363 52.5445 169.454 52.3508 169.613 52.0465C169.78 51.736 169.87 51.5312 169.881 51.432C169.894 51.2682 169.86 51.1347 169.779 51.0315C169.561 50.7537 169.157 50.5899 168.566 50.5402C167.478 50.4449 165.975 50.6625 164.056 51.193C162.144 51.7315 160.712 52.3745 159.759 53.1221C159.402 53.4024 159.192 53.6502 159.131 53.8656C159.09 54.026 159.128 54.1816 159.247 54.3324C159.49 54.642 159.924 54.8525 160.551 54.964C161.388 55.1152 162.406 55.1374 163.604 55.0304C163.754 55.1563 163.861 55.259 163.923 55.3384L164.051 55.5263C163.883 55.6067 163.332 55.6803 162.397 55.7472C161.056 55.8371 160.015 55.7691 159.273 55.543C158.539 55.3108 158.007 54.9843 157.677 54.5636C157.391 54.1984 157.3 53.8138 157.407 53.4097C157.542 52.8799 157.98 52.3253 158.718 51.7459C159.353 51.2475 160.245 50.7909 161.395 50.3762C162.551 49.9693 163.787 49.7303 165.104 49.6591C166.42 49.5879 167.408 49.5956 168.066 49.6821C168.738 49.7704 169.42 49.9856 170.112 50.3278C170.587 50.5576 170.952 50.8352 171.208 51.1607C171.47 51.4941 171.553 51.9031 171.459 52.3877C171.379 52.8739 171.144 53.2697 170.755 53.5749C170.517 53.7618 170.28 53.8447 170.046 53.8236C169.825 53.8042 169.65 53.7111 169.519 53.5444C169.438 53.4412 169.362 53.2955 169.291 53.1073Z" fill="#C73A2A"/>
<path d="M169.66 60.9526C169.753 61.2492 169.764 61.495 169.691 61.6901C169.628 61.88 169.317 62.3858 168.759 63.2075C167.819 64.5718 167.325 65.3325 167.277 65.4897C167.229 65.6468 167.165 65.925 167.084 66.3243C167.009 66.7322 167.137 67.3362 167.469 68.1363C167.412 68.2172 167.357 68.2731 167.304 68.3039C167.252 68.3347 167.193 68.3637 167.127 68.391L166.991 68.1901C166.945 68.1119 166.889 67.9982 166.825 67.8489C166.654 67.4809 166.491 67.1552 166.336 66.8721C165.954 66.2066 165.705 65.7151 165.588 65.3976C166.338 64.0286 167.253 62.6322 168.334 61.2083C168.579 60.8881 168.703 60.6215 168.706 60.4087C168.723 60.1994 168.603 59.8775 168.346 59.4431C165.909 59.8401 164.404 60.0609 163.833 60.1054C163.382 60.1369 163.091 60.1687 162.957 60.2007C162.695 60.2733 162.509 60.2954 162.399 60.2669C162.284 60.2523 162.125 60.0712 161.919 59.7237C161.853 59.6107 161.774 59.4285 161.684 59.1769C161.725 59.1063 161.771 59.0555 161.823 59.0247C161.962 58.9426 162.934 58.7727 164.739 58.5151C169.815 57.8021 172.548 57.3302 172.939 57.0992C173.052 57.0325 173.078 56.947 173.016 56.8427C172.76 56.4083 171.639 56.1384 169.655 56.0332C169.59 55.9427 169.547 55.8801 169.526 55.8454C169.49 55.7846 169.445 55.6882 169.391 55.5563C170.734 55.4893 171.99 55.6615 173.159 56.0727C174.328 56.4839 175.046 56.9154 175.313 57.3672C175.472 57.6366 175.391 57.8662 175.069 58.0561C174.713 58.2665 172.715 58.6734 169.074 59.2768L169.275 59.6156C169.659 60.2672 169.982 60.645 170.243 60.7489C170.509 60.8615 170.925 60.9024 171.493 60.8717C173.993 60.7191 175.668 60.7964 176.518 61.1033C177.372 61.4189 177.971 61.8678 178.315 62.4499C178.572 62.8843 178.66 63.3012 178.579 63.7004C178.507 64.0945 178.285 64.4019 177.911 64.6226C177.598 64.8074 177.293 64.8468 176.996 64.741C176.699 64.6351 176.482 64.4649 176.343 64.2303C176.097 63.8132 176.156 63.368 176.521 62.8946C176.737 62.6261 176.797 62.4093 176.699 62.2442C176.473 61.8619 175.992 61.6129 175.256 61.4971C174.519 61.3813 173.272 61.3736 171.515 61.4741C170.65 61.5166 170.031 61.3428 169.66 60.9526Z" fill="#C73A2A"/>
<path d="M172.167 76.3494C172.053 76.4475 172.015 76.5437 172.051 76.6377C172.241 77.1269 173.308 77.5895 175.253 78.0256C175.299 78.116 175.331 78.1847 175.349 78.2318C175.374 78.2976 175.403 78.4 175.436 78.539C173.44 78.3067 171.795 77.6517 170.5 76.574L170.336 76.443C170.04 76.2113 169.854 75.9967 169.777 75.7992C169.671 75.5263 169.807 75.3169 170.183 75.1709C170.55 75.0285 172.065 74.971 174.727 74.9984L175.45 74.9777C176.066 74.9765 176.644 74.9581 177.182 74.9224L176.837 74.8289C171.393 73.5754 168.377 72.1914 167.789 70.6768C167.526 69.9995 167.705 69.5403 168.326 69.2993C168.693 69.1569 169.291 69.0656 170.12 69.0254C170.961 68.991 173.056 69.0603 176.403 69.2334L179.148 69.3207C179.261 69.3313 179.336 69.3292 179.373 69.3146C179.43 69.2927 179.495 69.224 179.569 69.1086C179.261 68.622 178.124 68.1596 176.157 67.7214L175.946 67.1374C177.092 67.2991 178.209 67.6123 179.299 68.077C180.398 68.5381 181.084 69.1214 181.358 69.827C181.533 70.2785 181.466 70.5645 181.155 70.685C180.666 70.8749 179.806 70.9326 178.576 70.8581L173.289 70.5394C171.306 70.4216 170.088 70.4503 169.637 70.6255C169.373 70.7278 169.287 70.8965 169.378 71.1317C169.586 71.6679 170.856 72.3603 173.188 73.2088C175.52 74.0574 178.016 74.5881 180.674 74.801L181.146 74.8452C181.622 74.8988 182.112 74.9357 182.618 74.9559C182.961 74.9744 183.208 75.0407 183.361 75.1547C183.464 75.3637 183.533 75.5153 183.57 75.6094C183.617 75.7317 183.67 75.9224 183.727 76.1816C183.666 76.2485 183.612 76.291 183.565 76.3093C183.434 76.3604 182.679 76.3826 181.302 76.3759L180.9 76.3858C180.405 76.3939 179.756 76.3806 178.952 76.3461C178.443 76.3165 178.009 76.3008 177.651 76.299L172.167 76.3494Z" fill="#C73A2A"/>
<path d="M175.268 88.6861C175.139 88.7636 175.085 88.8518 175.105 88.9507C175.209 89.465 176.183 90.1018 178.025 90.861C178.055 90.9579 178.075 91.0311 178.085 91.0805C178.099 91.1498 178.11 91.2556 178.118 91.3981C176.191 90.831 174.681 89.9067 173.587 88.6251L173.447 88.4681C173.195 88.1897 173.048 87.9466 173.006 87.7389C172.948 87.4521 173.117 87.2686 173.512 87.1885C173.898 87.1103 175.401 87.3103 178.02 87.7885L178.736 87.8906C179.344 87.994 179.916 88.0737 180.452 88.1297L180.128 87.9791C174.975 85.8212 172.238 83.9461 171.915 82.3538C171.771 81.6417 172.025 81.2195 172.678 81.0872C173.063 81.0091 173.668 81.0204 174.491 81.1212C175.327 81.2299 177.379 81.6532 180.649 82.391L183.339 82.9422C183.448 82.9716 183.523 82.9823 183.562 82.9743C183.622 82.9623 183.698 82.9057 183.79 82.8045C183.569 82.2727 182.527 81.6243 180.662 80.8591L180.554 80.2479C181.655 80.6013 182.703 81.0994 183.699 81.742C184.704 82.3826 185.281 83.0738 185.432 83.8156C185.528 84.2903 185.413 84.5608 185.086 84.6269C184.572 84.7311 183.715 84.6423 182.515 84.3603L177.358 83.1504C175.424 82.6981 174.219 82.5201 173.744 82.6163C173.467 82.6724 173.354 82.8241 173.404 83.0713C173.518 83.6351 174.653 84.5327 176.807 85.7641C178.961 86.9955 181.331 87.9414 183.915 88.6018L184.372 88.7253C184.832 88.8587 185.309 88.9783 185.804 89.0839C186.139 89.1602 186.372 89.2675 186.503 89.4057C186.568 89.6291 186.611 89.7903 186.631 89.8892C186.657 90.0178 186.677 90.2146 186.689 90.4798C186.618 90.5354 186.558 90.5682 186.508 90.5782C186.37 90.6063 185.623 90.5003 184.266 90.2603L183.868 90.202C183.379 90.126 182.742 90.003 181.956 89.8328C181.459 89.7173 181.034 89.6283 180.682 89.5659L175.268 88.6861ZM191.073 90.0086L191.1 90.1421L190.976 90.368C189.662 89.7796 188.855 88.7436 188.554 87.2601C188.388 86.4392 188.413 85.7752 188.629 85.268C188.848 84.7707 189.155 84.482 189.55 84.4018C190.154 84.2796 190.518 84.525 190.642 85.1382C190.738 85.613 190.519 86.0331 189.986 86.3986C189.478 86.7383 189.274 87.1554 189.375 87.6499C189.553 88.5301 190.119 89.3163 191.073 90.0086Z" fill="#C73A2A"/>
</svg>
