<svg width="554" height="94" viewBox="0 0 554 94" fill="none" xmlns="http://www.w3.org/2000/svg">
<path d="M151.599 91.2739L151.597 92.6644M151.597 92.6644L166.2 91.2998L181.243 76.4482L183.621 68.6656L181.274 59.067L171.995 38.3322L158.682 17.7293L151.752 5.06346L147.144 16.0402L142.82 23.6802L126.38 42.0056L116.072 51.9989L120.35 70.361L121.73 76.3426L131.72 88.8748L134.218 91.243L151.597 92.6644ZM260.39 79.2647L257.3 83.9959C257.071 84.3475 256.736 84.6179 256.344 84.7688L252.93 86.0837C252.701 86.1721 252.457 86.2174 252.211 86.2174H241.328C240.797 86.2174 240.288 86.0063 239.912 85.6306L239.704 85.4215C239.163 84.8802 238.979 84.0779 239.229 83.3548L241.61 76.4671C241.759 76.0337 241.756 75.562 241.599 75.131L240.785 72.8893C240.602 72.3843 240.223 71.9743 239.734 71.7517L237.151 70.5761C236.923 70.4723 236.716 70.3266 236.542 70.1465L226.399 59.6627L219.477 54.2168C218.325 53.3103 218.508 51.513 219.819 50.8566L220.686 50.4223C220.912 50.3091 221.158 50.2398 221.41 50.2181L240.498 48.5703H249.281C250.065 48.5703 250.777 48.1115 251.102 47.397L253.846 41.3521C253.899 41.2345 253.964 41.1224 254.039 41.0173L258.961 34.1165L273.476 11.8317C273.845 11.265 274.475 10.9232 275.151 10.9232H275.797C276.745 10.9232 277.563 11.5882 277.756 12.5158L284.096 42.9906C284.124 43.1246 284.138 43.2611 284.138 43.398V52.2846C284.138 53.3892 285.033 54.2846 286.138 54.2846H289.492C289.725 54.2846 289.957 54.3254 290.176 54.4053L308.434 61.0534C309.946 61.6039 310.222 63.6235 308.914 64.5595L293.723 75.4239C293.384 75.6667 292.977 75.7972 292.56 75.7972H291.022C290.295 75.7972 289.626 76.1914 289.273 76.8269L288.827 77.6318C288.458 78.2959 288.682 79.1325 289.333 79.5236C289.66 79.72 289.894 80.0404 289.98 80.4118L291.691 87.7522C291.96 88.9083 291.169 90.0432 289.991 90.1906L284.897 90.8282C284.408 90.8894 283.914 90.768 283.509 90.4874L280.288 88.2544C279.953 88.0223 279.556 87.898 279.149 87.898H276.972C276.609 87.898 276.253 87.9968 275.942 88.1836L274.427 89.0938C273.627 89.5742 272.602 89.4381 271.955 88.7658L264.646 81.165C264.439 80.9505 264.284 80.6927 264.19 80.4104L263.962 79.7265C263.433 78.1386 261.305 77.8634 260.39 79.2647ZM39.0901 83.6234L37.4805 86.8837C37.2494 87.3518 36.8444 87.711 36.352 87.8846L33.5584 88.8691C33.3298 88.9497 33.0885 88.988 32.8462 88.9823L27.071 88.8454C26.7773 88.8384 26.4887 88.7668 26.2258 88.6357L16.3339 83.7023C16.2256 83.6483 16.1225 83.5846 16.0258 83.512L11.3747 80.0204C10.8321 79.6131 10.533 78.9586 10.5802 78.2818L10.7188 76.2954C10.7545 75.784 10.5925 75.2785 10.2662 74.8831L7.44061 71.4596C7.24149 71.2184 7.10174 70.9338 7.03259 70.6287L4.19442 58.1073L1.96801 49.9293C1.92295 49.7638 1.89938 49.5933 1.89785 49.4217L1.86971 46.2589C1.8658 45.8198 2.00653 45.3916 2.27017 45.0404L3.05318 43.9973C3.57703 43.2995 4.49281 43.0219 5.31598 43.3113L6.1501 43.6045C6.97326 43.8939 7.88904 43.6162 8.41289 42.9184L9.1776 41.8998C9.30666 41.7279 9.40716 41.5363 9.47522 41.3324L10.2318 39.0662C10.4166 38.5124 10.8343 38.067 11.3751 37.847L11.5428 37.7787C12.1935 37.514 12.9354 37.61 13.4972 38.0317L14.2763 38.6166C14.7284 38.956 15.2814 38.7188 15.1231 38.1761C14.8976 37.4034 14.414 36.5258 14.036 35.9373C13.9198 35.7564 13.7687 35.6015 13.5968 35.4724L12.0924 34.3431C11.4073 33.8288 11.1258 32.9352 11.3925 32.1211L14.1804 23.6102C14.2485 23.4023 14.3502 23.207 14.4815 23.0321L18.0398 18.2921C18.3583 17.8679 18.832 17.5898 19.3553 17.5031C21.0746 17.2184 23.5469 16.698 23.9383 16.1766C24.5131 15.4108 26.4282 15.4117 28.4578 16.2169C29.9722 16.8178 30.9814 19.7754 31.3687 21.4657C31.4208 21.6933 31.5048 21.9123 31.6261 22.1118L32.9392 24.2712C33.0125 24.3917 33.1082 24.4972 33.221 24.582C34.0658 25.2162 35.235 24.4226 34.9576 23.4033L34.6598 22.3096L34.461 20.9136C34.4409 20.7721 34.4359 20.629 34.4463 20.4865L34.5898 18.5134C34.6319 17.9347 35.0717 17.4636 35.6461 17.3818C36.3964 17.275 36.8738 16.523 36.6512 15.7986L35.6578 12.5649C35.5835 12.3228 35.5557 12.0689 35.5761 11.8165L35.8453 8.48578C35.8757 8.10896 36.012 7.74893 36.239 7.4466L40.2642 2.08462C40.6258 1.60298 41.1845 1.30722 41.7867 1.30398C43.2661 1.296 45.3984 1.37815 46.504 1.74726C48.2273 2.32255 51.827 3.5881 52.2479 4.62242C52.6687 5.65673 51.7876 6.19255 53.5864 9.21914C54.8334 11.3173 54.2148 13.2978 53.5703 14.3287C53.3958 14.6078 53.2413 14.9027 53.1722 15.2245L52.7766 17.0664C52.7271 17.2971 52.7136 17.5359 52.7684 17.7654C52.9298 18.441 53.3033 19.1657 53.927 18.3349C54.8467 17.1097 58.1024 16.9197 58.3701 17.839C58.6378 18.7584 60.1316 18.6824 61.5477 20.9428C62.9638 23.2032 67.7115 26.7673 69.2431 27.9171C70.4683 28.8368 73.5285 37.5198 74.9054 41.7463L76.7018 46.5547C76.828 46.8926 76.8611 47.2581 76.7934 47.6124C76.6416 48.4068 76.4122 49.5426 76.2421 50.1731C76.0273 50.9696 73.4934 58.7257 72.2533 62.5042L70.1556 69.1425C70.0474 69.4848 69.8491 69.7917 69.5815 70.031L60.5262 78.1257L56.011 81.4553C55.8047 81.6074 55.5711 81.7184 55.3229 81.7824L49.9838 83.1576C49.836 83.1957 49.6843 83.2167 49.5316 83.2203L42.2313 83.3908C41.8988 83.3986 41.5734 83.2943 41.3075 83.0946C40.5658 82.5378 39.5007 82.7919 39.0901 83.6234ZM384.563 72.1234L378.189 81.0453L371.442 86.534L362.342 87.78L356.368 86.9229C355.705 83.945 354.184 77.7509 353.409 76.7983L348.136 70.3151L345.965 65.4848L344.243 63.3678L342.652 57.6272L339.961 54.3194L345.271 52.1986L352.019 46.7098L360.399 45.3898L362.631 41.3761L363.38 35.2702L364.421 32.2251L370.655 25.8349L374.921 19.727L386.432 10.3638L389.143 6.39949L391.063 6.59699L396.121 12.8156L399.904 16.1144L405.161 23.9296L408.89 33.6484L408.918 40.4406L409.028 44.089L417.551 47.2694L424.064 52.3042L428.302 55.8924L425.236 62.1237L423.029 65.8974L413.9 73.3234L415.319 80.7436L416.191 86.4102L409.838 88.06L399.653 86.8908L394.034 83.7667L389.067 79.0124L387.254 75.4311L386.458 72.5608L384.563 72.1234ZM504.458 67.4919L506.34 70.4278L506.375 73.5695L500.52 78.8111L498.727 83.637L493.983 89.0508L490.41 83.7313L473.205 82.2631L464.853 79.2157L467.867 67.9071L472.985 62.8586L477.575 60.219L479.218 58.3521C478.657 57.804 477.532 56.412 477.519 55.2293C477.505 54.0465 474.402 52.061 472.853 51.216L470.223 47.5493L470.123 38.6787L467.399 26.6958L467.339 21.3365C467.333 20.893 473.895 23.6649 477.177 25.1063C478.709 24.3496 482.372 23.5687 484.771 26.4987C487.17 29.4287 491.515 34.4314 493.387 36.5665L498.117 29.859L499.845 19.3043L501.846 16.5091L511.549 8.26666L520.18 3.36322L520.235 8.16812L526.291 20.6677L523.974 28.2719L520.61 41.248L526.524 41.1809L531.108 37.9868L532.914 34.2698L538.07 32.5479L548.049 32.4346L552.47 31.0907L550.179 40.9126L548.211 46.6645L544.741 50.4004L540.778 59.502L533.256 64.3928L538.495 70.063L540.992 78.352L543.51 88.4889L538.726 90.3915L524.66 88.7028C522.314 88.2981 517.288 87.3447 515.951 86.7684C514.614 86.1922 510.318 84.368 508.336 83.5279L506.434 78.744L508.251 75.951L508.188 70.4069L504.458 67.4919Z" stroke="#C73A2A" stroke-width="2"/>
</svg>
