<svg width="720" height="687" viewBox="0 0 720 687" fill="none" xmlns="http://www.w3.org/2000/svg">
<path d="M690.652 380.875C686.691 380.653 683.4 376.914 683.665 372.185C683.931 367.457 687.619 364.109 691.58 364.331C695.541 364.553 698.832 368.293 698.566 373.021C698.301 377.75 694.613 381.097 690.652 380.875Z" stroke="#C73A2A" stroke-width="4"/>
<path d="M684.248 424.416C680.349 423.679 677.575 419.542 678.456 414.889C679.337 410.235 683.43 407.398 687.329 408.136C691.227 408.873 694.001 413.01 693.12 417.664C692.239 422.317 688.146 425.154 684.248 424.416Z" stroke="#C73A2A" stroke-width="4"/>
<path d="M672.039 467.019C668.273 465.768 666.075 461.299 667.568 456.804C669.061 452.31 673.496 450.043 677.261 451.293C681.027 452.544 683.224 457.014 681.732 461.508C680.239 466.003 675.804 468.269 672.039 467.019Z" stroke="#C73A2A" stroke-width="4"/>
<path d="M654.062 507.919C650.5 506.171 648.926 501.446 651.012 497.194C653.099 492.942 657.799 491.296 661.361 493.043C664.923 494.791 666.497 499.517 664.411 503.768C662.324 508.02 657.624 509.667 654.062 507.919Z" stroke="#C73A2A" stroke-width="4"/>
<path d="M630.927 545.767C627.629 543.561 626.698 538.668 629.332 534.732C631.965 530.795 636.843 529.789 640.141 531.995C643.438 534.201 644.369 539.094 641.736 543.03C639.103 546.966 634.225 547.973 630.927 545.767Z" stroke="#C73A2A" stroke-width="4"/>
<path d="M602.68 580.486C599.71 577.855 599.448 572.881 602.589 569.336C605.729 565.792 610.699 565.453 613.668 568.084C616.638 570.715 616.9 575.689 613.759 579.234C610.618 582.778 605.649 583.117 602.68 580.486Z" stroke="#C73A2A" stroke-width="4"/>
<path d="M194.2 642.755C196.079 639.261 200.86 637.864 205.031 640.108C209.202 642.351 210.672 647.11 208.793 650.604C206.914 654.098 202.133 655.495 197.962 653.252C193.791 651.008 192.321 646.25 194.2 642.755Z" stroke="#C73A2A" stroke-width="4"/>
<path d="M157.276 618.211C159.602 614.997 164.526 614.246 168.363 617.022C172.2 619.798 173.027 624.71 170.701 627.924C168.375 631.139 163.451 631.889 159.614 629.113C155.777 626.337 154.951 621.425 157.276 618.211Z" stroke="#C73A2A" stroke-width="4"/>
<path d="M123.835 588.848C126.572 585.976 131.552 585.896 134.98 589.163C138.408 592.431 138.566 597.409 135.829 600.281C133.091 603.153 128.111 603.234 124.683 599.966C121.255 596.698 121.097 591.72 123.835 588.848Z" stroke="#C73A2A" stroke-width="4"/>
<path d="M94.7697 555.582C97.8585 553.092 102.807 553.661 105.779 557.348C108.751 561.035 108.258 565.991 105.169 568.482C102.081 570.972 97.1325 570.402 94.1601 566.715C91.1878 563.028 91.681 558.072 94.7697 555.582Z" stroke="#C73A2A" stroke-width="4"/>
<path d="M70.1612 518.409C73.5567 516.357 78.3833 517.587 80.8329 521.64C83.2824 525.693 82.1272 530.538 78.7316 532.59C75.3361 534.642 70.5095 533.412 68.06 529.359C65.6104 525.306 66.7656 520.461 70.1612 518.409Z" stroke="#C73A2A" stroke-width="4"/>
<path d="M50.8882 478.683C54.5251 477.098 59.1468 478.955 61.0393 483.296C62.9317 487.637 61.1464 492.287 57.5094 493.872C53.8725 495.458 49.2508 493.601 47.3583 489.26C45.4659 484.918 47.2512 480.268 50.8882 478.683Z" stroke="#C73A2A" stroke-width="4"/>
<path d="M37.0391 436.589C40.8557 435.505 45.1868 437.965 46.4802 442.521C47.7737 447.076 45.3812 451.445 41.5645 452.529C37.7478 453.612 33.4168 451.152 32.1233 446.597C30.8299 442.041 33.2224 437.672 37.0391 436.589Z" stroke="#C73A2A" stroke-width="4"/>
<path d="M28.8997 392.521C32.8283 391.967 36.7842 394.993 37.4455 399.683C38.1068 404.372 35.1419 408.375 31.2132 408.929C27.2846 409.483 23.3287 406.456 22.6674 401.767C22.0061 397.077 24.971 393.075 28.8997 392.521Z" stroke="#C73A2A" stroke-width="4"/>
<path d="M26.7452 349.127C30.7125 349.089 34.2409 352.605 34.2862 357.34C34.3314 362.076 30.8709 365.658 26.9035 365.696C22.9362 365.734 19.4078 362.219 19.3626 357.483C19.3173 352.747 22.7779 349.165 26.7452 349.127Z" stroke="#C73A2A" stroke-width="4"/>
<path d="M30.692 302.564C34.6264 303.076 37.6342 307.046 37.0234 311.742C36.4126 316.439 32.4895 319.507 28.5551 318.996C24.6208 318.484 21.613 314.514 22.2238 309.818C22.8345 305.121 26.7577 302.052 30.692 302.564Z" stroke="#C73A2A" stroke-width="4"/>
<path d="M40.0607 260.483C43.8951 261.502 46.3608 265.83 45.1443 270.407C43.9278 274.984 39.6388 277.516 35.8044 276.497C31.97 275.478 29.5043 271.15 30.7208 266.573C31.9373 261.996 36.2263 259.464 40.0607 260.483Z" stroke="#C73A2A" stroke-width="4"/>
<path d="M55.6013 218.222C59.2614 219.753 61.1157 224.376 59.288 228.745C57.4602 233.114 52.8667 235.039 49.2065 233.508C45.5464 231.977 43.6921 227.354 45.5199 222.985C47.3476 218.616 51.9412 216.691 55.6013 218.222Z" stroke="#C73A2A" stroke-width="4"/>
<path d="M76.3498 179.11C79.7719 181.118 80.9903 185.947 78.5939 190.032C76.1975 194.117 71.3875 195.41 67.9654 193.402C64.5433 191.394 63.3249 186.565 65.7213 182.48C68.1177 178.395 72.9278 177.102 76.3498 179.11Z" stroke="#C73A2A" stroke-width="4"/>
<path d="M101.74 143.583C104.867 146.025 105.437 150.973 102.522 154.706C99.6073 158.438 94.6686 159.084 91.5416 156.643C88.4146 154.201 87.8446 149.253 90.7595 145.52C93.6743 141.787 98.613 141.141 101.74 143.583Z" stroke="#C73A2A" stroke-width="4"/>
<path d="M132.721 110.567C135.491 113.407 135.391 118.387 132.001 121.694C128.611 125.001 123.63 124.977 120.86 122.137C118.089 119.297 118.19 114.317 121.58 111.01C124.97 107.703 129.951 107.727 132.721 110.567Z" stroke="#C73A2A" stroke-width="4"/>
<path d="M167.905 82.0161C170.269 85.202 169.502 90.1233 165.699 92.9458C161.896 95.7683 156.964 95.0773 154.599 91.8914C152.235 88.7055 153.002 83.7841 156.805 80.9616C160.608 78.1391 165.54 78.8302 167.905 82.0161Z" stroke="#C73A2A" stroke-width="4"/>
<path d="M204.892 59.418C206.819 62.8865 205.413 67.6647 201.272 69.9641C197.132 72.2635 192.333 70.9315 190.406 67.463C188.48 63.9946 189.886 59.2163 194.026 56.9169C198.167 54.6175 202.966 55.9495 204.892 59.418Z" stroke="#C73A2A" stroke-width="4"/>
<path d="M244.897 41.6778C246.346 45.3711 244.319 49.9206 239.91 51.6506C235.502 53.3805 230.921 51.4238 229.472 47.7305C228.023 44.0371 230.05 39.4876 234.459 37.7576C238.867 36.0277 243.448 37.9844 244.897 41.6778Z" stroke="#C73A2A" stroke-width="4"/>
<path d="M464.005 38.3494C462.84 42.1422 458.422 44.4413 453.895 43.0513C449.367 41.6613 447 37.279 448.165 33.4862C449.329 29.6934 453.747 27.3943 458.275 28.7843C462.802 30.1742 465.169 34.5566 464.005 38.3494Z" stroke="#C73A2A" stroke-width="4"/>
<path d="M505.825 55.4544C504.157 59.0545 499.468 60.734 495.171 58.7436C490.874 56.7533 489.122 52.0907 490.789 48.4906C492.457 44.8905 497.146 43.211 501.443 45.2013C505.741 47.1917 507.492 51.8543 505.825 55.4544Z" stroke="#C73A2A" stroke-width="4"/>
<path d="M544.042 77.5238C541.91 80.8694 537.039 81.9085 533.045 79.3628C529.052 76.8171 527.937 71.9626 530.07 68.617C532.203 65.2714 537.074 64.2323 541.067 66.778C545.061 69.3237 546.175 74.1783 544.042 77.5238Z" stroke="#C73A2A" stroke-width="4"/>
<path d="M580.231 105.535C577.666 108.561 572.699 108.932 569.086 105.87C565.474 102.807 565.026 97.8465 567.592 94.8201C570.158 91.7938 575.125 91.423 578.737 94.4855C582.35 97.5479 582.797 102.509 580.231 105.535Z" stroke="#C73A2A" stroke-width="4"/>
<path d="M610.624 136.374C607.686 139.039 602.713 138.758 599.531 135.25C596.35 131.742 596.554 126.765 599.493 124.1C602.432 121.435 607.405 121.716 610.586 125.224C613.768 128.732 613.563 133.708 610.624 136.374Z" stroke="#C73A2A" stroke-width="4"/>
<path d="M637.938 172.612C634.668 174.859 629.778 173.913 627.096 170.01C624.414 166.106 625.284 161.202 628.554 158.955C631.824 156.708 636.714 157.654 639.396 161.557C642.078 165.461 641.208 170.365 637.938 172.612Z" stroke="#C73A2A" stroke-width="4"/>
<path d="M659.328 210.67C655.791 212.467 651.068 210.886 648.923 206.664C646.777 202.442 648.284 197.695 651.821 195.898C655.358 194.1 660.082 195.681 662.227 199.903C664.373 204.125 662.865 208.872 659.328 210.67Z" stroke="#C73A2A" stroke-width="4"/>
<path d="M675.713 251.732C671.968 253.043 667.497 250.847 665.933 246.377C664.368 241.907 666.495 237.403 670.239 236.092C673.984 234.782 678.455 236.977 680.019 241.447C681.584 245.917 679.458 250.422 675.713 251.732Z" stroke="#C73A2A" stroke-width="4"/>
<path d="M686.598 295.322C682.71 296.115 678.577 293.335 677.632 288.694C676.686 284.054 679.402 279.878 683.289 279.086C687.177 278.294 691.31 281.074 692.255 285.714C693.201 290.355 690.485 294.53 686.598 295.322Z" stroke="#C73A2A" stroke-width="4"/>
<path d="M691.442 339.375C687.483 339.642 683.758 336.335 683.439 331.61C683.121 326.885 686.369 323.109 690.328 322.842C694.286 322.576 698.011 325.882 698.33 330.607C698.648 335.332 695.4 339.108 691.442 339.375Z" stroke="#C73A2A" stroke-width="4"/>
</svg>
