<svg width="684" height="656" viewBox="0 0 684 656" fill="none" xmlns="http://www.w3.org/2000/svg">
<path d="M674.216 350.291C670.248 350.291 666.753 346.742 666.753 342.006C666.753 337.27 670.248 333.721 674.216 333.721C678.183 333.721 681.678 337.27 681.678 342.006C681.678 346.742 678.183 350.291 674.216 350.291Z" stroke="#C73A2A" stroke-width="4"/>
<path d="M670.26 394.122C666.326 393.604 663.325 389.629 663.944 384.934C664.562 380.238 668.491 377.176 672.424 377.695C676.358 378.213 679.359 382.188 678.74 386.883C678.121 391.579 674.193 394.641 670.26 394.122Z" stroke="#C73A2A" stroke-width="4"/>
<path d="M660.456 437.342C656.627 436.304 654.182 431.964 655.421 427.393C656.659 422.822 660.961 420.311 664.79 421.349C668.619 422.386 671.064 426.726 669.825 431.297C668.587 435.868 664.285 438.379 660.456 437.342Z" stroke="#C73A2A" stroke-width="4"/>
<path d="M644.798 479.184C641.144 477.639 639.308 473.009 641.153 468.647C642.998 464.285 647.599 462.378 651.253 463.923C654.907 465.469 656.743 470.099 654.898 474.461C653.053 478.823 648.452 480.73 644.798 479.184Z" stroke="#C73A2A" stroke-width="4"/>
<path d="M623.819 518.269C620.403 516.251 619.199 511.417 621.608 507.34C624.017 503.262 628.831 501.984 632.247 504.002C635.663 506.02 636.866 510.853 634.458 514.931C632.049 519.008 627.235 520.286 623.819 518.269Z" stroke="#C73A2A" stroke-width="4"/>
<path d="M597.56 554.515C594.448 552.054 593.908 547.103 596.845 543.388C599.782 539.673 604.725 539.056 607.837 541.517C610.949 543.978 611.49 548.929 608.552 552.644C605.615 556.359 600.672 556.976 597.56 554.515Z" stroke="#C73A2A" stroke-width="4"/>
<path d="M193.209 639.562C194.889 635.968 199.584 634.306 203.874 636.312C208.164 638.318 209.899 642.987 208.218 646.581C206.538 650.175 201.843 651.837 197.553 649.831C193.262 647.825 191.528 643.156 193.209 639.562Z" stroke="#C73A2A" stroke-width="4"/>
<path d="M154.969 617.124C157.111 613.784 161.985 612.759 165.971 615.316C169.958 617.873 171.058 622.731 168.916 626.07C166.774 629.41 161.9 630.435 157.913 627.878C153.927 625.321 152.827 620.463 154.969 617.124Z" stroke="#C73A2A" stroke-width="4"/>
<path d="M119.936 589.68C122.508 586.66 127.476 586.3 131.081 589.371C134.687 592.441 135.123 597.403 132.551 600.423C129.978 603.444 125.011 603.804 121.405 600.733C117.799 597.662 117.363 592.701 119.936 589.68Z" stroke="#C73A2A" stroke-width="4"/>
<path d="M89.0527 558.093C91.9972 555.434 96.9694 555.726 100.144 559.241C103.318 562.755 103.103 567.732 100.158 570.391C97.2139 573.05 92.2417 572.758 89.0676 569.243C85.8934 565.729 86.1083 560.753 89.0527 558.093Z" stroke="#C73A2A" stroke-width="4"/>
<path d="M62.4008 522.357C65.6761 520.118 70.564 521.076 73.2367 524.985C75.9094 528.895 75.0273 533.797 71.752 536.036C68.4767 538.275 63.5888 537.317 60.9161 533.408C58.2434 529.498 59.1255 524.596 62.4008 522.357Z" stroke="#C73A2A" stroke-width="4"/>
<path d="M40.9336 483.773C44.476 481.986 49.1945 483.582 51.3271 487.81C53.4597 492.039 51.9375 496.781 48.3951 498.568C44.8526 500.354 40.1342 498.759 38.0016 494.531C35.8689 490.302 37.3911 485.56 40.9336 483.773Z" stroke="#C73A2A" stroke-width="4"/>
<path d="M24.7489 442.52C28.4989 441.225 32.9609 443.438 34.5075 447.914C36.054 452.39 33.9099 456.886 30.1599 458.182C26.4099 459.477 21.9479 457.264 20.4014 452.788C18.8548 448.311 20.9989 443.816 24.7489 442.52Z" stroke="#C73A2A" stroke-width="4"/>
<path d="M14.1544 398.978C18.0459 398.204 22.1651 401.004 23.0879 405.65C24.0108 410.295 21.2747 414.457 17.3832 415.23C13.4918 416.003 9.37256 413.203 8.44972 408.558C7.52688 403.913 10.263 399.751 14.1544 398.978Z" stroke="#C73A2A" stroke-width="4"/>
<path d="M9.57289 355.772C13.5319 355.512 17.2516 358.825 17.562 363.551C17.8724 368.276 14.6178 372.047 10.6589 372.307C6.6999 372.567 2.98017 369.254 2.66978 364.529C2.35939 359.803 5.61392 356.032 9.57289 355.772Z" stroke="#C73A2A" stroke-width="4"/>
<path d="M10.9064 309.061C14.8633 309.352 18.0887 313.147 17.7419 317.871C17.3951 322.594 13.6499 325.877 9.69306 325.587C5.73621 325.296 2.51084 321.501 2.85764 316.778C3.20444 312.054 6.94959 308.771 10.9064 309.061Z" stroke="#C73A2A" stroke-width="4"/>
<path d="M17.9033 266.522C21.7888 267.325 24.493 271.507 23.5347 276.145C22.5764 280.783 18.4359 283.552 14.5505 282.749C10.6651 281.946 7.96084 277.764 8.91913 273.126C9.87742 268.488 14.0179 265.719 17.9033 266.522Z" stroke="#C73A2A" stroke-width="4"/>
<path d="M31.0529 223.457C34.7931 224.78 36.9033 229.292 35.3231 233.757C33.7429 238.221 29.2644 240.401 25.5242 239.077C21.7841 237.753 19.6739 233.241 21.2541 228.777C22.8342 224.312 27.3128 222.133 31.0529 223.457Z" stroke="#C73A2A" stroke-width="4"/>
<path d="M49.5787 183.244C53.1078 185.057 54.5948 189.811 52.4309 194.023C50.267 198.236 45.5369 199.796 42.0078 197.983C38.4786 196.17 36.9917 191.417 39.1556 187.204C41.3194 182.992 46.0495 181.431 49.5787 183.244Z" stroke="#C73A2A" stroke-width="4"/>
<path d="M72.9395 146.351C76.1984 148.614 77.0445 153.522 74.3433 157.412C71.6421 161.302 66.7473 162.224 63.4885 159.961C60.2297 157.698 59.3835 152.79 62.0847 148.9C64.786 145.01 69.6807 144.088 72.9395 146.351Z" stroke="#C73A2A" stroke-width="4"/>
<path d="M102.023 111.652C104.948 114.332 105.126 119.31 101.927 122.801C98.727 126.293 93.7528 126.549 90.8278 123.868C87.9027 121.188 87.724 116.21 90.9236 112.718C94.1233 109.227 99.0975 108.971 102.023 111.652Z" stroke="#C73A2A" stroke-width="4"/>
<path d="M135.553 81.1754C138.092 84.2239 137.602 89.1804 133.963 92.2115C130.324 95.2425 125.36 94.8288 122.821 91.7803C120.282 88.7318 120.772 83.7752 124.411 80.7442C128.05 77.7131 133.014 78.1269 135.553 81.1754Z" stroke="#C73A2A" stroke-width="4"/>
<path d="M171.216 56.5414C173.334 59.8966 172.198 64.746 168.193 67.2737C164.188 69.8013 159.321 68.7402 157.204 65.385C155.086 62.0299 156.222 57.1804 160.227 54.6528C164.232 52.1251 169.099 53.1862 171.216 56.5414Z" stroke="#C73A2A" stroke-width="4"/>
<path d="M210.165 36.5887C211.818 40.1951 210.049 44.851 205.744 46.8251C201.44 48.7993 196.757 47.1021 195.103 43.4957C193.449 39.8894 195.218 35.2334 199.523 33.2593C203.828 31.2852 208.511 32.9823 210.165 36.5887Z" stroke="#C73A2A" stroke-width="4"/>
<path d="M252.242 21.7114C253.395 25.5075 251.015 29.8829 246.484 31.2595C241.953 32.6362 237.541 30.324 236.388 26.5278C235.234 22.7316 237.614 18.3563 242.146 16.9797C246.677 15.603 251.089 17.9152 252.242 21.7114Z" stroke="#C73A2A" stroke-width="4"/>
<path d="M294.876 12.8049C295.515 16.7206 292.574 20.741 287.9 21.5034C283.226 22.2658 279.161 19.3881 278.522 15.4723C277.883 11.5566 280.824 7.53619 285.498 6.7738C290.172 6.0114 294.237 8.88914 294.876 12.8049Z" stroke="#C73A2A" stroke-width="4"/>
<path d="M340.276 9.51272C340.383 13.4788 336.93 17.068 332.196 17.196C327.462 17.3239 323.82 13.9264 323.712 9.96036C323.605 5.9943 327.059 2.40506 331.793 2.27712C336.527 2.14918 340.169 5.54667 340.276 9.51272Z" stroke="#C73A2A" stroke-width="4"/>
<path d="M385.297 12.3329C384.87 16.2773 380.965 19.3692 376.256 18.859C371.548 18.3488 368.396 14.4922 368.823 10.5478C369.251 6.60338 373.156 3.51141 377.864 4.02161C382.572 4.53182 385.724 8.38846 385.297 12.3329Z" stroke="#C73A2A" stroke-width="4"/>
<path d="M428.742 20.9952C427.792 24.8472 423.509 27.3901 418.911 26.2559C414.313 25.1216 411.704 20.8787 412.655 17.0267C413.605 13.1746 417.888 10.6317 422.486 11.7659C427.084 12.9002 429.692 17.1431 428.742 20.9952Z" stroke="#C73A2A" stroke-width="4"/>
<path d="M471.454 35.7313C469.991 39.4192 465.404 41.3586 461.002 39.6121C456.599 37.8655 454.589 33.3083 456.053 29.6205C457.516 25.9327 462.103 23.9932 466.505 25.7398C470.908 27.4863 472.918 32.0435 471.454 35.7313Z" stroke="#C73A2A" stroke-width="4"/>
<path d="M510.848 55.6259C508.906 59.0856 504.101 60.3959 499.971 58.0779C495.841 55.7598 494.457 50.9753 496.399 47.5155C498.341 44.0558 503.146 42.7455 507.276 45.0635C511.406 47.3816 512.79 52.1661 510.848 55.6259Z" stroke="#C73A2A" stroke-width="4"/>
<path d="M548.549 81.5664C546.157 84.7317 541.219 85.38 537.441 82.5247C533.662 79.6694 532.938 74.7416 535.33 71.5762C537.722 68.4109 542.66 67.7626 546.439 70.618C550.217 73.4733 550.941 78.4011 548.549 81.5664Z" stroke="#C73A2A" stroke-width="4"/>
<path d="M580.622 110.655C577.837 113.481 572.856 113.478 569.483 110.154C566.11 106.83 566.035 101.849 568.82 99.0236C571.605 96.1979 576.586 96.2001 579.959 99.5245C583.332 102.849 583.407 107.829 580.622 110.655Z" stroke="#C73A2A" stroke-width="4"/>
<path d="M609.922 145.306C606.783 147.733 601.847 147.062 598.951 143.315C596.054 139.568 596.648 134.623 599.787 132.197C602.926 129.77 607.862 130.441 610.758 134.188C613.655 137.934 613.061 142.88 609.922 145.306Z" stroke="#C73A2A" stroke-width="4"/>
<path d="M633.41 182.106C629.979 184.099 625.175 182.786 622.796 178.69C620.417 174.595 621.656 169.771 625.087 167.778C628.518 165.786 633.322 167.099 635.701 171.194C638.08 175.29 636.84 180.114 633.41 182.106Z" stroke="#C73A2A" stroke-width="4"/>
<path d="M652.068 222.187C648.403 223.705 643.816 221.764 642.004 217.388C640.191 213.013 642.062 208.397 645.727 206.878C649.393 205.36 653.98 207.302 655.792 211.677C657.604 216.053 655.734 220.669 652.068 222.187Z" stroke="#C73A2A" stroke-width="4"/>
<path d="M665.377 265.099C661.54 266.108 657.258 263.564 656.054 258.984C654.85 254.403 657.327 250.083 661.164 249.074C665.001 248.065 669.284 250.609 670.488 255.19C671.692 259.77 669.214 264.091 665.377 265.099Z" stroke="#C73A2A" stroke-width="4"/>
<path d="M672.681 308.811C668.743 309.299 664.838 306.207 664.256 301.507C663.673 296.807 666.705 292.855 670.642 292.367C674.58 291.879 678.484 294.971 679.067 299.671C679.649 304.371 676.618 308.323 672.681 308.811Z" stroke="#C73A2A" stroke-width="4"/>
</svg>
