<svg width="108" height="207" viewBox="0 0 108 207" fill="none" xmlns="http://www.w3.org/2000/svg">
<path d="M104.278 123.134C104.278 123.134 103.75 120.733 103.571 120.35C103.392 119.967 101.532 110.352 101.532 110.352C101.532 110.352 100.72 110.483 100.826 109.595C100.931 108.708 101.638 105.097 101.638 104.531C101.36 103.283 101.005 102.056 100.574 100.859C100.574 100.859 98.6814 100.607 99.3962 99.3451C100.111 98.0834 100.753 97.4395 100.753 96.6825C100.722 95.6136 100.443 94.5698 99.9404 93.6458L98.8763 91.9056L99.648 76.9134L101.711 70.9009L106.406 55.5347L107.397 52.0542L107.218 50.0442L101.191 45.3021L96.7563 37.4188L94.8962 32.4853H91.4441L87.724 21.3826L85.2872 18.5286V16.2489L82.4524 12.0897L81.7458 8.37432L76.4823 0.717285H74.2405L75.3939 3.88451L75.9868 6.0337L75.1259 7.67822L68.7496 11.2892H62.5765L60.2371 13.4384L54.6244 13.0904H48.6949L45.1941 13.8996L42.0019 14.4651L39.3865 14.1345L36.0237 14.2302L27.0888 32.5462L29.087 34.4952L29.4606 36.3921L25.773 46.6595L21.9879 48.6781L19.746 48.7478L17.6179 50.0094L18.2677 52.4109L21.5167 53.1766L22.5808 52.9243C22.5808 52.9243 23.8236 54.0642 23.8236 54.2469C23.8236 54.4296 25.0582 58.8672 25.0582 58.8672L24.116 63.7399L22.0528 68.1427L21.2812 75.0079L21.6386 78.6798L22.8732 84.4313L23.523 87.1547L22.5239 87.6594H18.7388L12.9961 86.1802L8.73179 83.9353C8.73179 83.9353 6.02696 84.3094 5.93761 84.3703C5.535 84.4597 5.12832 84.5265 4.71923 84.5705L4.29685 85.6755C4.36423 86.2868 4.46184 86.8939 4.58926 87.4941C4.65425 87.5637 5.47463 89.2343 5.50712 89.2865C5.53961 89.3387 5.40152 92.0013 5.40152 92.0013C5.40152 92.0013 5.45026 95.0119 5.47463 95.0815C5.49899 95.1511 5.93761 96.9348 6.02696 97.1524C6.30049 97.6852 6.60431 98.1995 6.93669 98.6925C7.02604 98.7621 9.74711 100.52 9.87707 100.563C10.007 100.607 11.5666 102.373 11.5666 102.373L12.5819 103.156C12.5819 103.156 12.4519 104.461 12.4276 104.557C12.4032 104.653 10.803 104.67 10.6812 104.818C10.5594 104.966 7.10727 104.74 7.04229 104.818C6.97731 104.896 3.56582 105.601 3.56582 105.601L1.42145 106.55C0.989045 107.064 0.602864 107.62 0.268046 108.212C0.268046 108.42 0.617317 110.509 0.617317 110.657C0.617317 110.805 0 113.076 0 113.076C0 113.076 0.357394 115.964 0.357394 116.034C0.357394 116.104 0.121839 118.07 0.146207 118.183C0.170574 118.296 1.55142 119.723 1.59203 119.749C1.63264 119.775 2.55862 122.977 2.55862 122.977C2.55862 122.977 4.18314 124.718 4.29685 124.848C4.81231 125.524 5.27676 126.243 5.68581 126.997C5.74267 127.311 6.49807 129.016 6.53869 129.303C6.5793 129.59 6.89608 131.713 6.89608 132.027C6.99302 132.694 7.15081 133.35 7.36719 133.984C7.74954 134.532 8.08655 135.114 8.37439 135.725C9.03044 136.39 9.8193 136.887 10.6812 137.178C11.2092 137.273 12.6875 137.43 12.8337 137.526C12.9799 137.622 18.2352 137.526 18.2352 137.526L21.3705 136.986C21.8981 136.793 22.4423 136.656 22.9951 136.577C23.1088 136.673 24.9445 137.291 25.0257 137.569C25.1069 137.848 26.1547 139.049 26.569 139.649C27.0995 140.428 27.6804 141.167 28.3072 141.859C28.7869 142.331 29.2222 142.853 29.6068 143.416C29.8107 144.144 29.9708 144.885 30.0861 145.635L30.6709 148.924V151.961C30.6709 151.961 33.4488 154.806 33.4488 154.998C33.4488 155.189 35.0734 159.557 35.0734 159.557C34.9311 160.467 34.657 161.348 34.2611 162.168C33.79 162.803 32.0761 163.499 32.2548 164.386C32.5508 165.43 33.0094 166.413 33.6113 167.293C34.4669 168.072 35.1518 169.043 35.6176 170.138C36.1537 171.721 36.5029 171.469 36.5029 172.861C36.5029 174.253 37.3883 178.082 37.3152 178.952C37.2421 179.822 37.5507 181.615 36.9009 181.989C36.2511 182.363 33.4163 184.208 33.4163 184.208L32.003 182.876L30.1104 184.773L23.7911 185.913L20.1278 185.469L19.1206 184.965C19.1206 184.965 19.7704 188.132 20.4771 188.636C21.6413 189.238 22.6865 190.074 23.5555 191.099C25.18 192.996 25.3912 193.248 25.6268 193.883C25.9196 194.693 26.1745 195.518 26.3903 196.354C26.7477 197.616 26.6908 199.2 26.8695 199.513C27.0482 199.826 30.411 203.376 30.411 203.376L33.3026 201.479C33.4387 201.026 33.5366 200.56 33.595 200.087C33.9068 199.05 34.2812 198.036 34.716 197.051C34.716 197.051 34.4235 197.677 35.6663 196.668C36.9091 195.658 52.4719 175.028 52.4719 175.028L55.3636 171.922L57.4348 170.39C57.9467 170.955 58.2596 171.694 58.3202 172.478C58.3992 173.648 58.3005 174.823 58.0278 175.959C57.6704 177.029 57.2155 179.187 56.6632 180.005C56.1109 180.823 55.5423 180.875 54.7788 182.032C54.0152 183.19 54.4782 185.452 53.8284 185.826C53.1786 186.2 53.9503 185.643 52.4151 186.966C50.8799 188.288 50.4657 188.106 50.4657 188.993C50.4761 189.96 50.3361 190.921 50.0514 191.839C49.8159 192.282 49.8727 192.091 49.5153 192.474C49.1579 192.857 48.8087 193.17 47.6877 194.431C46.5668 195.693 42.668 198.042 42.668 198.042C42.668 198.042 42.3674 201.14 42.3674 201.331C41.3491 202.198 40.286 203.003 39.1834 203.742L37.7619 205.891C37.7619 205.891 37.7051 206.526 39.7114 205.891C41.7176 205.256 44.5849 203.046 45.0317 202.785C45.4784 202.524 45.7952 201.044 45.9739 200.574C46.1526 200.105 46.445 199.052 48.4106 196.964C50.3763 194.875 50.1245 193.866 51.6028 192.857C53.0811 191.847 56.98 189.054 58.2796 188.506C59.5792 187.958 63.3562 186.539 63.3562 186.539L65.6062 188.375L67.2307 179.805L67.8805 177.142L64.7452 175.245L64.5421 168.415L64.1685 163.429L62.6902 162.698L60.6514 161.306L61.3906 159.061L60.7732 153.84L60.2371 152.1L60.7732 150.769L62.0404 148.298L61.9835 144.252L62.9907 141.215L66.321 136.403L69.9599 130.8L73.1033 127.372L80.5761 123.021C80.5761 123.021 83.4109 122.76 84.0607 122.83C84.7105 122.899 89.3729 123.9 89.6166 124.222C90.2168 125.74 90.7083 127.305 91.0867 128.903C91.2654 129.773 92.0371 131.748 92.0939 132.131C92.4499 133.006 92.8652 133.853 93.3367 134.663C93.9488 135.398 94.6202 136.073 95.343 136.682C95.7748 136.985 96.2638 137.182 96.7749 137.258C97.2861 137.335 97.8067 137.29 98.2996 137.126C99.7129 136.682 100.306 137.004 101.719 135.385C102.681 134.279 103.73 133.263 104.855 132.349C106.032 131.339 107.218 131.209 107.161 129.625C107.104 128.042 107.697 127.981 107.161 127.224L104.278 123.134ZM55.786 76.2261L52.8537 79.2019C52.3505 79.7189 51.7571 80.1245 51.1074 80.3957C50.4577 80.6668 49.7645 80.798 49.0674 80.7818C48.3703 80.7657 47.683 80.6024 47.0449 80.3015C46.4068 80.0005 45.8303 79.5677 45.3484 79.0278C44.5101 78.1178 43.9445 76.9605 43.7239 75.704L42.3593 68.0121C42.1894 67.0808 42.2096 66.1211 42.4185 65.199C42.6274 64.2768 43.0201 63.4139 43.5696 62.6696L47.2572 57.7448C47.6947 57.1403 48.2415 56.6367 48.865 56.264C49.4885 55.8914 50.1758 55.6575 50.8857 55.5762C51.5956 55.495 52.3136 55.5681 52.9965 55.7912C53.6794 56.0143 54.3132 56.3828 54.86 56.8746L54.9575 56.9617C55.5924 57.5304 56.1106 58.2337 56.4796 59.0273C56.8487 59.821 57.0605 60.6878 57.1018 61.5733L57.6054 71.1446C57.663 72.0821 57.5302 73.0219 57.2161 73.8991C56.902 74.7764 56.4141 75.5703 55.786 76.2261ZM81.1609 65.4453L80.2187 78.2273C80.1811 79.1523 79.9146 80.0499 79.4464 80.8282C78.9783 81.6065 78.3253 82.2374 77.5545 82.6562L75.2477 83.77C73.3145 84.701 71.1864 83.6481 70.2929 81.3249L69.8543 80.0894C69.789 79.9157 69.732 79.7385 69.6837 79.5586L67.4175 71.3534C67.203 70.5359 67.1504 69.6793 67.2632 68.8388L68.2298 61.8169C68.3834 60.465 69.0034 59.2235 69.968 58.3364C71.4788 56.9878 73.7856 55.1605 74.9228 55.3606C76.5473 55.6565 79.1141 59.7112 80.4543 61.9735C81.0341 63.0185 81.282 64.2366 81.1609 65.4453Z" fill="#C73A2A"/>
</svg>
