<svg width="341" height="266" viewBox="0 0 341 266" fill="none" xmlns="http://www.w3.org/2000/svg">
<path d="M331.137 82.8968C334.017 87.2656 336.942 91.5805 340.014 95.8063C340.344 97.1915 330.188 102.997 327.553 101.578C327.187 101.869 326.896 102.255 326.707 102.7C325.897 105.67 323.927 107.798 322.061 109.994C321.079 111.006 320.159 112.084 319.305 113.222C319.182 113.458 318.999 113.652 318.778 113.782C317.524 114.226 316.875 115.369 316.153 116.392C313.823 119.549 310.951 122.197 307.692 124.194C305.93 125.344 304.064 126.299 302.123 127.047L302.156 127.021C301.074 126.824 300.258 127.542 299.362 127.976L299.389 127.955C299.051 127.656 298.848 127.879 298.659 128.171L298.124 128.178C298.063 128.129 297.993 128.095 297.919 128.077C297.844 128.058 297.767 128.057 297.692 128.072C297.617 128.088 297.546 128.12 297.482 128.166C297.419 128.213 297.366 128.272 297.325 128.342L297.363 128.312C297.198 128.169 296.992 128.094 296.78 128.1C296.568 128.105 296.365 128.192 296.206 128.343C295.378 128.176 294.705 128.789 293.934 128.886L293.953 128.914C293.843 128.524 293.656 128.699 293.477 128.849L293.524 128.856C293.405 128.587 293.232 128.662 293.058 128.782C292.536 128.638 292.017 128.341 291.485 128.762L291.541 128.771C291.424 128.456 291.246 128.571 291.07 128.701C290.787 128.483 290.535 128.417 290.332 128.834L290.399 128.835C290.205 128.493 290.044 128.656 289.884 128.87L289.432 128.839C288.281 128.703 287.115 128.773 285.984 129.047C285.599 128.874 285.211 128.659 284.827 129.078L284.879 129.081C284.72 128.924 284.51 128.839 284.293 128.845C284.076 128.852 283.869 128.949 283.717 129.116L283.773 129.125C283.643 128.839 283.44 128.893 283.222 128.986L283.143 128.872L283.035 128.957C282.608 128.618 282.126 128.367 281.613 128.215C281.567 128.075 281.495 128.043 281.422 128.19C281.224 128.107 281.012 128.068 280.8 128.077C280.587 128.085 280.378 128.14 280.186 128.239L278.71 128.106L277.83 127.971L277.391 128.009C277.034 127.881 276.644 127.905 276.301 128.076C276.074 127.927 275.854 128.04 275.629 128.076C275.031 128.099 274.744 128.778 274.15 128.832C272.925 128.979 274.706 127.409 273.864 128.271C272.632 129.53 275.253 121.583 274.041 122.871C273.508 123.435 273.552 122.824 273.442 122.531C272.572 117.021 268.509 116.973 263.99 114.61C263.645 114.459 263.279 114.288 262.945 114.164C262 114.141 261.09 113.348 260.1 114.044C260.02 114.107 259.771 114.047 259.686 113.947C259.211 113.438 258.638 113.714 258.132 113.823C256.844 114.108 250.005 122.856 248.882 123.587C248.372 123.919 247.689 123.939 247.341 124.542C246.811 125.337 246.199 126.066 245.516 126.713C244.83 127.357 244.343 128.21 244.12 129.157C243.923 129.495 243.818 129.885 243.816 130.283L243.671 130.735C243.518 131.379 243.506 132.052 243.637 132.701C243.648 132.86 243.649 133.019 243.655 133.173C243.549 133.81 243.596 134.464 243.793 135.074C243.635 136.045 243.828 137.041 244.333 137.861C245.828 139.927 247.276 142.056 249.636 143.161C250.391 143.566 251.114 144.036 251.797 144.567C252.667 145.205 252.713 145.514 252.344 146.568C252.143 147.108 251.804 147.616 251.876 148.241C251.665 148.452 251.75 148.695 251.81 148.94C251.729 149.208 251.858 149.433 251.924 149.673C251.64 150.296 251.144 150.866 251.257 151.609C251.538 153.418 252.194 155.135 253.177 156.632C254.142 158.037 255.626 159.049 256.896 160.221C256.998 160.308 257.191 160.288 257.339 160.322L257.765 160.374C258.731 160.574 259.504 159.828 260.424 159.888C260.961 160.195 261.587 160.274 262.178 160.11C263.598 159.667 264.597 158.406 265.962 157.847C266.018 157.904 266.091 157.94 266.169 157.947C266.246 157.955 266.324 157.935 266.389 157.889C267.13 158.441 267.828 159.054 268.479 159.722C269.098 160.534 269.841 161.227 270.676 161.772L270.649 161.732C271.366 162.775 272.141 163.781 272.801 164.862C273.952 166.704 275.1 168.566 276.335 170.315C278.118 172.835 279.533 175.653 281.717 177.864C282.728 178.888 283.396 180.306 284.463 181.267C286.756 183.533 288.764 186.109 290.438 188.931C291.353 190.222 292.04 191.683 292.464 193.241C292.782 194.716 293.252 196.159 293.629 197.588C293.628 198.005 293.69 198.42 293.81 198.816C294.133 200.588 295.113 202.123 295.341 203.926C295.149 205.442 295.876 206.717 296.272 208.077C297.025 212.245 298.012 216.36 299.229 220.398C299.303 220.65 299.483 220.888 299.48 221.138C299.556 223.335 300.057 225.489 300.952 227.463C301.513 228.834 301.912 230.245 302.407 231.677L302.181 232.555C301.955 233.348 301.524 234.056 300.938 234.598C300.353 235.141 299.637 235.495 298.873 235.619C298.806 235.568 298.724 235.545 298.642 235.555C298.56 235.566 298.485 235.609 298.431 235.677C297.916 235.611 297.393 235.676 296.904 235.868L295.544 235.928C295.491 235.864 295.419 235.822 295.339 235.811C295.26 235.801 295.18 235.822 295.114 235.87C294.949 235.777 294.766 235.727 294.58 235.721C294.394 235.715 294.208 235.755 294.038 235.837L292.261 235.978C292.198 235.931 292.124 235.902 292.047 235.896C291.969 235.89 291.892 235.907 291.823 235.945C291.769 235.887 291.701 235.848 291.626 235.831C291.551 235.815 291.474 235.822 291.403 235.852L290.994 235.716C290.533 235.485 290.035 235.354 289.526 235.329L289.109 235.181C288.902 235.097 288.698 234.958 288.464 235.099C288.031 234.97 287.57 234.993 287.15 235.166C287.086 235.12 287.011 235.094 286.935 235.091C286.858 235.087 286.781 235.107 286.714 235.148C286.66 235.09 286.59 235.05 286.514 235.034C286.438 235.018 286.36 235.027 286.289 235.06C285.985 234.828 285.628 234.689 285.256 234.656C284.941 234.296 284.518 234.064 284.06 234.001L283.628 233.892C283.258 233.783 282.863 233.814 282.511 233.98C282.153 233.895 281.779 233.921 281.434 234.054C281.371 234.002 281.296 233.973 281.218 233.968C281.139 233.964 281.061 233.986 280.994 234.03C280.945 233.966 280.879 233.92 280.805 233.898C280.73 233.876 280.651 233.879 280.578 233.908L280.176 233.757L279.751 233.669L278.882 233.552L278.46 233.505L278.023 233.497C277.835 233.416 277.66 233.378 277.578 233.646C276.791 232.995 275.858 233.423 275.006 233.222C275.006 232.92 274.809 232.935 274.617 232.945L274.204 232.839L273.791 232.732C273.577 232.663 273.378 232.519 273.143 232.635C271.192 232.244 269.317 231.51 267.593 230.461C267.419 230.28 267.258 230.071 266.974 230.128C263.715 228.114 261.095 225.293 258.476 222.461C257.507 221.414 256.803 220.148 255.861 219.105C254.126 217.159 252.563 215.032 250.686 213.243C249.468 212.074 248.642 210.559 247.504 209.326C245.493 207.138 243.792 204.651 241.848 202.392C240.398 200.739 239.233 198.824 238.405 196.734C237.792 195.254 237.107 193.811 236.352 192.409C235.72 191.14 235.608 189.554 234.691 188.413C232.908 186.194 232.236 183.202 230.213 181.165C230.141 181.088 230.089 180.992 230.063 180.886C229.725 180.16 229.273 179.503 228.726 178.943C228.158 178.189 227.284 177.774 226.919 176.833C226.348 175.342 225.608 173.933 224.714 172.637C224.03 171.7 223.418 170.704 222.883 169.661C222.482 168.719 221.86 167.907 221.078 167.301C220.02 166.571 218.971 165.817 217.881 165.149C217.539 164.972 217.236 164.718 216.993 164.405C216.751 164.092 216.574 163.726 216.475 163.332C215.668 159.65 213.475 157.039 210.853 154.759C210.373 154.221 209.723 153.894 209.028 153.841C208.971 153.742 208.894 153.657 208.803 153.595C208.711 153.533 208.607 153.494 208.499 153.481C208.372 153.298 208.227 153.086 208.008 153.383L208.066 153.408C207.996 152.967 207.747 152.943 207.404 153.047C207.274 152.858 207.131 152.758 206.94 152.963L206.983 152.929C205.768 152.191 204.379 151.847 202.982 151.936L202.55 151.898L202.122 151.83C201.115 151.756 200.11 152.009 199.237 152.556C197.993 152.757 196.831 153.353 195.903 154.268C194.613 155.335 193.902 156.978 192.584 158.04C192.392 158.217 192.249 158.446 192.172 158.703C192.094 158.96 192.084 159.235 192.142 159.497C191.981 159.624 191.924 159.794 192.067 159.99C191.901 160.122 191.707 160.275 191.99 160.494L192.01 160.426C191.621 160.512 191.575 160.77 191.674 161.143L191.701 161.122C191.343 161.48 191.125 161.969 191.091 162.491C190.727 163.035 190.185 163.501 190.381 164.293L190.424 164.259C190.054 164.384 189.968 164.62 190.104 164.999C189.991 165.089 189.93 165.181 190.034 165.32C189.014 166.533 187.679 167.39 186.202 167.78C185.396 167.896 184.652 168.313 184.101 168.958C183.251 168.743 182.355 168.867 181.58 169.308C180.642 169.337 179.726 169.624 178.919 170.141L178.976 170.14C178.851 169.85 178.688 169.89 178.501 170.065C178.356 169.853 178.211 169.835 178.031 169.995C177.889 169.789 177.739 169.801 177.564 169.931C177.288 169.724 177.065 169.857 176.83 170.07C176.141 170.032 175.464 170.275 174.933 170.749L174.583 170.698C174.468 170.471 174.302 170.47 174.114 170.583L174.141 170.562C173.227 170.656 172.417 171.263 171.443 171.113C170.601 170.988 169.742 171.117 168.962 171.485C168.541 171.618 168.097 171.645 167.665 171.565C167.616 171.5 167.548 171.452 167.472 171.43C167.396 171.408 167.315 171.412 167.24 171.441C167.178 171.391 167.101 171.364 167.022 171.365C166.944 171.367 166.868 171.396 166.806 171.449L163.346 171.241L162.919 171.163L162.489 171.105L162.054 171.051L161.62 171.023C161.443 170.934 161.266 170.87 161.182 171.158C160.715 170.874 160.183 170.732 159.645 170.748C159.106 170.764 158.581 170.938 158.127 171.25C156.618 172.215 155.242 173.411 153.653 174.236C153.494 174.318 153.412 174.56 153.297 174.731C152.838 175.98 152.832 175.984 154.103 176.421L154.521 176.595L154.94 176.661L155.371 176.745L155.801 176.829C156.004 176.907 156.192 177.06 156.428 176.944C156.472 177.014 156.539 177.064 156.616 177.084C156.693 177.105 156.774 177.095 156.845 177.056C156.892 177.124 156.956 177.177 157.03 177.208C157.104 177.239 157.185 177.246 157.263 177.23C157.906 177.47 158.484 177.874 158.947 178.409C159.41 178.943 159.743 179.591 159.919 180.297C160.251 181.492 160.767 182.618 161.447 183.629C163.875 187.099 166.263 190.572 167.847 194.613C168.505 196.141 169.234 197.632 170.032 199.081C170.638 200.275 171.045 201.652 171.624 202.903C173.068 205.992 174.678 208.984 176.028 212.13C176.818 214.173 177.484 216.269 178.021 218.406C178.321 219.939 178.265 221.498 178.962 222.911C178.784 223.196 178.708 223.54 178.747 223.88C178.785 224.22 178.937 224.533 179.174 224.762C179.358 227.232 179.728 229.682 180.279 232.086C180.113 232.315 180.212 232.556 180.245 232.796C180.259 233.794 180.456 234.778 180.826 235.691C180.995 237.48 181.321 239.247 181.8 240.968C181.916 241.691 182.037 242.41 182.158 243.128C182.008 243.38 182.141 243.611 182.183 243.852C182.172 244.345 182.254 244.834 182.425 245.29C182.832 247.739 183.773 250.049 183.993 252.54C184.473 254.444 185.246 256.231 185.679 258.164C186.244 260.674 186.329 260.652 183.955 260.372C183.908 260.303 183.841 260.253 183.764 260.228C183.688 260.204 183.606 260.208 183.531 260.238C183.203 260.038 182.891 259.789 182.494 259.935L182.513 259.964C182 259.591 181.557 259.031 180.83 259.217L180.885 259.235C180.873 259.158 180.845 259.085 180.802 259.022C180.759 258.959 180.702 258.908 180.637 258.873C180.572 258.838 180.499 258.82 180.426 258.821C180.353 258.822 180.281 258.842 180.217 258.879C180.094 258.701 179.952 258.495 179.742 258.804L179.805 258.824C179.727 258.408 179.478 258.348 179.143 258.463L179.163 258.492C179.103 258.369 179.008 258.27 178.891 258.211C178.773 258.152 178.641 258.135 178.514 258.164C178.243 257.963 177.969 257.782 177.615 257.991L177.662 257.998C177.465 257.796 177.226 257.648 176.965 257.566C176.703 257.483 176.427 257.469 176.159 257.525C176.029 257.335 175.902 257.152 175.689 257.445L175.717 257.485C175.618 257.112 175.397 257.021 175.054 257.124C174.934 256.943 174.763 256.808 174.566 256.738C174.369 256.668 174.156 256.667 173.958 256.736L174.008 256.749C173.831 256.491 173.665 256.25 173.329 256.401C173.241 256.188 173.124 256.006 172.867 256.042C172.516 255.797 172.176 255.508 171.715 255.67L171.739 255.704C171.679 255.555 171.574 255.432 171.44 255.356C171.307 255.28 171.153 255.255 171.003 255.286L170.964 255.229C170.475 254.806 169.911 254.494 169.305 254.312C166.95 252.467 164.588 250.636 162.255 248.775C160.661 247.505 159.067 246.261 156.938 246.337C156.117 246.379 155.313 246.612 154.582 247.02C153.852 247.427 153.211 248 152.706 248.697L152.396 249.368C152.242 249.596 152.136 249.858 152.086 250.134C152.037 250.411 152.045 250.695 152.111 250.967C152.207 252.457 152.727 253.878 153.6 255.038C153.902 255.644 154.154 256.277 154.353 256.93C154.288 257.568 154.32 258.213 154.447 258.839C154.56 259.911 154.785 260.966 155.116 261.984C155.127 262.679 155.221 263.37 155.394 264.04C155.575 265.171 155.352 265.499 154.296 265.229C151.457 264.502 148.473 264.794 145.659 263.862C145.542 263.798 145.406 263.784 145.279 263.824C145.153 263.864 145.044 263.953 144.977 264.075L145 264.109C144.887 263.8 144.652 263.88 144.439 263.908C144.405 263.713 144.332 263.753 144.253 263.878C143.699 263.821 143.139 263.574 142.619 263.915C142.485 263.623 142.31 263.682 142.119 263.851C141.986 263.692 141.812 263.58 141.619 263.53C141.426 263.479 141.223 263.492 141.036 263.566C140.838 263.519 140.643 263.453 140.443 263.584C140.014 263.286 139.519 263.351 139.051 263.261C139.018 263.211 138.976 263.169 138.927 263.137C138.878 263.104 138.824 263.083 138.767 263.073C138.711 263.064 138.653 263.067 138.597 263.081C138.541 263.096 138.489 263.123 138.442 263.159C138.242 263.061 138.044 262.917 137.849 263.177L137.909 263.192C137.801 262.782 137.442 262.827 137.161 262.731L136.133 262.563C135.939 262.486 135.733 262.331 135.541 262.571L135.597 262.58C135.582 262.505 135.552 262.434 135.508 262.373C135.464 262.313 135.408 262.264 135.344 262.229C135.28 262.195 135.209 262.177 135.137 262.176C135.066 262.175 134.994 262.191 134.929 262.223L134.961 262.198C134.687 261.973 134.382 261.794 134.057 261.666C133.153 261.417 132.338 260.89 131.712 260.15C131.347 259.599 130.792 259.227 130.17 259.113L130.194 259.148C130.051 258.866 129.84 258.631 129.582 258.469C129.325 258.306 129.03 258.222 128.73 258.226C128.687 258.071 128.61 257.928 128.506 257.811C128.403 257.693 128.274 257.603 128.132 257.549C125.843 254.802 123.772 251.855 121.941 248.737C120.665 246.701 119.597 244.484 118.288 242.448C116.639 239.796 115.381 236.885 114.56 233.819C114.163 232.433 114.001 230.967 113.405 229.642C113.373 229.101 113.419 228.541 112.982 228.135L112.885 227.45C113.22 226.84 112.629 226.21 112.93 225.599L112.932 225.119C113.063 224.477 112.985 223.808 112.713 223.221C112.89 222.983 112.784 222.757 112.688 222.533C112.732 222.461 112.754 222.376 112.753 222.29C112.752 222.205 112.726 222.121 112.68 222.051C112.852 221.534 112.907 220.981 112.84 220.438L112.945 220.036C112.987 219.965 113.009 219.884 113.009 219.8C113.009 219.717 112.987 219.636 112.945 219.566C113.087 219.202 113.122 218.801 113.043 218.417L113.015 217.943C113.061 217.875 113.086 217.795 113.087 217.711C113.087 217.628 113.064 217.547 113.02 217.479C113.078 217.417 113.111 217.334 113.113 217.247C113.115 217.159 113.085 217.074 113.029 217.011C113.042 216.354 112.875 215.689 113.315 215.014C113.541 214.655 113.629 214.217 113.561 213.791L113.761 213.359C113.853 213.144 114.032 212.957 113.99 212.69C114.535 211.713 115.308 210.905 116.234 210.346C117.586 209.519 118.663 208.26 119.314 206.745C119.546 206.515 119.7 206.208 119.75 205.875C119.8 205.541 119.744 205.199 119.592 204.905C119.748 204.674 119.635 204.437 119.606 204.202C119.578 203.968 119.712 203.561 119.468 203.302C119.468 203.251 119.457 203.2 119.436 203.154C119.414 203.108 119.383 203.068 119.344 203.037C119.283 201.722 118.759 200.482 117.879 199.567C117.733 199.469 117.613 199.333 117.53 199.171C117.447 199.01 117.402 198.829 117.401 198.644C117.243 198.192 117.038 197.76 116.79 197.357C116.116 196.474 115.589 195.369 114.358 195.183C113.486 195.122 113.025 194.088 112.138 194.029C111.779 193.844 111.407 193.979 111.044 193.957L110.604 193.969C109.779 193.883 108.945 194.036 108.192 194.413C107.439 194.79 106.793 195.377 106.322 196.113C105.851 196.778 105.47 197.611 104.613 197.883L104.191 197.801C103.652 197.343 102.968 198.266 102.491 197.669C101.853 196.873 100.885 196.852 100.121 196.368C99.6369 196.031 99.078 195.837 98.5005 195.807C97.9231 195.776 97.3475 195.909 96.8321 196.193C96.4304 196.405 96.0603 196.53 95.7378 196.121C95.634 195.982 95.505 195.867 95.3586 195.783C95.2122 195.699 95.0514 195.648 94.8856 195.632C94.7199 195.616 94.5528 195.636 94.3942 195.691C94.2355 195.746 94.0887 195.835 93.9624 195.951C93.131 196.672 92.4033 196.301 91.6011 196.051C91.3288 195.824 90.9199 195.82 90.7221 195.472C90.0743 194.458 89.2522 193.586 88.2995 192.902C88.0814 192.763 87.9154 192.547 87.8297 192.291C87.6394 191.158 86.9448 191.221 86.1453 191.385C85.8448 191.19 85.5579 190.965 85.2437 190.798C84.1979 190.254 83.9735 190.325 83.2217 191.355C82.0961 192.902 82.1211 194.193 83.0451 195.922C83.3951 196.437 83.8057 196.9 84.2668 197.301C84.7638 197.855 84.8572 198.401 84.2896 198.975C84.1108 199.166 83.9228 199.348 83.7263 199.518C81.3312 201.487 78.9733 203.461 75.8172 203.924C75.5819 204.005 75.3612 204.129 75.165 204.291C74.6243 204.218 74.0755 204.341 73.6059 204.64C73.0478 204.667 72.5011 204.822 72.0031 205.095C71.1913 205.012 70.6264 205.867 69.9124 205.866C68.474 205.837 67.1538 206.413 65.7603 206.57C65.1842 206.637 64.7749 207.103 64.236 207.175C62.9184 207.334 61.5412 207.043 60.3694 207.981C60.1976 208.117 59.9852 208.037 59.7886 207.98C59.1421 207.849 58.475 207.883 57.8415 208.079C56.5097 208.338 55.1803 208.611 53.851 208.885L52.75 208.961C52.5357 208.776 52.281 208.652 52.0095 208.601C51.738 208.549 51.4585 208.573 51.1969 208.668C50.4717 209.012 49.7099 208.713 49.0283 208.951C48.3467 209.19 47.7543 208.305 47.0105 208.779C46.7871 208.9 46.5401 208.962 46.2902 208.96C46.0403 208.958 45.7949 208.891 45.5747 208.765C45.1179 208.542 44.6036 208.491 44.1148 208.62C43.6184 208.429 43.0891 208.901 42.593 208.542C42.4573 208.463 42.3083 208.414 42.1546 208.398C42.0009 208.381 41.8455 208.397 41.6974 208.446L41.267 208.459C40.2645 208.428 39.2711 208.253 38.3135 207.939C37.9168 207.714 37.4626 207.633 37.0182 207.707C36.3383 207.768 35.7706 207.376 35.1489 207.196C34.6131 206.957 34.0362 206.841 33.4551 206.855L33.0547 206.792L32.6264 206.724L32.1716 206.641L31.7752 206.583C29.791 206.11 27.8023 205.533 25.7267 205.699C25.2069 205.739 24.8024 205.404 24.3336 205.253L23.9164 205.141C23.7399 205.077 23.554 205.012 23.4675 205.284C23.2957 205.42 23.1603 205.368 23.0339 205.22C22.6014 204.748 22.0437 204.986 21.5538 204.949L21.1224 204.937L20.6855 204.929C20.6248 204.877 20.5506 204.846 20.473 204.841C20.3954 204.836 20.3181 204.857 20.2516 204.9C19.9066 204.75 19.5286 204.705 19.1605 204.773L18.7451 204.748L18.3147 204.761C18.2521 204.712 18.1774 204.685 18.0999 204.682C18.0224 204.678 17.9457 204.7 17.8793 204.743C17.3912 204.56 16.864 204.529 16.3589 204.655C15.2414 204.89 14.0935 204.899 12.9753 204.679C12.8743 204.678 12.7737 204.695 12.6777 204.729C12.2063 204.694 11.7352 204.811 11.3252 205.065L10.6044 205.078C10.1746 204.971 9.7255 204.988 9.30249 205.127C8.87385 205.018 8.42456 205.042 8.00706 205.197C7.63053 205.119 7.24128 205.147 6.8767 205.278C6.5265 205.197 6.16133 205.227 5.8262 205.366C5.76225 205.315 5.68331 205.289 5.60331 205.294C5.52332 205.299 5.44741 205.334 5.38902 205.394C5.28748 205.338 5.17479 205.311 5.06078 205.313C4.94676 205.316 4.83486 205.348 4.73484 205.407C4.67191 205.358 4.59616 205.33 4.51797 205.329C4.43978 205.327 4.36296 205.352 4.298 205.399C4.24368 205.34 4.17271 205.302 4.09603 205.291C4.01935 205.28 3.94122 205.296 3.87367 205.337C3.81912 205.277 3.7478 205.238 3.67052 205.226C3.59324 205.213 3.51421 205.228 3.44539 205.269C3.00227 204.973 2.49142 204.814 1.9685 204.809C1.91968 204.747 1.85528 204.701 1.78284 204.677C1.7104 204.653 1.63294 204.651 1.55952 204.673C1.07211 204.519 0.663816 204.311 1.1107 203.682C1.41495 203.252 1.74828 202.846 2.10797 202.467C2.70999 201.991 3.23871 201.417 3.67466 200.766C4.03415 200.082 4.93093 199.77 5.48526 199.189C6.46191 198.271 7.33429 197.232 8.08421 196.094C8.50543 195.575 9.00444 195.135 9.56053 194.792C10.5414 194.32 11.3678 193.541 11.9315 192.559C12.7369 191.119 13.7884 189.853 15.0307 188.829C15.7913 187.558 16.4307 186.209 16.9392 184.802C17.0257 184.53 17.3578 184.337 17.1962 183.97L17.164 183.995C17.3894 183.817 17.6876 183.695 17.5037 183.283L17.5313 183.323C17.8265 183.122 18.0483 182.818 18.1589 182.463L20.6281 177.744C21.0021 177.297 21.2848 176.771 21.458 176.201L21.6167 175.757C21.655 175.655 21.6631 175.498 21.7301 175.463C23.1755 174.61 23.9665 172.806 25.6814 172.333C25.8305 172.29 25.9592 172.188 26.0411 172.048C26.461 171.175 27.2815 170.897 28.0114 170.487L27.9792 170.512C28.2439 170.692 28.4586 170.522 28.6652 170.376C30.632 169.039 32.3838 167.342 34.4686 166.212C35.1716 165.824 35.7517 165.196 36.5246 164.885C36.9613 164.632 37.3626 164.314 37.7164 163.94C38.4412 163.366 39.0788 162.569 40.0642 162.47C40.1666 162.619 40.2988 162.594 40.4377 162.555C40.6848 162.625 40.9838 162.698 41.1656 162.492C42.5712 160.918 44.5935 160.892 46.375 160.419C49.9365 159.484 53.5963 158.86 57.2142 158.296C58.3348 158.117 59.4105 157.619 60.5632 157.715C61.4913 157.913 62.4565 157.727 63.2656 157.195C63.5827 157.041 63.8454 156.735 64.2429 156.819C65.3981 156.875 66.5461 156.579 67.5545 155.966C68.702 155.488 69.9135 155.214 71.1415 155.152L71.5268 155.255C71.8539 155.446 72.2229 155.542 72.5965 155.532L73.0094 155.674C73.6935 156.017 74.378 156.458 75.1519 156.04L75.5508 156.113L75.9737 156.186L76.3859 156.267C76.7331 156.411 77.1051 156.475 77.4777 156.455C77.7439 156.749 78.0988 156.932 78.4798 156.972L78.9271 157.007C80.3224 156.938 80.5586 156.751 80.8115 155.514C80.9496 154.996 80.9802 154.452 80.9012 153.92C80.9774 153.054 80.4929 152.313 80.4223 151.475L80.4317 151.042C80.293 149.381 79.483 147.986 78.8921 146.524C78.2346 144.643 77.168 142.96 75.7805 141.612C75.4298 141.348 75.1338 141.008 74.9107 140.615C74.6877 140.222 74.5422 139.784 74.4834 139.328C74.7787 138.685 74.8805 137.961 74.7749 137.255C74.8572 136.855 74.8428 136.44 74.733 136.049C74.7294 135.566 74.6357 135.089 74.4573 134.647C73.7064 132.505 72.8298 130.41 72.25 128.204L71.9495 126.043C71.7063 125.146 71.4723 124.251 71.2384 123.356C71.1776 122.384 71.0097 121.423 70.7381 120.494C70.9041 120.265 70.7812 120.026 70.7474 119.796L70.6788 119.31C70.8487 119.087 70.7444 118.85 70.7067 118.615C70.6689 118.379 70.6524 118.295 70.618 118.136C70.7868 117.887 70.6664 117.664 70.5753 117.435C70.703 117.174 70.5708 116.934 70.5159 116.685C70.461 116.436 70.6083 116.072 70.4645 115.778C70.637 115.571 70.5674 115.325 70.5723 115.091L70.5448 114.616C70.6712 114.078 70.6766 113.515 70.5604 112.975L70.6176 111.442L70.6392 110.991L70.7088 110.537L70.797 110.086C70.8578 109.861 70.993 109.648 70.8862 109.396C71.1953 108.681 71.3087 107.888 71.2129 107.109C71.375 106.874 71.3 106.633 71.205 106.398C71.245 105.531 71.0948 104.667 70.7664 103.875C70.438 103.083 69.9406 102.386 69.3142 101.839C68.6503 101.187 67.9557 100.551 67.2006 99.9715C66.931 99.7722 66.7116 99.5046 66.5619 99.1923C66.4123 98.88 66.3369 98.5325 66.3425 98.1807C66.431 97.8636 66.4067 97.5231 66.2743 97.2252C66.3844 96.7578 66.3387 96.2646 66.145 95.8311C66.1926 95.7588 66.2142 95.6706 66.2057 95.5828C66.1973 95.4951 66.1593 95.4137 66.0989 95.354C66.2179 94.1883 65.6949 93.0175 66.0523 91.8488C66.2898 91.5276 66.429 91.1358 66.4506 90.7275C66.7989 90.1693 67.2679 89.7091 67.8172 89.3865C68.3666 89.0638 68.9801 88.8882 69.6052 88.8747C69.9415 88.3869 70.1786 89.0934 70.4889 88.9538C70.8445 88.9644 71.1051 89.5726 71.5288 89.1395C71.7688 89.2593 71.9886 89.1206 72.2102 89.069C73.0759 88.941 74.0288 89.0362 74.689 88.2475C75.4776 87.4413 76.0531 86.4261 76.3567 85.3058L76.4463 84.8451C76.5673 84.4273 76.531 83.9761 76.345 83.5882C75.7151 82.356 74.8774 81.2604 73.8741 80.3566C73.5157 80.0666 73.2118 79.7065 72.9784 79.2952C72.8071 78.9616 73.1236 79.0119 73.2879 78.9614C74.106 79.3671 74.9126 79.8527 75.8771 79.5668C76.0541 79.5195 76.239 79.5193 76.4156 79.5661C76.5923 79.6128 76.7555 79.7052 76.8909 79.8351C77.6499 80.4203 78.5481 80.7979 79.1448 81.6535C79.5036 82.1777 80.0234 82.5494 80.6134 82.7039C80.6498 82.7816 80.7082 82.8449 80.7803 82.8847C80.8524 82.9246 80.9345 82.939 81.0149 82.9259C81.1986 83.0726 81.3674 83.2577 81.632 83.1721C82.0858 83.4944 82.4134 84.0672 83.0478 84.0251L83.0202 83.985C83.0357 84.0587 83.066 84.1278 83.1091 84.1875C83.1521 84.2473 83.2067 84.2962 83.2693 84.3309C83.3318 84.3656 83.4007 84.3853 83.4712 84.3886C83.5417 84.3918 83.6121 84.3786 83.6775 84.3498C84.7504 84.7041 84.9659 84.5953 85.1312 83.6054L85.099 83.631C85.3853 83.4926 85.6055 83.3183 85.4387 82.919L85.4065 82.9445L85.6911 82.7191L86.0635 82.2115C86.4209 82.3091 86.783 82.4739 87.0761 82.0558L87.0564 82.0271C87.3953 82.3873 87.7751 82.2281 88.1478 82.1188L88.58 82.1926C89.6796 82.2601 90.4906 81.4494 91.4425 81.0849C91.914 80.9145 92.3363 80.6149 92.6673 80.216C92.9983 79.817 93.2264 79.3326 93.329 78.811L93.5009 78.3737C93.5896 78.1529 93.7739 77.9626 93.7086 77.6867C94.9079 75.8752 96.309 74.2269 97.8806 72.7787C98.3407 72.4058 98.7161 71.9263 98.9787 71.3762C99.2412 70.8261 99.3839 70.2199 99.3961 69.6034L99.5294 69.1701C99.67 68.9524 99.7586 68.5989 99.9283 68.5441C101.492 67.9603 102.814 66.7098 104.453 66.3677C105.886 66.3299 106.828 65.3715 107.642 64.2753C108.455 63.179 109.234 61.9241 110.053 60.7623C110.316 60.3854 110.595 59.8987 111.121 60.013C112.197 60.2502 113.162 59.4589 114.223 59.6989C114.426 59.7079 114.629 59.6668 114.816 59.5787C115.003 59.4907 115.168 59.358 115.3 59.1909C115.766 58.776 116.27 58.4146 116.806 58.1128C116.927 58.1513 117.055 58.1523 117.177 58.1156C117.299 58.0788 117.408 58.0059 117.493 57.9053C118.484 56.8015 119.897 56.4695 121.061 55.6536C122.527 54.6253 124.322 54.2569 125.988 53.6279C126.199 53.5491 126.438 53.5105 126.516 53.7322C126.87 54.7535 128.025 54.9983 128.383 55.9897C128.466 56.3008 128.627 56.5814 128.848 56.801C129.069 57.0206 129.342 57.171 129.638 57.2358C130.286 57.3693 130.336 57.9136 130.427 58.4437C130.281 58.7013 130.404 58.9404 130.466 59.1749C130.858 59.8787 130.99 60.7156 130.835 61.5212C130.641 61.7457 130.716 61.9873 130.786 62.2333C130.76 62.3635 130.765 62.498 130.798 62.6258C130.831 62.7536 130.892 62.871 130.976 62.9682C130.725 64.1809 130.372 65.3673 129.922 66.5129C129.584 67.1435 128.981 67.6656 129.158 68.526C129.12 68.5507 129.087 68.5843 129.062 68.6243C129.037 68.6644 129.021 68.7098 129.015 68.7572C129.008 68.8047 129.012 68.853 129.025 68.8986C129.039 68.9443 129.062 68.9861 129.092 69.021C129.022 69.1487 128.994 69.2973 129.012 69.4435C129.03 69.5896 129.093 69.725 129.191 69.8282C129.162 69.8671 129.14 69.9122 129.128 69.9605C129.117 70.0088 129.115 70.0592 129.122 70.1083C129.13 70.1575 129.148 70.2042 129.174 70.2453C129.2 70.2865 129.234 70.3211 129.274 70.3469C129.552 71.8975 130.529 72.9565 131.561 73.963C131.561 73.963 131.655 73.9421 131.704 73.9295L131.681 73.8951C132.065 74.321 132.384 74.8093 132.626 75.3423C133.149 77.3096 133.944 79.1771 134.623 81.0925L134.265 83.3591C134.082 83.7074 133.974 84.0954 133.951 84.4938C133.692 85.0092 133.435 85.5403 133.166 86.0542C133.093 86.1643 133.042 86.2893 133.016 86.4212C132.989 86.5532 132.989 86.6894 133.014 86.8214C133.579 89.0303 134.385 91.0478 136.183 92.4925C136.961 93.093 137.576 93.9041 137.966 94.8437C138.277 95.5836 138.759 96.2259 139.366 96.7103C140.561 97.5704 141.819 98.3269 143.127 98.9726C143.87 99.2693 144.589 98.8678 145.327 98.939C145.73 98.9829 146.135 98.8696 146.467 98.6198C147.284 97.9888 148.217 97.552 149.202 97.3386C150.925 96.7443 152.204 95.4208 153.5 94.1459C153.682 93.9784 153.821 93.7647 153.906 93.5245C153.99 93.2844 154.016 93.0257 153.982 92.7723C154.064 92.3712 154.047 91.9546 153.931 91.5642C154.079 90.4286 153.49 89.4874 153.192 88.475C152.796 87.1508 152.701 87.0489 153.778 86.3724C155.519 85.2856 157.177 84.0784 159.004 83.1177C160.308 82.4211 161.518 81.8167 162.981 82.039L163.404 82.1113L163.828 82.1736C164.077 82.225 164.333 82.2118 164.576 82.1349C164.819 82.0579 165.041 81.9196 165.225 81.7316C166.284 80.8095 167.425 80.0005 168.631 79.3163C168.894 79.216 169.126 79.0363 169.296 78.7988C169.467 78.5614 169.57 78.2763 169.594 77.9782C169.948 77.3605 170.624 77.1615 171.083 76.683C171.868 75.9192 172.924 75.3926 173.074 74.0785C173.079 73.8614 173.136 73.6491 173.24 73.4624C173.344 73.2757 173.492 73.1211 173.669 73.0139C173.898 72.8974 174.092 72.7134 174.228 72.4836C174.363 72.2537 174.435 71.9875 174.435 71.7161C173.978 70.8354 173.763 69.8331 173.815 68.8245C173.977 68.5899 173.906 68.3539 173.811 68.1192C173.938 67.8687 173.819 67.6353 173.768 67.3923C173.594 66.2857 173.341 65.1955 173.01 64.1316C172.688 62.9474 172.043 61.8952 171.156 61.1104C170.093 60.2211 169.139 59.1928 168.314 58.0495C168.022 57.6253 167.714 57.1781 167.095 57.4831L167.149 57.502C166.823 57.177 166.528 56.8171 166.27 56.4278C165.134 54.2457 163.169 52.7743 161.979 50.6348C161.571 50.0205 161.107 49.4509 160.594 48.934C160.429 48.6932 160.252 48.3639 159.873 48.6202C159.189 47.9754 158.303 47.5436 158.215 46.3296C158.19 46.2147 158.14 46.1077 158.069 46.0175C157.998 45.9272 157.909 45.856 157.807 45.8096C157.706 45.7633 157.596 45.743 157.486 45.7505C157.376 45.758 157.269 45.793 157.174 45.8527C156.703 45.6438 156.274 45.34 155.911 44.9577C155.296 44.2533 154.642 43.5885 153.953 42.9667C153.106 42.1325 153.139 41.239 154.17 40.6879C154.83 40.2164 155.441 39.6677 155.989 39.0519C157.102 38.0901 157.695 36.7085 158.71 35.6648C158.958 35.4698 159.153 35.2082 159.277 34.9068C159.4 34.6053 159.447 34.2747 159.413 33.9484C159.216 33.1564 159.506 32.4927 159.588 31.7907C159.746 30.9835 160.011 30.1627 159.479 29.3888L159.483 29.4559C159.829 29.2708 159.613 29.0169 159.533 28.8052C159.291 28.0727 159.125 27.3134 159.038 26.541C159.204 26.1436 159.366 25.8119 159.886 25.869C160.407 25.9261 160.767 26.1722 161.114 25.6759L161.052 25.6713C161.599 26.1769 162.388 25.8529 162.957 26.3671C163.527 26.8814 164.049 26.6887 164.679 26.5794C166.395 26.2648 167.897 25.3137 169.568 24.8847C169.993 24.721 170.377 24.4533 170.689 24.1028C171.874 22.9978 172.852 21.6608 173.57 20.1641C173.679 19.9363 173.789 19.6628 173.51 19.45L173.493 19.5084C173.601 19.4712 173.7 19.4072 173.781 19.3218C173.862 19.2364 173.924 19.1318 173.961 19.0165C173.997 18.9011 174.009 18.7783 173.993 18.6578C173.978 18.5373 173.936 18.4225 173.871 18.3227L173.854 18.3811C174.176 18.2587 174.373 18.0756 174.193 17.6692L174.166 17.6904C174.427 17.5634 174.476 17.3923 174.243 17.1869L174.236 17.2368C174.311 17.1529 174.37 17.0541 174.409 16.946C174.448 16.838 174.467 16.7227 174.464 16.607C174.462 16.4913 174.438 16.3773 174.394 16.2718C174.351 16.1662 174.288 16.071 174.209 15.9918L174.201 16.0517C174.495 15.9248 174.425 15.6789 174.382 15.4473C174.605 15.0847 174.752 14.6748 174.812 14.2462C174.873 13.8175 174.845 13.3804 174.732 12.9651C174.816 12.7486 174.969 12.5382 174.728 12.3312L174.728 12.3926C175.637 11.3727 176.424 10.235 177.069 9.00631C177.122 8.94663 177.158 8.8727 177.175 8.79253C177.191 8.71233 177.187 8.62895 177.163 8.55141L177.21 8.08909C177.262 8.02811 177.296 7.95174 177.308 7.86986C177.32 7.78799 177.308 7.70435 177.275 7.62975C177.331 7.5733 177.37 7.49969 177.386 7.41903C177.402 7.33837 177.394 7.25457 177.363 7.1791L177.487 6.74435C177.75 5.70362 178.607 5.27292 179.322 4.69726L179.26 4.70262C179.657 4.95464 180.045 5.03675 180.427 4.66339L180.375 4.66024C180.448 4.75002 180.538 4.82136 180.64 4.86916C180.741 4.91694 180.851 4.94 180.962 4.93666C181.074 4.93331 181.183 4.90365 181.282 4.84982C181.381 4.79598 181.468 4.7193 181.537 4.62528L181.485 4.62212C181.873 4.87493 182.329 4.98141 182.781 4.92469C183.234 4.86797 183.656 4.65131 183.982 4.30901L183.921 4.30439C184.035 4.63909 184.219 4.48449 184.394 4.38981C184.65 4.46117 184.927 4.65829 185.12 4.23963L185.088 4.26516C185.139 4.33968 185.23 4.47153 185.27 4.45746C186.723 4.07706 188.104 3.42917 189.352 2.54273C190.05 2.02211 190.826 1.63243 191.645 1.39045C192.116 1.25601 192.662 1.30185 193.031 0.8499L192.974 0.850993C193.15 1.0234 193.371 1.13514 193.607 1.17181C193.844 1.20848 194.086 1.16844 194.301 1.05679L194.247 1.03793C194.451 1.57588 195.136 1.54682 195.328 2.10325C195.766 3.36772 196.467 4.49517 196.863 5.7837C197.51 7.77488 198.486 9.62329 199.745 11.2405C199.933 11.5868 200.211 11.8674 200.544 12.0489C200.878 12.2305 201.253 12.3053 201.627 12.2645L201.58 12.2571C201.726 12.4692 201.84 12.6355 202.055 12.3326L202 12.3137C202.497 13.036 203.36 13.1578 204.007 13.6283C204.654 14.0987 205.005 14.6089 204.65 15.3593C203.971 16.7832 204.379 17.9918 204.984 19.2215C205.542 20.3468 206 20.4707 207.288 19.9196L207.227 19.9149C207.363 20.1419 207.555 20.324 207.782 20.4411C208.009 20.5582 208.262 20.6058 208.513 20.5788L208.459 20.5599C209.222 21.4495 210.2 22.0959 211.286 22.4287C211.552 22.67 211.817 22.4773 212.095 22.3989L212.571 22.3316L214.989 22.7718L214.938 22.7587C215.365 23.3064 216.15 23.4721 216.174 24.4359C216.179 24.9013 216.611 24.9751 216.983 24.8044C217.812 24.4664 218.134 23.6187 217.873 22.4794L217.868 22.5451C218.172 22.4197 218.127 22.2338 217.946 22.0315L217.909 22.0613C218.403 21.3652 219.046 20.8073 219.785 20.4353C220.523 20.0634 221.333 19.8887 222.146 19.9261L222.096 19.913C222.225 20.1735 222.375 20.2586 222.576 19.9842L222.544 20.0097C222.948 20.4774 223.329 20.3795 223.711 19.9705L223.673 20.0003C223.957 20.413 224.195 20.1445 224.411 19.8673L224.379 19.8928C224.482 20.236 224.672 20.0772 224.849 19.9725C225.554 20.1031 226.28 19.9657 226.904 19.5841L226.866 19.6139C227.66 19.9852 228.347 19.5121 228.939 19.1314C230.653 17.9376 232.26 16.5757 233.739 15.0634C234.795 14.067 235.651 12.7783 236.797 11.9495C238.188 10.945 239.557 9.93175 240.859 8.8111C241.166 8.52861 241.519 8.30931 241.899 8.16442C242.619 7.91046 243.287 7.51037 243.867 6.98606C244.844 6.15057 245.397 6.34066 245.938 7.58572C246.397 8.77325 246.699 10.0242 246.835 11.3026C246.91 11.8098 246.756 12.3929 247.189 12.7936L247.188 12.7322C247.112 12.8156 247.053 12.9143 247.013 13.0225C246.974 13.1307 246.954 13.2461 246.957 13.3621C246.959 13.4781 246.984 13.5923 247.028 13.6979C247.072 13.8036 247.136 13.8985 247.215 13.9773L247.191 13.9429C247.116 14.0272 247.057 14.1266 247.017 14.2354C246.978 14.3441 246.959 14.4601 246.962 14.5765C246.965 14.6929 246.989 14.8074 247.034 14.9134C247.079 15.0194 247.143 15.1146 247.222 15.1937L247.225 15.138C246.772 15.541 246.989 16.0604 247.019 16.5503C246.917 17.3071 247.038 18.0779 247.365 18.7551L247.374 18.6952C247.113 18.8308 247.089 19.0006 247.301 19.2045L247.328 19.1832C247.129 19.3406 246.941 19.4894 247.259 19.6982L247.273 19.634C246.793 19.6599 246.904 20.0146 246.929 20.3402L246.956 20.319C246.891 20.3821 246.848 20.4674 246.835 20.5602C246.822 20.653 246.839 20.7477 246.883 20.8282C246.808 21.0771 246.789 21.3418 246.831 21.5993C246.872 21.8568 246.971 22.0993 247.12 22.3057L247.123 22.2501C247.051 23.0966 246.895 23.9328 246.657 24.7445C246.569 24.9112 246.54 25.1057 246.574 25.2928C246.609 25.48 246.705 25.6474 246.844 25.7649L246.821 25.7305C246.684 26.0424 246.627 26.3876 246.657 26.7301C246.687 27.0726 246.802 27.3997 246.99 27.6773L246.967 27.643C246.495 27.8745 246.882 28.0379 247.008 28.2214L246.905 28.9047C246.766 29.0766 246.317 29.1227 246.706 29.496C246.176 29.6773 246.252 30.0417 246.415 30.4709L246.375 30.8833C245.92 31.3319 246.001 31.7992 246.303 32.2863L246.341 32.2565L245.999 33.6166C245.742 33.9256 245.606 34.3284 245.619 34.741L245.525 35.1959L245.46 35.6552L245.422 36.119C245.374 36.183 245.345 36.2604 245.338 36.3417C245.33 36.4231 245.345 36.5048 245.38 36.5771C245.327 36.6375 245.294 36.7145 245.285 36.7967C245.275 36.8789 245.291 36.962 245.329 37.0336L245.329 37.0354C245.263 37.4947 245.263 37.4947 245.197 37.9541L245.198 37.9523C245.001 38.619 244.936 39.3219 245.008 40.0157L245.043 40.5012C244.975 40.6896 244.945 40.8911 244.955 41.0925C244.965 41.2938 245.014 41.4904 245.1 41.6694C244.957 41.907 245.07 42.1446 245.097 42.3889C245.177 43.6846 245.464 44.9549 245.946 46.1441C247.506 50.0888 250.518 52.4311 253.837 54.4596C254.3 54.7834 254.765 55.0972 255.228 55.421C256.308 55.7808 257.335 56.3033 258.277 56.9726C258.341 57.0885 258.432 57.1853 258.54 57.2542C258.648 57.3231 258.77 57.362 258.896 57.3672C259.279 57.7888 259.768 58.0812 260.304 58.2088C262.435 59.6708 264.188 61.6817 265.405 64.059C265.359 64.1289 265.335 64.2124 265.336 64.2977C265.336 64.383 265.362 64.4659 265.409 64.5345C265.136 64.9239 264.828 65.2837 264.489 65.6087C262.148 67.1619 259.486 67.801 256.968 68.8664C255.781 69.3723 254.433 69.2806 253.352 70.0841C252.616 70.6668 251.791 71.1077 251.051 71.659C249.908 72.365 248.979 73.409 248.374 74.6651C248.099 75.4242 247.729 76.1402 247.275 76.7934C246.868 77.4079 246.334 77.946 246.284 78.7652C245.975 79.1494 245.754 79.6061 245.641 80.0979L245.558 80.5444C245.531 80.6984 245.509 80.8582 245.491 81.0137L245.469 81.4647C245.168 82.5095 245.639 83.5086 245.636 84.5294L245.6 84.9832C245.473 85.9076 245.977 86.6057 246.38 87.3231C246.759 88.0046 247.082 88.7206 247.345 89.4629C247.203 89.6905 247.25 89.9277 247.277 90.172C247.125 90.6023 246.819 90.9776 246.852 91.4831C246.747 91.6041 246.678 91.7556 246.654 91.9182C246.63 92.0808 246.652 92.2472 246.716 92.3961C246.522 92.7533 246.569 93.1591 246.524 93.54C246.192 93.9008 246.504 94.318 246.425 94.6987C245.901 95.2026 246.425 95.7709 246.34 96.2986C246.167 96.5542 246.064 96.8564 246.044 97.1707C245.907 97.472 245.87 97.8138 245.938 98.1396C245.859 98.9496 245.988 99.7662 246.31 100.502C246.859 101.95 247.447 103.385 248.076 104.806C249.361 107.737 251.513 109.804 254.012 111.509L255.639 112.283L256.247 112.589L256.861 112.891C257.061 113.025 257.231 113.235 257.501 113.145C257.615 113.256 257.751 113.339 257.898 113.389C258.045 113.439 258.201 113.454 258.355 113.434L258.78 113.39C259.434 113.412 260.059 113.766 260.731 113.526C263.075 113.124 265.327 112.242 267.363 110.929C269.64 109.319 271.987 107.859 274.201 106.122C277.599 103.43 280.776 100.488 284.032 97.6251C285.259 96.654 286.259 95.3917 286.954 93.9379C287.156 93.487 287.45 93.0904 287.815 92.7777C288.048 92.5685 288.22 92.292 288.311 91.9813C288.402 91.6707 288.408 91.339 288.327 91.0259L288.321 91.1016C288.619 90.5821 289.256 90.2901 289.214 89.5532L289.176 89.583C289.392 89.4397 289.565 89.2336 289.676 88.9889C289.787 88.7443 289.831 88.4712 289.802 88.2016L289.789 88.2558C289.983 88.1027 290.149 87.9708 289.862 87.7465L289.83 87.772C290.317 87.6248 290.251 87.0934 290.434 86.7446C291.199 85.2527 292.083 83.9327 293.724 83.4735L293.692 83.499C293.816 83.7638 293.952 83.8774 294.167 83.5744L294.113 83.5556C294.368 83.9604 294.697 84.3051 295.081 84.5689C295.465 84.8326 295.895 85.0098 296.345 85.0898L296.291 85.071C296.468 85.3658 296.724 85.5955 297.027 85.7292C297.329 85.8631 297.663 85.8947 297.983 85.8199L297.929 85.801C297.976 85.9058 298.042 85.9994 298.123 86.0763C298.204 86.1533 298.299 86.2121 298.402 86.2494C298.505 86.2866 298.613 86.3016 298.722 86.2933C298.83 86.285 298.936 86.2537 299.033 86.2011L299.007 86.2224C299.148 86.4288 299.267 86.6008 299.487 86.2936L299.432 86.2747C299.502 86.6892 299.798 86.6494 300.084 86.6438C300.14 86.7184 300.219 86.7675 300.307 86.7815C300.395 86.7955 300.485 86.7733 300.559 86.7193C300.824 86.8635 301.106 87.0564 301.285 86.5691L301.248 86.5989C301.346 87.0077 301.54 86.8189 301.722 86.6743L301.695 86.6956C302.085 86.9362 302.482 87.0911 302.857 86.6606L302.825 86.6861C302.932 87.0708 303.112 86.9461 303.3 86.7616L303.248 86.7584C303.324 86.8435 303.416 86.9106 303.517 86.9551C303.619 86.9997 303.729 87.0208 303.839 87.0171C303.949 87.0134 304.057 86.985 304.156 86.9337C304.256 86.8823 304.344 86.8093 304.415 86.7192L304.378 86.749C304.678 87.0776 304.911 86.9461 305.112 86.6103L305.054 86.6114C305.277 86.7594 305.541 86.817 305.801 86.774C306.06 86.7309 306.297 86.5899 306.469 86.3765L306.431 86.4063C306.733 86.7606 306.942 86.4976 307.169 86.2733L307.112 86.2744C307.404 86.5916 307.626 86.3715 307.846 86.1357L307.813 86.1612C308.102 86.4726 308.325 86.2783 308.547 86.0225L308.49 86.0236C309.002 86.3705 309.518 86.095 310.054 86.0423C310.986 86.0747 311.914 85.8969 312.78 85.5206L312.719 85.516C312.813 85.9548 313.012 85.7617 313.198 85.5971C313.244 86.0028 313.533 85.7831 313.718 85.8227C313.753 85.8409 313.793 85.8482 313.832 85.8436C313.872 85.839 313.909 85.8228 313.94 85.7968C314.091 85.8896 314.26 85.9456 314.434 85.9609C314.608 85.9762 314.783 85.9503 314.947 85.8852C315.061 85.9692 315.202 86.0012 315.339 85.9741C315.475 85.9471 315.597 85.8632 315.677 85.7408L315.621 85.7319C315.743 86.0067 315.916 85.932 316.099 85.8131L316.067 85.8386C316.123 85.8831 316.187 85.9148 316.254 85.9317C316.322 85.9486 316.392 85.9503 316.461 85.9367C316.529 85.9232 316.595 85.8946 316.653 85.8529C316.71 85.8111 316.76 85.7571 316.797 85.6941L316.765 85.7197C317.049 85.9639 317.319 86.0782 317.495 85.5752L317.438 85.5763C317.53 86.0608 317.74 85.7622 317.917 85.6575L317.866 85.6444C317.992 85.8992 318.167 85.8402 318.341 85.7198C318.608 85.8184 318.898 86.0841 319.067 85.5696L319.011 85.5608C319.026 86.0891 319.363 85.9639 319.663 85.9298L319.643 85.9012C319.246 85.6848 330.806 82.7778 331.137 82.8968ZM127.52 183.774L127.96 183.787C129.984 183.956 131.508 182.748 133.006 181.561C133.274 181.345 133.468 181.039 133.557 180.693C133.646 180.347 133.625 179.979 133.498 179.648C132.896 177.469 131.708 176.055 129.545 175.696C129.043 175.355 128.481 175.129 127.893 175.03C127.7 174.882 127.507 174.734 127.25 174.831C126.739 174.474 126.131 174.53 125.549 174.407C124.751 173.862 123.96 173.302 123.146 172.769C122.557 172.272 121.863 171.937 121.124 171.794C120.754 171.547 120.397 171.281 120.04 171.015C119.138 170.33 118.323 169.435 117.135 169.287C117.062 169.254 116.983 169.243 116.904 169.254C116.826 169.265 116.752 169.297 116.688 169.349C116.627 169.264 116.589 169.162 116.58 169.054C116.571 168.947 116.591 168.839 116.637 168.743C116.863 168.324 117.262 167.903 117.03 167.422C116.7 166.736 116.267 167.336 115.879 167.448C115.845 167.46 115.808 167.464 115.772 167.46C115.736 167.456 115.701 167.444 115.669 167.425C115.638 167.407 115.61 167.381 115.588 167.35C115.566 167.319 115.55 167.284 115.542 167.246C115.469 167.02 115.511 166.792 115.715 166.702C115.982 166.616 116.214 166.434 116.372 166.186C116.53 165.939 116.603 165.641 116.58 165.343C116.566 165.235 116.587 165.124 116.64 165.029C116.692 164.935 116.773 164.862 116.869 164.822C118.301 164.396 118.321 162.919 118.846 161.812L118.946 161.379L118.981 160.899L118.987 160.425C119.154 159.957 118.855 159.22 119.805 159.202C120.306 159.195 120.466 158.608 120.469 158.082L120.535 157.623C120.674 157.396 120.764 157.14 120.8 156.871C120.835 156.603 120.813 156.33 120.737 156.072C120.271 155.007 120.547 153.974 120.729 152.936C120.91 151.897 120.588 151.453 119.798 151.751C119.008 152.049 118.554 151.497 117.997 151.159C116.753 150.675 116.354 149.335 115.576 148.384C115.339 148.04 115.461 147.651 115.791 147.407C116.027 147.22 116.335 147.136 116.596 146.974C118.091 146.037 119.691 145.336 120.762 143.673C121.579 142.435 122.635 141.4 123.857 140.636L123.825 140.662C124.122 140.985 124.341 140.785 124.559 140.523L124.516 140.557C124.926 140.852 125.183 140.49 125.446 140.281C127.189 138.807 129.209 137.757 131.365 137.203L131.333 137.229C131.624 137.372 131.946 137.43 132.266 137.398C132.586 137.365 132.892 137.243 133.155 137.043L133.117 137.073C133.165 137.135 133.228 137.183 133.299 137.211C133.369 137.239 133.446 137.247 133.521 137.233C133.595 137.22 133.665 137.186 133.724 137.134C133.783 137.083 133.828 137.016 133.855 136.94L133.823 136.965C133.897 137.052 133.988 137.12 134.089 137.166C134.19 137.212 134.3 137.233 134.41 137.23C134.52 137.227 134.628 137.198 134.727 137.147C134.826 137.095 134.914 137.021 134.985 136.93L134.952 136.956C135.258 137.316 135.477 137.116 135.69 136.823L135.647 136.857C136.778 137.139 137.606 136.377 138.44 135.805C139.389 135.019 140.445 134.394 141.571 133.953C142.009 133.777 142.392 133.472 142.676 133.072C142.959 132.672 143.13 132.194 143.169 131.695L143.126 131.729C143.596 131.64 143.628 131.252 143.72 130.843C144.096 130.642 143.652 130.117 144.032 129.922L143.962 129.579C144.054 127.735 142.918 126.687 141.749 125.674C141.609 125.554 141.464 125.669 141.346 125.763L141.37 125.797C141.269 125.47 141.035 125.54 140.812 125.601C140.804 125.585 140.792 125.571 140.778 125.561C140.764 125.55 140.747 125.544 140.73 125.541C140.713 125.538 140.696 125.54 140.679 125.545C140.663 125.551 140.648 125.56 140.635 125.573C140.435 125.439 140.235 125.341 140.038 125.586L140.076 125.556C139.696 125.34 139.254 125.287 138.838 125.407C138.422 125.526 138.062 125.81 137.832 126.2C137.65 126.489 137.405 126.727 137.118 126.892C136.831 127.058 136.512 127.146 136.187 127.149C135.884 127.139 135.585 127.233 135.335 127.417C134.421 128.247 133.301 128.319 132.209 128.503L129.648 127.565L129.387 127.33C128.964 127.125 128.593 126.719 128.057 126.904C126.795 126.275 125.78 127.283 124.653 127.538L124.685 127.512C124.564 127.227 124.394 127.318 124.216 127.433C123.358 127.357 122.504 127.63 121.822 128.196C120.708 128.928 119.438 129.385 118.436 130.329C118.332 130.451 118.204 130.548 118.062 130.613C117.92 130.678 117.767 130.71 117.613 130.706C117.458 130.703 117.307 130.664 117.168 130.592C117.03 130.52 116.907 130.417 116.809 130.29C115.839 128.88 114.511 127.683 114.142 125.868C114.443 124.956 115.066 124.197 115.243 123.224C115.318 123.186 115.378 123.121 115.413 123.042C115.449 122.962 115.458 122.871 115.439 122.786C115.573 122.582 115.716 122.38 115.593 122.105C115.626 122.081 115.654 122.049 115.675 122.012C115.696 121.975 115.71 121.934 115.716 121.891C115.721 121.849 115.719 121.805 115.708 121.764C115.697 121.722 115.679 121.684 115.654 121.65L115.794 120.999C115.881 120.762 116.021 120.544 115.886 120.288C116.07 120.072 115.987 119.819 115.954 119.579L115.924 118.425L115.906 117.953C115.955 117.889 115.987 117.813 115.998 117.732C116.01 117.651 116.001 117.569 115.972 117.493C116.005 117.289 116.137 117.034 116.068 116.886C115.737 115.878 115.543 114.824 115.492 113.756C115.273 112.388 114.511 111.221 113.897 110.025C113.771 109.782 113.583 109.582 113.355 109.449C113.127 109.316 112.868 109.255 112.609 109.274C112.133 109.092 111.724 108.752 111.443 108.303C110.99 107.612 110.38 107.058 109.671 106.69C108.961 106.323 108.175 106.155 107.387 106.203C107.331 106.145 107.261 106.106 107.184 106.091C107.107 106.076 107.028 106.086 106.956 106.119C106.437 105.786 105.808 105.993 105.265 105.759L103.19 105.092C101.875 104.21 100.388 103.665 98.8423 103.497C98.1745 103.539 97.4716 103.494 97.2881 104.445C97.1596 104.821 97.1232 105.224 97.1824 105.618L97.1529 106.058L97.0912 106.523C96.9516 106.82 96.918 107.162 96.9968 107.483C97.1771 108.421 97.3172 109.372 97.5469 110.297C97.7134 110.998 97.7886 111.77 98.4073 112.272C98.4333 112.358 98.4844 112.432 98.5531 112.484L98.3399 112.777L98.2862 112.82L98.3445 112.844C99.4477 114.447 100.318 116.221 100.925 118.105L100.66 118.793C100.506 118.976 100.402 119.2 100.36 119.441C100.318 119.683 100.34 119.931 100.422 120.16L100.353 120.613L100.008 121.728L99.8971 122.17C99.751 122.959 100.315 123.61 100.311 124.339C100.242 124.536 100.215 124.747 100.232 124.956C100.248 125.165 100.307 125.368 100.404 125.549C100.407 126.13 100.552 126.699 100.826 127.199C101.35 128.163 101.775 129.186 102.094 130.25C101.974 130.522 102.113 130.748 102.214 130.978C102.016 131.56 102.958 132.001 102.374 132.623C102.122 132.654 102.106 132.835 102.137 133.05L102.021 133.496C101.715 134.217 101.611 135.016 101.72 135.797C101.488 137.223 101.769 138.687 102.506 139.894C102.808 140.388 103.206 140.806 103.673 141.119C104.14 141.432 104.665 141.633 105.213 141.708C106.144 141.856 106.637 141.368 107.219 140.633C108.315 139.224 108.936 139.272 109.888 140.812C110.012 141.044 110.115 141.288 110.198 141.54C109.81 142.294 109.284 142.957 108.652 143.488C108.019 144.02 107.294 144.409 106.518 144.632C105.39 144.933 104.603 145.574 104.507 146.917C104.33 147.19 104.033 147.434 104.103 147.813C103.67 148.306 103.858 148.892 103.923 149.433C103.847 149.862 103.867 150.303 103.98 150.722C104.093 151.14 104.297 151.523 104.574 151.84C105.781 152.991 105.619 154.094 104.724 155.325C104.469 155.726 104.242 156.145 104.045 156.581C103.908 156.87 103.679 157.099 103.4 157.224C101.716 158.035 99.8983 158.472 98.0559 158.509C97.1921 158.415 96.3208 158.61 95.5623 159.068C94.349 160.029 92.8697 160.519 91.7113 161.597C90.6784 162.558 89.592 163.451 88.4583 164.271C87.9931 164.529 87.6279 164.955 87.4282 165.473C87.2285 165.992 87.2073 166.569 87.3684 167.1C87.5615 168.537 88.2667 169.835 89.3361 170.722C89.5924 170.894 89.8158 171.117 89.9946 171.378C90.781 172.517 91.9197 173.318 93.2086 173.64C93.6664 173.907 94.1758 174.058 94.6977 174.081C96.1921 175.217 97.5222 174.872 98.76 173.572C99.0896 173.231 99.4561 172.932 99.7352 172.578C100.005 172.258 100.332 171.999 100.696 171.817C102.439 170.939 104.087 169.856 105.609 168.589C105.879 168.306 106.225 168.121 106.598 168.061C106.971 168.001 107.351 168.069 107.685 168.255C107.889 168.359 108.086 168.513 108.339 168.41C108.782 168.732 109.29 168.937 109.822 169.009C110.355 169.082 110.896 169.019 111.402 168.825C110.899 169.601 110.232 170.239 109.456 170.686C108.962 171.077 108.241 171.259 108.201 172.105L108.239 172.076C108.063 172.198 107.931 172.381 107.865 172.595C107.799 172.808 107.803 173.039 107.876 173.249C107.693 173.393 107.707 173.63 107.69 173.847C107.398 174.408 107.278 175.051 107.346 175.687C107.299 176.185 107.499 176.717 106.9 177.077C106.669 177.226 106.408 177.311 106.139 177.325C105.87 177.338 105.603 177.28 105.361 177.154C103.83 176.471 102.34 177.103 101.433 178.787C101.054 179.273 101.215 179.845 101.205 180.384L101.118 180.825C100.878 181.356 100.561 181.843 100.179 182.269C98.5114 184.174 98.3774 186.078 99.5978 188.299C100.818 190.52 102.769 191.463 105.006 191.931L105.445 192.026L105.868 192.063C106.373 192.296 106.91 192.442 107.458 192.494C108.473 192.523 108.826 192.216 109.232 191.009L109.348 190.563L109.431 190.117L109.497 189.657L109.545 189.185L109.546 188.715C110.452 186.475 112.379 186.612 114.127 186.573C114.823 186.626 115.52 186.478 116.145 186.143C117.099 185.654 117.974 185.005 118.738 184.222C119.395 183.481 120.088 182.778 120.815 182.116L120.783 182.142C121.565 182.394 122.319 182.738 123.031 183.168C123.263 183.276 123.518 183.322 123.423 182.857C123.453 183.046 123.504 183.059 123.587 182.878C123.494 183.323 123.494 183.323 124.206 183.273L124.495 183.186C125.136 183.032 125.628 183.519 126.201 183.605L126.628 183.719L127.062 183.808L127.52 183.774ZM192.011 67.4262C192.064 67.4853 192.132 67.5276 192.206 67.5484C192.28 67.5692 192.359 67.5678 192.432 67.5441C193.273 67.8755 194.049 68.3673 194.724 68.9959C195.71 70.0468 196.89 70.864 198.19 71.395C198.369 71.667 198.604 71.8903 198.877 72.0472C199.151 72.2041 199.455 72.2903 199.765 72.2989L200.137 72.4294C200.251 72.667 200.358 72.9189 200.651 72.6336L200.624 72.6548C202.034 73.5016 203.635 73.92 205.255 73.8654C205.413 73.9868 205.6 74.0576 205.795 74.0696C205.989 74.0815 206.183 74.0341 206.354 73.9329C208.876 73.2896 211.099 71.6888 212.611 69.4275C212.859 69.1044 213.003 68.7045 213.022 68.2877L213.077 67.8369L213.118 67.3788L213.16 66.9207L213.235 66.4629L213.336 66.0194L213.74 64.8938L213.767 64.4385C213.831 64.0429 213.79 63.6366 213.649 63.2658C213.773 62.8812 213.778 62.4642 213.661 62.078C213.655 61.9238 213.695 61.7413 213.643 61.6054C212.842 59.8428 211.863 58.1805 210.724 56.6481C210.215 55.9086 209.162 55.583 208.371 55.0589C206.771 52.9614 204.477 53.1229 202.301 53.0223C201.973 52.9652 201.638 52.9672 201.31 53.0283C200.428 52.2396 199.338 52.4034 198.314 52.3735C197.91 52.3871 197.514 52.2595 197.186 52.0102C196.857 51.7609 196.614 51.4033 196.493 50.9914C195.962 49.2999 194.883 47.8711 193.45 46.9643C193.098 46.816 192.778 46.5921 192.51 46.3064C192.243 46.0206 192.032 45.679 191.892 45.3024C191.879 45.2081 191.845 45.1187 191.792 45.0415C191.74 44.9642 191.672 44.9013 191.593 44.8579C191.514 44.8145 191.426 44.7917 191.337 44.7916C191.248 44.7914 191.16 44.8137 191.08 44.8568C190.013 44.1741 189.042 43.334 188.195 42.361C186.995 40.8582 186.632 39.0387 186.296 37.188C186.358 34.9255 185.317 33.4122 183.705 32.0327C182.474 31.1317 181.192 30.314 179.865 29.5844C179.519 29.369 179.108 29.3074 178.719 29.4125L177.592 29.499C176.998 29.4713 176.402 29.5402 175.825 29.7034C173.034 29.6837 170.971 30.8929 169.829 33.7191C169.633 34.2243 169.297 34.6539 168.867 34.9501C168.626 35.1415 168.368 35.3457 168.455 35.7373C168.224 35.9202 168.332 36.1978 168.359 36.442C168.341 36.8988 168.329 37.3513 168.325 37.8153C168.169 38.1834 168.09 38.5828 168.093 38.986C168.095 39.3893 168.179 39.7867 168.338 40.151C168.958 41.8476 169.485 43.5909 170.842 44.8533C171.213 45.2908 171.531 45.7771 171.787 46.3005L171.716 46.7641C171.492 47.0926 171.345 47.4737 171.286 47.8753C171.145 48.0643 171.047 48.2869 171.003 48.5242C170.958 48.7615 170.967 49.0066 171.029 49.2387C171.312 50.0241 171.122 50.8211 171.229 51.604C171.089 53.3179 171.842 54.7497 172.586 56.1344C173.887 58.5572 175.813 60.4052 177.75 62.2091C178.22 62.6514 178.49 63.3939 179.315 63.3513C180.619 64.6456 182.21 65.5609 183.939 66.0109C184.14 66.3033 184.476 66.2852 184.766 66.3567C185.214 66.5934 185.699 66.743 186.197 66.7987C186.407 66.8983 186.604 67.0522 186.853 66.9436C188.415 67.2378 189.957 67.7432 191.579 67.3881L192.011 67.4262ZM65.6129 191.943C65.9868 192.014 66.3713 191.991 66.7365 191.876C67.2657 192.061 67.8415 192.025 68.3492 191.775C68.8568 191.526 69.2591 191.081 69.476 190.529C69.8512 189.819 70.3464 189.19 70.9362 188.673C71.4224 188.28 71.8121 187.767 72.0715 187.177C72.3308 186.587 72.452 185.939 72.4243 185.289C72.7516 183.932 72.0579 182.923 71.4404 181.88C70.9107 180.989 70.129 180.262 70.1699 179.043C70.1818 178.626 69.7932 178.315 69.4761 178.034C67.9124 176.617 66.1654 177.115 64.6949 177.944C63.7062 178.57 62.5486 178.815 61.4154 178.638L60.995 178.581C60.0629 178.771 59.2372 179.348 58.6993 180.188C58.3787 180.602 58.1922 181.117 58.1679 181.654C58.1436 182.191 58.2827 182.721 58.5644 183.164C59.3172 184.692 60.3355 186.029 61.0331 187.61C61.9183 189.513 63.4023 191.018 65.2247 191.861L65.6129 191.943Z" fill="#C73A2A"/>
</svg>
